<svg xmlns="http://www.w3.org/2000/svg" width="1280" height="973" fill="none" xmlns:v="https://vecta.io/nano"><path fill-rule="evenodd" d="M311.217 326.327c-.917 2.35-1.768 3.214-5.25 5.33-.91.553-1.261 1.055-1.345 1.926-.104 1.063.078 1.301 1.888 2.459 1.471.941 2.218 1.737 2.808 2.993.443.942.809 1.923.813 2.181s.328 1.173.719 2.034c1.385 3.05 3.624 2.427 4.71-1.311.727-2.499 2.945-4.859 5.294-5.63 1.974-.649 2.644-1.267 2.644-2.441 0-.984-.949-1.658-2.335-1.658-1.855 0-3.343-1.512-4.768-4.844-1.339-3.132-1.351-3.145-2.807-3.255l-1.463-.111-.908 2.327zm3.731 6.062l1.571 2.037-1.56 1.864c-.859 1.026-1.691 1.865-1.85 1.865s-.975-1.044-1.813-2.319l-1.523-2.319 1.552-1.583c.855-.87 1.666-1.582 1.803-1.582s.956.917 1.82 2.037zm616.464 2.514c-.203.256-.573 1.096-.821 1.867-.605 1.879-2.01 3.481-3.871 4.416-2.163 1.087-2.834 1.77-2.827 2.878.007 1.251.302 1.662 1.715 2.385 1.754.899 2.95 2.553 3.867 5.348.886 2.701 1.233 3.295 2.237 3.833 1.035.554 2.369-.827 3.316-3.432 1.003-2.758 2.58-4.409 5.103-5.341 2.365-.874 2.762-1.224 2.63-2.317-.124-1.026-.523-1.3-2.754-1.892-2.011-.534-3.288-1.871-4.243-4.439-1.137-3.058-1.689-3.77-2.923-3.77-.584 0-1.227.209-1.429.464zm-219.95.372c-.206.256-.493 1.02-.639 1.699-.341 1.597-2.132 3.622-4.059 4.589-2.186 1.1-2.821 1.768-2.821 2.969 0 .871.328 1.263 1.84 2.193 2.119 1.304 2.947 2.518 4.078 5.983.523 1.6 1.121 2.683 1.685 3.053.803.525.95.514 1.781-.14.499-.392 1.277-1.729 1.73-2.971.993-2.726 2.685-4.518 5.11-5.414 2.451-.906 2.779-1.222 2.65-2.548-.101-1.034-.288-1.19-1.911-1.59-2.622-.647-3.548-1.41-4.575-3.768l-1.445-3.312c-.447-1.021-.723-1.207-1.789-1.207-.694 0-1.43.209-1.635.464zm-134.547 1.358c-.519.519-.774 1.486-.954 3.623-.348 4.113-.823 6.647-1.524 8.124-.808 1.703-3.22 4.402-4.813 5.387-2.037 1.258-2.052 2.283-.066 4.407 2.665 2.85 4.01 6.136 5.267 12.87.639 3.421 1.528 5.008 2.805 5.008 1.093 0 1.756-1.204 2.965-5.387 1.637-5.663 2.959-7.996 6.469-11.417 2.725-2.655 2.916-2.939 2.537-3.77-.24-.528-1.302-1.339-2.571-1.966-3.21-1.585-4.078-3.116-6.036-10.652-1.162-4.473-1.804-6.321-2.283-6.578-.898-.481-.98-.464-1.796.351zm358.207 9.108c-1.525 1.934-2.728 3.272-2.826 3.142-.059-.077-.845-1.207-1.746-2.511L928.911 344l1.824-1.606 1.824-1.605 1.605 2.066c1.562 2.013 1.587 2.088.958 2.886zm-220.744-2.571l1.542 2.043-1.066 1.351c-2.474 3.134-2.02 3.104-3.995.261l-1.763-2.54 1.779-1.579c.978-.868 1.819-1.579 1.869-1.579s.786.919 1.634 2.043zm-234.159 2.057c-.341.2-.896 1.19-1.231 2.201-.638 1.921-2.197 3.594-4.376 4.697-3.21 1.626-3.327 2.86-.47 4.97 2.263 1.672 2.524 2.059 3.899 5.759.69 1.86 1.246 2.752 1.966 3.156.928.521 1.06.506 1.757-.191.415-.414 1.069-1.617 1.455-2.672 1.13-3.093 2.116-4.165 5.09-5.539 2.928-1.353 3.632-2.295 2.581-3.456-.334-.369-1.31-.765-2.17-.88-2.026-.272-3.615-1.967-4.742-5.059-1.064-2.919-2.254-3.864-3.759-2.986zm-289.438.637c-.369.421-.776 2.405-1.156 5.637-.532 4.512-.709 5.183-1.867 7.059-.723 1.173-2.223 2.812-3.452 3.774-2.797 2.188-2.894 2.853-.752 5.143 2.665 2.849 3.806 5.607 5.074 12.26.798 4.189 1.401 5.233 3.022 5.233 1.293 0 1.441-.273 2.924-5.388 1.589-5.482 2.608-7.28 6.052-10.688 3.744-3.704 3.772-4.32.283-6.214-3.276-1.779-4.069-3.183-5.985-10.592-.846-3.27-1.708-6.154-1.916-6.41-.538-.66-1.562-.574-2.227.186zm391.69 9.135l1.509 1.426-1.569 2.078c-.863 1.143-2.271 3.31-3.13 4.817l-1.561 2.739-1.765-4.013c-2.726-6.199-2.657-5.832-1.394-7.446.603-.769 1.733-2.365 2.512-3.548l1.417-2.15 1.236 2.336c.68 1.285 1.915 2.977 2.745 3.761zm-99.866-1.597c.766 1.006 1.39 1.958 1.385 2.115s-.719 1.136-1.589 2.174l-1.582 1.888-1.746-2.497-1.747-2.498 1.655-1.527c.911-.84 1.786-1.517 1.944-1.506s.914.845 1.68 1.851zm-286.465 10.53l1.748 1.823-1.685 2.145c-.926 1.179-2.314 3.34-3.084 4.803l-1.399 2.66-2.143-4.85c-1.179-2.668-2.061-5.062-1.961-5.321s1.234-1.947 2.52-3.75l2.339-3.279.959 1.973c.527 1.085 1.745 2.793 2.706 3.796zm-94.237-3.773c-.514.733-.578 4.819-.578 36.567l-.226 36.329c-.13.338-.658.587-1.245.587-1.892 0-3.281.728-3.704 1.941-.271.778-.399 10.968-.399 31.904l-.365 30.987c-.201.124-2.409.328-4.907.454-4.073.205-4.63.316-5.394 1.08-.711.711-.857 1.267-.886 3.376-.106 7.764-.239 11.282-.433 11.476-.12.12-1.564.31-3.209.423-4.308.295-4.216.122-4.473 8.363l-.21 6.753-.929.258c-.511.141-1.598.276-2.415.3s-1.677.165-1.91.315-.632 1.569-.887 3.153l-.463 2.88h-2.532c-1.393 0-2.95.19-3.461.423-1.929.878-3.024 5.287-1.951 7.854l.578 1.383h4.405 4.405l-.086 190.883-.331 194.627c-.134 2.06-.355 3.924-.491 4.143-.168.271-5.721.442-17.338.536-19.334.155-19.228.14-19.435 2.642-.108 1.306-.021 1.442 1.3 2.022 1.312.577 11.604.646 139.439.936l532.601.205 395.586-.768c.83-.548 1-.929 1-2.265 0-1.16-.21-1.802-.78-2.313-.75-.683-1.91-.712-32.71-.811l-31.93-.103.3-8.628c.44-12.814.3-58.073-.21-69.377-1.44-31.964-2.86-49.487-6.4-78.954-3.29-27.479-5.9-44.257-10.37-66.693-24.177-121.473-69.313-208.701-122.237-236.236-8.195-4.263-13.522-5.947-24.813-7.841-6.726-1.129-8.333-1.092-9.42.219-.424.51-.522 35.628-.613 218.743l.19 232.253.161 15.327-.138 1.207h-4.603-4.604l-.045-81.09-.862-152.495c-.561-1.618-2.53-1.976-10.896-1.981-4.237-.002-8.329-.107-9.095-.234l-1.394-.23-.02-14.721c-.015-10.381-.152-15.104-.465-16.021l-.444-1.3-3.343-.281c-1.839-.154-9.697-.238-17.462-.185l-14.118.094-.444 1.301c-.34.997-.448 32.258-.464 134.222l-.021 132.921h-5.596-5.596l.29-1.765c.16-.97.276-89.794.259-197.385l-1.3-206.366c-.623-1.367-1.883-1.701-6.414-1.701h-4.205l-.947-2.136c-.52-1.176-4.659-11.165-9.197-22.2L728.87 424.54c-.813-1.226-1.228-1.507-2.36-1.601-1.212-.102-1.463.03-2.123 1.114-.892 1.465.99-3.668-20.678 56.385l-17.768 48.985c-.081.081-2.617.302-5.637.49-6.242.391-6.973.672-7.327 2.814-.31 1.878-.239 390.584.073 398.141l.242 5.852h-6.595l-6.595-.001v-88.15l-.246-104.562-.245-16.414 1.453-.262c1.628-.294 2.805-.818 3.213-1.428.15-.225.275-2.615.278-5.311.005-4.648-.037-4.932-.82-5.48-.731-.513-4.399-.579-32.137-.579h-31.312l-.044-59.355-.279-75.331c-.262-17.907-.264-17.915-2.835-18.764-.979-.323-12.578-.407-45.492-.33l-44.178.103-.491.95c-.405.782-.508 28.088-.588 154.678l-.096 153.728h-2.995-2.995l.07-98.553-.336-99.575-.406-1.022h-16.933-16.933l-.538 1.289c-.439 1.05-.538 3.961-.538 15.747v14.459l-.836.224c-.46.123-1.436.226-2.17.229l-1.334.005-.245-8.42-.245-15.764v-7.345l2.136-.41c1.175-.225 2.387-.546 2.694-.713 1.804-.98 1.813-10.54.012-11.999-.797-.645-2.479-.678-34.756-.678h-33.919l-.154-46.35c-.17-51.313-.039-48.72-2.517-49.99-1.232-.633-3.616-.663-45.619-.579l-44.68.525c-.957 1.152-1.074 8.787-1.085 70.617l-.011 64.694-2.581.254c-1.532.151-3.232.597-4.18 1.096-1.338.704-1.671 1.11-2.041 2.488-.322 1.2-.439 8.707-.432 27.73l-.197 26.418c-.113.184-2.719.423-5.791.532-6.121.217-7.191.553-7.714 2.424-.157.559-.285 41.102-.285 90.095v89.079h-4.087-4.086l-.008-169.705-.392-170.819c-.304-.878-.775-1.249-2.222-1.749-1.661-.573-4.32-.635-27.813-.65-26.811-.016-29.857.126-31.525 1.477l-.829.67v170.389 170.387h-2.507-2.508v-78.443l-.775-81.745c-.524-2.23-.991-3.416-1.44-3.657-.366-.196-2.935-.47-5.709-.609l-5.044-.253-.111-49.082-.615-50.06c-.455-.883-.817-1.018-3.74-1.393-1.78-.228-7.19-.415-12.022-.415-8.729 0-8.788.005-9.238.836-.745 1.374-1.01 13.567-1.036 47.558l-.024 31.86h-12.817-12.818l-.021-73.473-.325-101.15-.135-28.122c.094-.246.642-.549 1.216-.676 1.554-.341 2.383-1.423 2.054-2.68-.149-.57-.333-1.839-.407-2.82-.244-3.208-1.074-4.315-3.907-5.209-.604-.191-1.064-1.995-1.072-4.202-.005-1.329-.391-1.725-2.282-2.334-1.677-.539-1.807-1.071-1.813-7.418-.006-6.741-.154-7.383-1.808-7.842-.74-.206-2.045-.375-2.9-.376-1.159-.002-1.602-.168-1.743-.653-.104-.357-.303-3.492-.442-6.966-.242-6.012-.497-7.456-1.425-8.076-.225-.15-2.248-.277-4.495-.282s-4.71-.113-5.47-.239l-1.384-.229-.103-31.255-.573-32.079c-.447-.783-2.149-1.468-4.174-1.681l-.928-.097-.186-36.448c-.197-38.689-.147-37.676-1.882-37.676-.372 0-.937.371-1.255.826zm915.847 1.124c-.29.46-.72 2.759-.96 5.109-.62 6.169-1.54 7.881-6.48 12.116-.74.635-1.34 1.423-1.34 1.75s.64 1.229 1.42 2.003c2.68 2.662 4.28 6.453 5.45 12.877.71 3.935 1.34 5.065 2.82 5.065 1.32 0 1.48-.303 3.14-5.824 1.66-5.495 2.97-7.717 6.44-10.898 2.45-2.242 2.72-2.623 2.5-3.512-.18-.717-.71-1.203-1.89-1.724-2.19-.969-3.79-2.358-4.65-4.05-.39-.765-1.3-3.738-2.02-6.606-1.74-6.887-1.84-7.142-2.98-7.142-.56 0-1.14.333-1.45.836zm2.77 13.933c.47.971 1.67 2.632 2.67 3.691l1.81 1.927-1.85 2.445c-1.01 1.345-2.4 3.513-3.08 4.819l-1.23 2.373-2.17-4.887c-1.94-4.355-2.12-4.974-1.69-5.691.63-1.029 4.5-6.441 4.61-6.441.05 0 .47.794.93 1.764zm-217.194 1.236c-9.093.65-11.415 1.335-12.656 3.735-.823 1.591-.794 4.411.058 5.854 1.457 2.466 3.081 2.65 12.227 1.387 8.195-1.132 14-1.447 22.663-1.232 16.438.409 29.532 2.663 51.271 8.825 15.665 4.44 24.59 7.929 34.192 13.363 5.248 2.97 6.744 3.445 7.601 2.413 1.158-1.395-.557-3.168-7.613-7.871-24.406-16.268-59.295-26.173-93.996-26.687-4.904-.072-11.09.024-13.747.213zm-507.702 4.312c-3.048 2.074-8.748 7.157-11.108 9.907-11.581 13.491-16.568 27.105-15.878 43.343.355 8.34 2.204 15.063 5.809 21.126 6.067 10.201 14.966 16.964 26.361 20.036 3.283.885 4.156.96 11.359.969 7.143.01 8.15-.072 11.925-.963 5.765-1.362 10.99-3.505 17.054-6.994 6.115-3.519 8.731-5.828 8.731-7.706 0-1.962-1.287-2.296-9.565-2.482-16.144-.363-26.73-3.446-35.113-10.225-6.018-4.866-9.689-11.142-11.527-19.706-.577-2.689-.761-4.945-.774-9.474-.027-9.222 1.396-16.542 5.707-29.353l2.25-6.687-1.305-1.208c-1.456-1.348-2.561-1.511-3.926-.583zm92.237 2.812c-.206.256-.484.978-.618 1.606-.338 1.582-2.218 3.747-4.058 4.672-2.206 1.109-2.843 1.775-2.843 2.971 0 .821.322 1.255 1.46 1.974 2.331 1.472 3.303 2.785 4.318 5.834 1.163 3.493 2.175 4.416 3.607 3.289.498-.392 1.276-1.728 1.729-2.971.994-2.725 2.686-4.518 5.111-5.414 2.45-.906 2.778-1.221 2.649-2.547-.101-1.035-.288-1.19-1.91-1.591-2.623-.647-3.549-1.41-4.576-3.767l-1.445-3.313c-.447-1.021-.723-1.207-1.789-1.207-.694 0-1.429.209-1.635.464zm-92.21 2.787c-.166.562-1.001 3.028-1.855 5.48-3.343 9.601-4.918 18.178-4.948 26.938-.022 6.785.616 10.931 2.489 16.172 3.412 9.547 9.876 16.683 19.344 21.354 6.97 3.438 13.124 4.896 23.592 5.587 3.575.236 6.648.568 6.828.739.755.715-8.145 5.418-13.634 7.205-5.068 1.649-8.902 2.226-14.743 2.218-11.578-.015-20.752-3.581-28.16-10.945-18.067-17.961-14.83-51.175 7.046-72.279 1.949-1.881 3.917-3.491 4.266-3.491.043 0-.059.46-.225 1.022zm95.082 5.136c1.375 1.822 1.501 2.146 1.047 2.694l-1.684 2.005-1.167 1.382-1.739-2.488-1.739-2.487 1.754-1.589c.965-.873 1.801-1.588 1.859-1.588s.809.932 1.669 2.071zM54.996 404.736c-.21.266-.484.901-.611 1.412-.421 1.706-1.712 3.349-3.495 4.447-3.169 1.951-3.437 2.215-3.437 3.376 0 .918.302 1.287 1.821 2.221 2.183 1.343 2.805 2.229 3.969 5.652 1.642 4.827 3.592 4.907 5.343.218 1.128-3.02 2.037-3.978 5.123-5.404 2.63-1.215 2.732-1.31 2.622-2.444-.118-1.207-.436-1.413-2.977-1.924-1.67-.337-2.846-1.718-4.123-4.842-1.174-2.87-1.261-2.976-2.534-3.084-.763-.064-1.479.092-1.7.372zm2.888 7.908l1.538 2.037-1.561 1.864c-.858 1.025-1.67 1.863-1.804 1.863s-.955-1.039-1.824-2.307l-1.58-2.307 1.564-1.594c.86-.876 1.691-1.594 1.846-1.594s.974.917 1.82 2.038zm671.799 24.423c1.326 3.314 2.328 6.24 2.228 6.502-.136.352-1.384.477-4.788.477-4.157 0-4.604-.064-4.604-.658 0-1.953 3.752-12.346 4.457-12.346.163 0 1.381 2.711 2.707 6.025zm-622.488.365c.339.34.446 7.651.446 30.639v30.192l-1.579.428c-1.501.407-5.827.261-6.61-.223-.223-.137-.356-11.699-.356-30.851v-30.631h3.826c2.481 0 3.984.157 4.273.446zm545.715 10.051a7.25 7.25 0 0 0-.751 1.829c-.343 1.482-1.959 3.2-4.197 4.464-3.19 1.8-3.463 3.305-.896 4.926 1.965 1.24 3.272 2.921 3.891 5.006 1.199 4.039 2.524 5.254 4.106 3.767.464-.435 1.048-1.496 1.299-2.357.842-2.893 2.007-4.205 5.015-5.653 1.532-.736 2.868-1.635 2.986-2.007.323-1.017-.15-1.879-1.143-2.083l-1.789-.368c-1.663-.343-3.087-1.954-4.122-4.663-.547-1.431-1.241-2.848-1.542-3.15-.819-.819-2.256-.674-2.857.289zm84.064 7.571c2.444 6.073 2.98 7.73 2.581 7.982-.277.175-5.811.321-12.299.325l-11.796.005v-.907c0-.842 4.008-12.419 4.834-13.961.472-.883 1.249-.985 8.003-1.052l5.592-.056 3.085 7.664zm-81.085.247l1.536 1.967-1.541 1.915c-.847 1.053-1.641 1.924-1.765 1.935-.308.026-3.305-4.279-3.305-4.748 0-.376 2.912-3.035 3.323-3.035.119 0 .908.885 1.752 1.966zm167.343 2.81c-.203.379-.615 2.8-.915 5.38-.743 6.388-1.463 7.682-6.685 12.015-1.372 1.139-1.218 2.12.651 4.132 2.587 2.785 4.125 6.55 5.069 12.411.556 3.455 1.459 5.128 2.766 5.128 1.248 0 1.793-.949 3.119-5.437 1.578-5.337 3.004-7.945 5.882-10.753 1.345-1.313 2.591-2.387 2.767-2.387s.321-.595.321-1.321c0-1.237-.125-1.376-1.965-2.19-3.867-1.71-4.751-3.298-7.146-12.835-.539-2.144-1.154-4.108-1.367-4.365-.579-.697-2.076-.564-2.497.222zm178.048 3.637c-.24.098-.72 1.017-1.06 2.041-.707 2.124-2.141 3.64-4.809 5.08-1.019.55-1.912 1.305-1.984 1.679-.224 1.171.278 2.419 1.076 2.673 1.277.405 3.154 2.285 3.774 3.782a78.81 78.81 0 0 1 1.216 3.192c.737 2.069 1.997 3.115 3.067 2.541.65-.347 1.2-1.397 2.31-4.371.61-1.641 2.27-3.114 4.95-4.409 1.71-.827 2.34-1.337 2.43-1.972.16-1.121-.55-1.93-1.68-1.93-2.16 0-4.24-1.933-5.35-4.964-1.21-3.31-2.12-4.084-3.94-3.342zm-820.53 4.986c-.352.205-.822 1.049-1.045 1.876-.509 1.894-2.24 3.798-4.624 5.088-1.235.668-1.974 1.354-2.223 2.064-.332.947-.257 1.151.684 1.858 3.157 2.373 4.222 3.738 5.029 6.448.764 2.566 1.712 3.821 2.886 3.821.828 0 1.947-1.571 2.517-3.532.696-2.395 2.35-4.075 5.483-5.571 1.408-.672 2.384-1.384 2.46-1.793.193-1.04-.923-1.993-2.597-2.218-2.06-.276-3.423-1.687-4.648-4.81-1.262-3.217-2.374-4.133-3.922-3.231zm562.131 2.67l3.75 9.06c1.451 3.501 2.638 6.552 2.638 6.78 0 .301-5.83.415-21.202.415h-21.202l.255-.836c.478-1.568 4.32-12.346 5.429-15.233l1.107-2.88h14.057 14.056l1.112 2.694zm260.889.653c1.1 1.475 1.37 2.101 1.1 2.555-.6 1.025-2.91 3.565-3.07 3.378-.08-.097-.84-1.213-1.69-2.478l-1.546-2.302 1.766-1.665c.96-.915 1.81-1.614 1.87-1.553s.77.99 1.57 2.065zm-177.565 2.298c.495 1.062 1.674 2.707 2.623 3.657l1.723 1.727-1.534 2.009c-.843 1.106-2.241 3.253-3.107 4.772l-1.574 2.761-.724-1.647-2.185-4.981-1.461-3.335 1.77-2.308c.973-1.27 2.072-2.821 2.442-3.447s.774-1.137.899-1.137.633.868 1.128 1.929zm-643.038 2.52c.759 1.016 1.38 1.997 1.38 2.179s-.694 1.184-1.542 2.227l-1.542 1.895-1.752-2.495-1.752-2.496 1.715-1.565c.943-.861 1.804-1.571 1.914-1.579s.82.817 1.579 1.834zm695.579-.385c9.468 2.279 21.24 8.136 30.713 15.281 9.703 7.319 19.19 16.822 27.976 28.024 5.515 7.033 7.11 9.403 6.641 9.871-.249.249-5.665.52-14.841.741l-17.123.566c-2.938.238-4.004.885-3.043 1.846.437.437 3.247.606 15.015.905l19.123.375 4.644.008 2.824 4.363c5.782 8.937 15.453 26.219 15.649 27.968l.103.918-21.734.263-28.521.582c-7.08.333-8.247.629-7.079 1.797.953.953 7.87 1.249 35.07 1.502l24.92.232.955 1.713c2.654 4.765 15.276 34.714 16.381 38.869l.438 1.579.24.836-12.007-.002c-17.446-.001-59.783.704-66.064 1.101-2.963.188-5.773.484-6.244.659-.849.314-.85.324-.128.978.619.56 1.878.713 8.288 1.003 8.247.374 71.45 1.056 75.364.814l2.416-.15 1.068 2.722c4.174 10.636 14.36 44.917 15.97 53.716l.22 1.208-27.58.001-74.972 1.039c-2.757.229-3.133.346-3.133.976 0 .482.365.814 1.115 1.015 2.113.565 30.931 1.061 66.875 1.151 33.335.084 36.125.043 37.195-.542 1.12-.615 1.16-.61 1.57.186.59 1.155 8.29 36.612 8.16 37.562l-.11.782-30.84.248c-35.241.283-51.337.785-52.186 1.627-.478.475-.476.608.014 1.099.908.907 14.184 1.314 50.82 1.555l33.202.218.47 1.156c.26.636.59 1.909.73 2.829l1.89 11.146c2.41 13.982 2.94 18.24 2.33 18.625-.27.172-18.16.315-39.76.319l-40.211.433c-.998.455-1.54 1.525-1.117 2.207.889 1.439 1.267 1.452 42.295 1.452 37.343 0 39.563.037 39.753.65.81 2.654 2.84 17.403 3.4 24.653l.25 3.196-6.08.237-12.7.48c-5.24.194-6.74.365-7.2.819-.515.519-.496.636.2 1.199.66.534 2.18.659 10.54.866l12.81.461 3.04.219.39 2.466c.41 2.608.82 6.79 1.71 17.7l.91 10.89c.19 2.312.26 4.675.15 5.252l-.21 1.05-12.32.216-41.107.57c-30.061.37-31.966.485-31.216 1.886.288.539.931.733 2.882.875 1.382.1 20.401.377 42.266.616l40.005.686c.32.318.98 9.565 1.24 17.343l.39 9.196.19 3.251-24.07.002c-36.942.004-72.002.806-72.862 1.666-.123.124-.046.51.173.858.265.421 1.13.715 2.587.88 4.471.506 42.399 1.14 67.642 1.131 23.94-.009 26.1.041 26.32.606.36.892.71 16.032.4 17.642-.18.996-.47 1.404-1.07 1.526-.45.091-7.42.328-15.5.526-8.07.198-14.97.48-15.34.627-1.139.454-.555 1.438 1.04 1.759.82.164 7.95.417 15.85.563s14.51.403 14.67.571c.84.838.82 29.402-.02 30.538-.35.474-3.74.608-23.44.924l-24.062.601c-1.298.292-1.54.68-.854 1.367.647.646 6.574.878 31.516 1.232 11.69.166 16.71.36 16.9.655.37.585.24 7.672-.15 8.026-.17.16-36.864.406-81.535.548l-81.22.257.15-4.578c.082-2.518.229-5.094.325-5.725l.175-1.146 48.015-.276c57.958-.332 61.241-.456 58.549-2.203-.745-.484-4.378-.628-24.441-.964l-52.85-.395h-29.284v-16.706c0-15.535.046-16.731.65-17.045.378-.196 17.879-.363 41.704-.396 36.407-.052 58.302-.402 60.838-.975 1.153-.261 1.048-1.226-.186-1.704-1.486-.576-26.026-1.078-67.154-1.373l-35.666-.256-.097-14.947-.097-14.946.84-.172c.462-.095 18.729-.267 40.593-.382l66.24-1.164c1.374-.287 1.394-.877.051-1.51-1.075-.505-36.898-1.214-79.294-1.569l-28.236-.236-.103-27.308.085-28.085.187-.775 55.273-.253 68.391-1.251c.832-.312.837-.339.163-.949-.511-.463-1.859-.72-5.13-.981-4.961-.395-49.236-.798-91.002-.828-20.295-.015-27.564-.132-27.766-.448-.15-.235-.275-6.538-.278-14.007-.004-10.074.109-13.695.44-14.026s3.747-.445 13.096-.441l30.298-.415c14.627-.348 17.802-.516 18.548-.984.837-.525.855-.599.254-1.038-1.083-.792-3.827-.899-33.471-1.31l-28.846-.792c-1.006-1.628-.65-50.538.372-51.17.281-.173 21.597-.414 47.369-.535 45.778-.215 58.58-.477 59.317-1.214.236-.236.191-.598-.13-1.037-.442-.605-1.511-.71-10.497-1.033-5.502-.197-29.482-.471-53.287-.607l-43.283-.247-.096-18.44-.097-18.44.84-.225c.461-.124 10.536-.226 22.388-.228 25.089-.004 42.059-.534 42.898-1.341.477-.46.472-.595-.039-1.107-.889-.889-8.805-1.189-39.237-1.487l-26.843-.262v-27.241-27.24l1.208-.186c.663-.102 12.743-.272 26.842-.378 24.594-.185 38.89-.621 41.216-1.256 1.315-.36 1.614-1.005.693-1.498-1.192-.638-19.295-1.216-44.974-1.437l-24.985-.215v-24.469-24.469l17.741.002c16.802.002 43.818-.546 47.133-.958.841-.104 1.844-.423 2.23-.709 2.583-1.916-4.395-2.365-39.731-2.556-19.035-.103-26.804-.263-27.101-.561-.443-.443-.946-68.576-.514-69.701.321-.837 5.593-.753 9.344.15zm-435.156.487c-.206.256-.484.978-.618 1.606-.337 1.582-2.218 3.747-4.058 4.672-2.201 1.106-2.843 1.774-2.843 2.958 0 .698.316 1.259.96 1.707 3.132 2.18 3.596 2.831 5.153 7.233.337.954 1.008 1.993 1.489 2.309.805.527.951.516 1.783-.139.498-.392 1.277-1.729 1.729-2.971 1.013-2.777 2.702-4.532 5.294-5.499 2.243-.836 2.75-1.423 2.407-2.786-.204-.814-.515-1.003-2.005-1.222-2.296-.336-4.084-2.143-5.091-5.149-.401-1.194-.956-2.399-1.235-2.677-.634-.634-2.467-.66-2.965-.042zm2.872 7.923c1.375 1.822 1.501 2.146 1.047 2.694l-1.681 2.003-1.166 1.379-1.762-2.47-1.763-2.47 1.823-1.603c1.002-.882 1.848-1.604 1.88-1.604s.762.932 1.622 2.071zm306.552 10.933c2.322 5.147 5.41 13.154 5.604 14.532l.125.888-30.001.095c-24.883.079-30.001.01-30.001-.403 0-1.352 4.089-13.088 6.204-17.808l.959-2.139 22.507.095 22.507.096 2.096 4.644zm-198.288 6.038c-.405.46-1.182 1.537-1.728 2.394-1.435 2.252-3.37 4.067-5.474 5.133-1.838.931-2.45 1.892-2.161 3.392.155.804 1.483 1.515 3.382 1.811 2.041.318 3.733 2.002 4.942 4.922 1.308 3.156 1.903 3.87 3.111 3.73.771-.09 1.192-.613 2.249-2.792 1.477-3.044 3.048-4.83 5.828-6.625 2.079-1.342 2.848-2.367 2.485-3.313-.27-.705-1.706-1.493-3.369-1.851-2.128-.459-4.03-2.187-5.253-4.776-1.433-3.033-2.605-3.625-4.012-2.025zm-434.902 2.453c1.15.729.975 11.365-.206 12.546-.519.519-2.35.572-16.097.457-8.53-.071-15.649-.269-15.819-.439-.378-.378-.416-11.321-.042-12.23.248-.605 1.361-.65 15.976-.645 8.64.003 15.925.143 16.189.311zm437.032 4.115c.442.598 1.535 1.612 2.429 2.254l1.624 1.166-2.136 2.419-2.137 2.418-.554-.864c-.305-.475-1.332-1.691-2.282-2.702l-1.728-1.838 1.701-1.97c.935-1.084 1.831-1.971 1.99-1.971s.651.49 1.093 1.088zm321.748 3.692c-.692.13-1.498.6-1.792 1.045-.479.725-.458.886.205 1.548.461.461 1.486.83 2.721.978 1.089.131 11.276.187 22.637.124 22.179-.123 21.884-.096 21.884-2.005 0-1.807-.177-1.822-23.035-1.876-11.75-.028-21.929.055-22.62.186zm-121.161 3.343l3.529.237.995 1.858c1.307 2.439 5.031 11.63 5.194 12.818l.127.929-38.215.095-38.215.094.246-.981c.257-1.024 4.142-11.552 5.158-13.977l.584-1.393 28.533.042 32.064.278zm-433.625 3.843c-.335.265-.813 1.123-1.061 1.907-.611 1.925-2.349 3.821-4.506 4.914-2.996 1.518-3.252 3.194-.73 4.786 1.965 1.241 3.271 2.922 3.89 5.007 1.106 3.723 2.298 4.998 3.88 4.152.388-.208.912-.928 1.163-1.6 1.196-3.191 1.727-4.125 3.002-5.277.757-.684 2.025-1.451 2.817-1.706 2.631-.845 3.447-2.218 2.063-3.47-.374-.338-1.053-.615-1.51-.615-2.084 0-3.847-1.673-5.048-4.791-.52-1.35-1.07-2.65-1.223-2.889-.447-.7-2.066-.947-2.737-.418zm-196.57 7.262l-.102 5.852-23.827.095-23.826.096-.225-.839c-.293-1.095-.301-9.707-.009-10.468.203-.528 2.678-.588 24.159-.588h23.934l-.103 5.852zm-41.678-.908c-.955.698-.644 2.205.522 2.528.511.141 9.144.273 19.185.293 17.221.035 18.305-.001 19.103-.647 1.024-.83.781-1.771-.592-2.293-.585-.223-8.147-.366-19.259-.366-14.468 0-18.434.101-18.959.485zm240.829 1.973l1.497 1.901-1.493 1.815c-.821.998-1.63 1.866-1.799 1.928-.293.11-3.335-4.081-3.335-4.595 0-.35 3.107-3.119 3.396-3.027.131.042.912.933 1.734 1.978zm364.634 8.924c1.034.149 1.443.409 1.582 1.004.103.442.228 91.125.277 201.518l.091 200.714-1.858.221c-1.022.122-4.449.17-7.616.108l-5.759-.113.186-58.519.08-201.826-.105-143.307 2.335-.145c2.579-.162 8.614.032 10.787.345zm-559.552.682c.32.702.307 1.052-.055 1.488-.42.506-3.757.56-29.313.476l-28.839-.095-.122-.863c-.289-2.041-2.055-1.924 29.098-1.924h28.813l.418.918zm617.695-.547l8.267.001v201.339l-.588 201.565c-1.033.397-60.269.26-60.405-.139-.068-.201-.018-2.835.112-5.852s.255-93.466.279-200.996l.693-195.921c.467-.297 6.664-.354 22.013-.205l29.629.208zm30.282 201.566l.091 201.379-4.229.297c-2.326.164-6.422.164-9.102 0l-4.874-.297.133-201.193.557-201.471c.234-.152 4.229-.236 8.879-.186l8.455.091.09 201.38zM113.806 540.894l22.265.246-.13 1.362-.13 1.361-5.819-.118-35.297-.249c-31.294-.14-30.13-.07-30.146-1.799-.003-.342.287-.699.645-.793 1.039-.271 24.485-.276 48.612-.01zm16.554 6.671c2.328.199 2.478.268 2.607 1.198.075.544.024 15.451-.113 33.127l-.286 100.783-.035 68.643h-1.659-1.66l-.105-96.695-.865-97.988c-.619-1.053-1.067-1.349-2.415-1.593-2.571-.466-9.419-.18-10.145.423-.567.472-.613 7.86-.613 98.182v97.671h-1.61-1.611l-.247-59.695-.274-95.395-.308-37.669c-.481-3.38-.935-3.604-7.32-3.604-4.921 0-5.453.065-5.934.721-.455.622-.529 26.146-.534 184.66l-.213 184.713c-.138.514.121 1.167.767 1.934.841 1.001 1.103 1.111 1.909.805.514-.196 1.843-.355 2.953-.355h2.019v3.842 3.844l-13.839.212c-7.612.117-14.299.124-14.861.015l-1.022-.198V741.01 546.874l26.472.24 28.942.451zm588.735 3.456c-10.922.189-12.604.295-13.135.825-.914.916-.37 2.111 1.069 2.349.652.108 10.396.239 21.653.291 21.984.103 21.702.126 21.702-1.762 0-1.739-.62-1.856-9.996-1.888-4.821-.017-14.403.066-21.293.185zm308.745.867c-.32.255-.7.966-.84 1.579-.48 2.084-1.7 3.508-4.32 5.034-2.37 1.385-2.57 1.597-2.57 2.749 0 1.088.22 1.376 1.68 2.234 1.98 1.156 3.21 2.912 4.12 5.865 1.4 4.56 3.47 4.708 5.13.368 1.16-3.026 2.39-4.331 5.53-5.847 2.04-.985 2.3-1.239 2.3-2.189 0-1.203-.48-1.572-2.49-1.892-1.91-.305-3.38-1.914-4.56-5.021-1.2-3.142-2.48-4.069-3.98-2.88zm-947.323 3.549l-.927.751-.094 185.184-.094 185.184.895.841c.728.684 1.035.765 1.648.437.415-.222 2.173-.403 3.908-.403 2.856 0 3.262.091 4.303.967 1.447 1.218 2.708.993 3.368-.6.374-.903.431-37.842.286-185.129l-.821-185.551c-.352-.853-.919-1.672-1.261-1.821s-2.795-.348-5.453-.441c-4.437-.156-4.907-.108-5.759.581zm122.896.84c-.352.205-.818 1.038-1.037 1.851-.501 1.86-2.26 3.887-4.233 4.878-3.553 1.786-3.733 2.954-.79 5.129 2.306 1.703 2.616 2.159 3.91 5.756.677 1.881 1.206 2.743 1.933 3.149.933.521 1.063.501 1.896-.281.491-.462 1.099-1.545 1.35-2.406.817-2.799 2.126-4.263 5.082-5.685 2.922-1.405 3.611-2.335 2.578-3.477-.334-.368-1.31-.764-2.17-.879-2.026-.272-3.615-1.967-4.742-5.059-1.069-2.933-2.252-3.865-3.777-2.976zm828.567 5.893c0 .118-.76 1.05-1.69 2.072-1.52 1.69-1.71 1.795-2.06 1.165-.22-.38-.71-1.007-1.1-1.393s-.61-.701-.49-.701-.14-.448-.57-.996l-.78-.996 1.74-1.765 1.74-1.766 1.61 2.083c.89 1.146 1.61 2.18 1.6 2.297zm-942.05-3.533c.111.289.051 77.994-.133 172.677l-.348 182.228-.013 10.076-1.753.198c-.964.109-2.302.109-2.972 0l-1.219-.198V741.081l.464-182.724c.256-.103 1.659-.2 3.118-.216 1.966-.022 2.706.107 2.856.496zm17.712 96.288v96.813l-1.264 1.192c-.745.702-1.437 1.837-1.687 2.765-.313 1.161-.395 23.407-.316 85.01l.109 83.437-1.069-.213c-.587-.118-1.381-.214-1.764-.214-.681 0-.697-4.305-.697-182.589l.65-182.759c.358-.093 1.862-.189 3.344-.213l2.694-.043v96.814zm17.833-25.352l-.247 96.603-.246 25.14h-3.098-3.097v-96.389l.651-96.56c.357-.093 1.862-.189 3.343-.213l2.694-.043v71.462zm80.405-65.086c1.622 2.103 1.623 2.093-.659 4.817l-1.128 1.347-1.764-2.462-1.764-2.461 1.744-1.571c.959-.865 1.828-1.568 1.93-1.564s.84.857 1.641 1.894zm185.889 46.849l.094 46.35-10.311.008c-9.475.007-14.666.323-15.274.929-.131.131-.239 2.458-.239 5.17v4.932l-25.234.273-26.1.602c-.585.222-.865.628-.865 1.249 0 1.461 1.714 1.695 12.446 1.698l28.329.248 18.669.246v6.627 6.628l-4.366.043-54.428.85c-.931.43-.819 1.957.185 2.53.657.375 7.054.504 29.723.6l28.886.123v6.806 6.807l-28.886.138c-30.319.145-30.558.159-30.558 1.762 0 1.719-.418 1.69 28.943 1.94l29.144.278 1.431.044-.13 6.471c-.071 3.56-.215 6.556-.318 6.66s-12.977.31-28.608.459l-29.348.52c-.718.192-.929.49-.929 1.319s.213 1.13.929 1.33c.511.142 5.359.275 10.774.295l28.515.284 18.669.246v6.627c0 6.613-.001 6.627-.836 6.668-.459.023-13.474.149-28.922.279-29.757.252-29.314.222-29.314 1.942 0 1.623.18 1.634 30.372 1.753l28.7.114v6.792 6.792l-28.559.237-29.536.61c-1.151.437-1.357 1.993-.327 2.466.621.286 28.023.767 48.67.855l9.752.041v6.688 6.688l-5.48.044-52.942.847c-1.048.488-.82 2.031.371 2.511.702.282 9.962.469 29.537.597l28.514.186v6.798 6.798l-28.7.119c-30.189.126-30.372.136-30.372 1.759 0 1.723-.509 1.691 30.243 1.937l29.108.278c.051.026.093 3.036.093 6.69v6.643l-28.515.261-29.629.531c-.832.201-1.143.512-1.228 1.226-.188 1.588 1.169 1.787 12.15 1.787l28.553.247 18.669.246v6.627 6.627l-2.322.042-29.072.299-27.4.555c-.931.427-.819 1.955.185 2.528.657.375 7.044.503 29.723.593l28.886.116v6.794 6.795l-28.927.201-29.722.627c-.949.507-1.034 1.597-.181 2.305.612.508.887.513 54.279 1.023l4.551.044v6.627 6.628l-14.551.246-28.329.248c-15.006.003-16.564.162-16.564 1.697 0 .646.283 1.028.952 1.283.532.202 5.271.362 10.714.362l28.769.246 19.009.247v1.797 1.797H339.66h-33.624V717.504 564.796l42.819.095 42.819.094.094 46.351zm204.361 13.84l-.136 74.774-.252 14.583h-3.672-3.671v-70.966l-.744-71.708c-.927-.928-1.537-.936-2.646-.038l-.871.705-.142 71.004-.142 71.003h-4.362-4.363l-.183-71.029-.183-71.028-.84-.681c-1.078-.872-1.694-.858-2.615.064-.738.737-.743 1.238-.743 71.708v70.966h-3.319c-3.314 0-5.147.397-5.677 1.231-.155.243-.283-31.869-.286-71.361l-.749-72.544c-.928-.929-1.537-.937-2.652-.033l-.878.71-.103 138.899 1 220.602c.827.996 2.326.617 2.786-.705.266-.762.423-33.34.496-102.866l.665-101.289c.39.324 1.269.389 2.942.217 1.312-.134 3.065-.136 3.893-.003l1.508.241.094 104.729.094 104.73h-25.49l-27.214.236-1.724.236.079-29.31.079-29.31.209 25.823.544 26.566c.408.906.929 1.287 1.769 1.295 1.553.013 1.583-.459 1.798-28.418.166-21.513.309-27.061.727-28.331.448-1.358.447-1.8-.007-3.158s-.53-22.817-.541-150.881l-.013-149.303-.877-.71c-1.116-.904-1.724-.896-2.653.033-.74.74-.743 1.238-.743 149.548v148.805h-2.972-2.972V717.504 564.796l42.818.095 42.819.094.115 60.191zm-145.201-54.241c-.257.309-.696 2.659-.977 5.222-.681 6.215-1.847 8.593-5.556 11.333-2.519 1.861-2.617 2.759-.545 5.007 2.536 2.751 4.048 6.585 5.236 13.27.499 2.814 1.478 4.361 2.756 4.361 1.233 0 1.503-.479 2.832-5.022 1.749-5.978 2.91-8.06 6.361-11.404 3.672-3.558 3.694-3.984.3-5.89-3.43-1.927-4.153-3.145-5.944-10.009-.826-3.167-1.662-6.135-1.858-6.595-.416-.977-1.892-1.132-2.605-.273zm79.838.885l-.87.705-.115 137.604.998 221.908c.826.995 2.325.616 2.789-.705.271-.774.423-55.856.493-179.919l-.645-179.55c-.932-.932-1.54-.941-2.65-.043zm13.416.042c-.746.746-.746.902-.644 179.737l.419 179.83c.175.462.741.946 1.26 1.076 1.245.313 1.837-.522 2.11-2.98.117-1.05.252-81.802.301-179.449l.087-177.54-.877-.71c-1.116-.904-1.724-.896-2.656.036zm173.586 2.57c-9.767.179-11.68.302-11.976.771-.556.88-.427 1.427.473 2.008 1.22.789 42.562 1.043 43.501.268.792-.654.794-2.039.004-2.696-.708-.587-12.263-.715-32.002-.351zm163.803 4.971c-1.635.575-2.122 1.796-1.09 2.731.69.625 1.65.695 10.843.792 15.032.157 42.15-.482 43.616-1.029 5.318-1.985-7.332-2.994-37.06-2.956-10.66.013-15.415.148-16.309.462zM328.7 581.125c-7.663.114-14.141.343-14.397.509s-.464.702-.464 1.193c0 .719.271.963 1.393 1.257.843.221 14.295.41 34.101.479 30.797.107 32.767.075 33.716-.545 1.226-.801 1.302-1.934.172-2.579-.935-.534-28.96-.696-54.521-.314zm125.254 4.517c.663 1.245 1.897 2.865 2.74 3.599l1.534 1.334-1.763 2.329a50.32 50.32 0 0 0-3.133 4.78c-.754 1.348-1.42 2.4-1.48 2.339s-1.049-2.268-2.197-4.903c-1.773-4.068-2.016-4.885-1.612-5.425.261-.35 1.386-1.915 2.501-3.477s2.066-2.841 2.114-2.841.632 1.019 1.296 2.265zm-187.337 12.074c.081.076.081 41.48 0 92.01l-.038 168.864.11 76.992-.853.175c-.47.096-12.746.254-27.281.352-19.196.129-26.541.064-26.843-.238s-.415-45.374-.415-169.506V597.274l27.586.153 27.734.289zm449.511.128c-10.212.215-10.91.329-10.637 1.745.289 1.501 1.162 1.565 22.819 1.689 22.392.128 22.074.152 22.074-1.739 0-1.795-.416-1.856-12.782-1.881-6.354-.013-16.018.07-21.474.186zm-378.326.734l-23.313.541c-.93.449-.819 1.969.185 2.543.664.38 7.732.478 34.356.478h33.52l.805-.805c.977-.977.733-1.84-.681-2.406-1.33-.532-15.574-.643-44.872-.351zm305.692 1.24c-.194.255-.545 1.14-.78 1.966-.495 1.736-1.951 3.257-4.409 4.606-.952.523-1.896 1.218-2.097 1.544-.663 1.078.031 2.507 1.608 3.312 1.736.885 3.109 2.804 3.891 5.438.664 2.236 1.833 3.847 2.791 3.847.821 0 2.157-1.592 2.467-2.939.658-2.854 3.273-5.465 6.192-6.184 1.423-.35 2.304-1.72 1.76-2.737-.225-.42-.822-.849-1.327-.954l-1.903-.397c-1.452-.305-2.888-2.055-3.855-4.701-1.098-3.003-1.321-3.266-2.776-3.266-.666 0-1.368.209-1.562.465zm-397.48.805c-.618.452-.748 1.129-.907 4.737-.103 2.316-.322 4.42-.487 4.675-.22.339-1.884.465-6.177.465-3.232 0-6.38-.101-6.996-.224l-1.119-.224-.146-3.634c-.156-3.888-.544-4.836-1.981-4.836-1.403 0-1.842.994-2.083 4.711-.124 1.914-.332 3.588-.462 3.718s-2.556.337-5.39.461c-5.147.225-6.368.556-6.368 1.724 0 1.186 1.571 1.648 5.609 1.648 2.176 0 4.465.101 5.085.225l1.128.226.226 3.768c.124 2.073.098 5.274-.06 7.113l-.285 3.344-5.256.185c-4.483.159-5.37.29-6.037.894-.926.838-.944.972-.255 1.915.468.64 1.134.742 5.914.907 2.963.102 5.513.312 5.667.467.343.343.345 13.575.003 14.652-.227.716-.582.781-5.021.919-4.958.155-5.975.465-5.975 1.821 0 1.403 1.386 1.833 5.934 1.839 2.355.003 4.513.151 4.794.33.406.256.513 1.834.519 7.619.004 4.012-.115 7.416-.263 7.565s-2.388.326-4.977.394c-4.962.13-6.007.475-6.007 1.987 0 .992 1.447 1.42 4.802 1.42 1.593 0 3.672.106 4.62.236l1.723.236-.037 6.73c-.02 3.702-.152 7.149-.294 7.66-.254.918-.311.931-5.257 1.123-2.75.108-5.293.335-5.65.505s-.65.703-.65 1.185.292 1.028.65 1.215 2.835.414 5.506.507 5.053.29 5.294.439c.474.293.642 11.377.206 13.556l-.232 1.162h-4.795c-5.538 0-7.373.489-7.373 1.965 0 1.241 1.918 1.75 6.592 1.75 2.045 0 4.25.106 4.9.236l1.181.237-.113 7.722c-.062 4.246-.252 7.86-.422 8.03s-2.611.393-5.424.495c-5.279.191-6.342.501-6.342 1.845 0 .352.345.953.767 1.335.641.579 1.638.735 6.038.942l5.363.293c.273.128.04 13.779-.238 13.951-.182.112-2.564.312-5.294.444s-5.257.391-5.614.574-.65.725-.65 1.204c0 1.599.866 1.881 6.21 2.02 4.901.128 4.987.145 5.33 1.046.384 1.011.481 11.629.123 13.423l-.226 1.129-4.841.268c-3.995.221-4.961.389-5.532.96-1.911 1.911.293 2.876 6.632 2.906 2.995.014 3.471.106 3.808.735.572 1.069.503 11.99-.08 12.743-.374.484-1.379.624-5.188.721-5.11.132-6.198.531-5.703 2.09.34 1.072 1.012 1.244 5.597 1.434 6.462.268 5.76-.644 5.753 7.473-.004 3.827-.129 7.146-.279 7.374-.157.238-2.086.521-4.545.665-5.443.318-6.232.484-6.728 1.411-.328.613-.261.903.352 1.516.656.656 1.449.797 5.889 1.048l5.224.311c.235.055.049 14.746-.192 15.106-.159.238-2.225.505-4.959.64-5.239.259-6.645.619-6.645 1.703 0 1.503.82 1.769 6.132 1.992 2.792.117 5.189.324 5.324.459.337.335.545 11.506.252 13.468l-.237 1.579-2.67.023c-4.45.039-8.072.514-8.448 1.109-.549.867-.407 1.786.337 2.184.38.203 2.511.468 4.737.59s4.6.304 5.276.407l1.23.188-.115 7.053c-.095 5.776-.216 7.116-.673 7.404-.306.193-2.48.364-4.829.378-5.115.032-6.874.501-6.874 1.831 0 1.464 1.31 1.858 6.199 1.864 2.388.003 4.783.173 5.322.378l.981.373-.121 7.399c-.066 4.07-.225 7.504-.353 7.632s-2.302.328-4.83.445c-4.846.225-6.269.673-6.269 1.971 0 1.396 1.378 1.871 5.424 1.871 2.074 0 4.294.104 4.932.232l1.161.232-.005 6.549c-.004 3.602-.151 6.778-.329 7.059-.234.369-1.722.584-5.361.773-5.188.271-6.193.581-6.193 1.911 0 1.306 1.852 1.821 6.576 1.827 2.411.003 4.57.128 4.798.279.581.383 1 7.286.692 11.401l-.258 3.444-5.045.262c-2.774.144-5.347.424-5.718.622s-.674.752-.674 1.231c0 1.571.891 1.882 5.723 1.996 6.476.153 6.023-.091 6.26 3.37.224 3.276.705 4.512 1.755 4.512 1.216 0 1.866-1.428 1.866-4.098 0-3.851-.248-3.738 7.989-3.62l7.058.102.28 3.092c.344 3.794.722 4.609 2.067 4.454 1.281-.148 1.876-1.78 1.905-5.224l.021-2.508 5.294-.006c5.778-.006 7.065-.331 7.28-1.84.221-1.552-.75-1.87-5.726-1.87-2.489 0-5.049-.104-5.687-.232l-1.161-.232v-6.409c0-3.525.104-6.932.232-7.571l.232-1.161h6.281c7.12 0 9.009-.417 8.793-1.943-.187-1.314-2.069-1.728-7.968-1.751-2.887-.012-5.771-.126-6.409-.253l-1.161-.233.044-5.991c.024-3.295.15-6.493.281-7.106l.238-1.114 6.164-.186c7.239-.218 8.407-.696 6.864-2.809-.474-.649-1.14-.739-6.657-.907-3.372-.102-6.27-.325-6.44-.495-.514-.516-.324-14.685.203-15.214.296-.296 2.409-.526 6.101-.663 3.106-.116 5.941-.342 6.298-.504.933-.423.82-1.953-.186-2.505-.501-.275-2.769-.508-5.666-.582-2.656-.068-5.38-.211-6.053-.318l-1.224-.194.134-6.965c.074-3.831.259-7.166.41-7.411.189-.305 1.703-.452 4.805-.467 2.491-.011 5.114-.22 5.83-.464 1.098-.375 1.3-.616 1.3-1.558s-.202-1.184-1.3-1.558c-.716-.244-3.354-.453-5.864-.465-3.984-.018-4.596-.103-4.829-.671-.347-.843-.344-13.453.002-14.305.235-.576.867-.65 5.592-.65 5.829 0 6.754-.266 6.527-1.878-.179-1.265-2.359-1.77-7.811-1.808l-4.338-.029-.228-1.951c-.299-2.566-.068-12.966.301-13.561.207-.333 1.675-.466 5.189-.47 5.211-.006 6.684-.366 6.854-1.676.215-1.662-.316-1.838-6.189-2.043-3.06-.106-5.699-.329-5.865-.495-.374-.374-.389-12.689-.018-14.046l.271-.988 5.704-.127c6.085-.135 6.931-.377 6.931-1.984 0-1.275-1.424-1.615-7.314-1.751-2.899-.067-5.384-.234-5.521-.372-.477-.476-.287-12.521.207-13.116.368-.444 1.56-.552 6.089-.552 6.13 0 7.282-.319 7.282-2.019 0-1.642-.812-1.869-7.394-2.068l-6.167-.186-.101-6.975c-.064-4.389.044-7.248.292-7.71.366-.684.798-.734 6.427-.734 4.86 0 6.195-.112 6.86-.578.986-.691 1.087-2.192.176-2.62-.358-.169-3.457-.396-6.888-.505-4.985-.158-6.308-.31-6.589-.755-.386-.613-.498-11.121-.137-12.925l.226-1.129 5.662-.125c6.182-.138 7.019-.399 6.816-2.129-.181-1.542-1.431-1.887-6.862-1.893-2.691-.003-5.157-.107-5.48-.231-.51-.195-.588-1.246-.588-7.914 0-5.484.128-7.816.446-8.134.307-.307 2.19-.448 6.037-.452 6.185-.005 7.449-.32 7.449-1.852 0-1.543-1.253-1.846-7.669-1.852-4.954-.005-5.845-.092-6.037-.593-.124-.323-.226-3.645-.226-7.382v-6.795l1.393-.23c.767-.127 3.453-.233 5.969-.235 4.786-.004 6.013-.305 6.013-1.477 0-1.636-.835-1.871-6.643-1.871-3.981 0-5.66-.135-6.154-.496-.615-.45-.679-1.156-.686-7.62-.005-3.919.115-7.248.266-7.399s2.894-.332 6.096-.402c3.25-.071 6.026-.296 6.285-.51.59-.487.601-1.866.019-2.447-.304-.304-2.107-.448-5.666-.452-2.871-.002-5.599-.106-6.063-.23l-.844-.227.101-7.664.1-7.664 6.423-.186c6.797-.196 7.267-.332 7.047-2.034-.175-1.352-1.617-1.67-7.597-1.676-3.91-.004-5.726-.139-5.913-.441-.148-.24-.265-3.685-.261-7.655.007-5.76.113-7.285.526-7.547.285-.18 3.109-.347 6.277-.37 6.789-.051 7.574-.203 7.728-1.502.209-1.77-.575-1.986-7.747-2.125l-6.594-.128-.263-3.676c-.144-2.022-.143-5.194.004-7.049.247-3.125.334-3.399 1.179-3.72.501-.19 3.488-.346 6.637-.346h5.726l.623-.952c.584-.89.583-.991-.004-1.579-.525-.525-1.682-.658-7.085-.813-3.553-.103-6.598-.325-6.768-.496s-.393-2.232-.495-4.582c-.16-3.673-.287-4.347-.907-4.799-.907-.662-1.367-.662-2.272 0zm400.374 7.09l1.543 2.043-1.067 1.35c-2.44 3.093-1.999 3.066-3.963.245l-1.757-2.523 1.76-1.579c.968-.869 1.8-1.58 1.851-1.58s.785.92 1.633 2.044zm-401.63 6.9c.454.717.441 11.941-.014 13.139l-.363.953h-6.48c-3.565 0-6.745-.101-7.068-.225-.507-.194-.588-1.17-.588-7.052 0-6.778.006-6.828.836-7.011 1.961-.432 3.342-.502 8.203-.421 3.979.067 5.214.206 5.474.617zm75.768 1.806c-3.167.116-5.967.346-6.223.512s-.464.604-.464.976c0 1.717-.637 1.679 32.658 1.971l34.022-.074c2.538-.342 3.538-.94 3.538-2.117 0-1.386-.844-1.428-29.722-1.454-15.428-.013-30.642.07-33.809.186zm393.819 4.831c-4.393.116-8.196.346-8.452.511s-.464.604-.464.976c0 1.659.21 1.68 20.212 1.986 23.519.36 24.743.274 24.743-1.744 0-1.857-.241-1.888-14.639-1.915-7.377-.014-17.006.07-21.4.186zm-469.734 11.666c.404.405.403 14.581 0 14.986-.38.38-13.454.417-13.832.039-.389-.389-.681-10.571-.374-13.031.257-2.058.271-2.077 1.629-2.236 2.343-.275 12.252-.084 12.577.242zm88.918.961l-19.226.517c-.813.526-.553 2.099.407 2.464.479.182 15.926.387 34.325.455 32.469.12 33.477.103 34.238-.584 1.013-.914.995-1.763-.052-2.445-.976-.637-17.712-.774-49.692-.407zm550.79 5.596c-2.272.317-3.033.635-3.321 1.384-.341.889.394 1.485 2.504 2.028 1.575.405 10.869.479 50.231.4l49.884-.302c1.143-.149 1.756-.465 2.194-1.134.547-.836.551-.983.034-1.501-.335-.334-1.713-.705-3.308-.89-3.244-.376-95.521-.362-98.218.015zm-172.017 5.191c-3.269.112-6.153.339-6.409.504s-.464.605-.464.977c0 1.664.177 1.681 20.583 1.96 23.716.324 24.372.272 24.372-1.932 0-.937-.19-1.137-1.394-1.471-1.444-.402-25.371-.426-36.688-.038zm-371.378 6.692c-27.388.212-27.085.19-27.085 1.904 0 1.635-.032 1.634 33.994 1.755l33.922-.118c1.214-.178 1.699-.455 2.016-1.151.709-1.555-.207-2.033-4.593-2.396-2.118-.176-5.774-.291-8.124-.256l-30.13.262zm-96.519 1.365c.712.858.741 13.991.032 14.699-.553.554-13.155.715-13.697.175-.37-.368-.644-12.156-.323-13.869.272-1.448.384-1.47 8.049-1.554 4.625-.05 5.509.031 5.939.549zm216.837 8.697l1.208-.016v2.555c0 1.708-.169 2.695-.508 2.977-.374.31-12.572.395-46.269.324l-46.113-.655c-.606-.959-.446-4.747.217-5.118.326-.182 20.215-.265 45.419-.187l46.046.12zm249.202 6.647c-4.354.224-5.015.42-5.015 1.487 0 1.673.122 1.684 21.123 1.904l21.53-.04c1.809-.274 2.356-.821 2.212-2.21-.072-.697-.373-.986-1.211-1.164-1.358-.288-32.94-.269-38.639.023zm-465.921 4.127c.404.4.474 12.792.079 13.977-.241.72-.632.83-3.827 1.069-3.355.252-9.738-.027-10.154-.443-.323-.322-.21-14.164.118-14.493.799-.806 12.984-.903 13.784-.11zm210.548-.294c.504.414.547 11.147.399 99.389l-.165 98.925h-3.64-3.641l-.125-6.118c-.108-5.273-.216-6.21-.788-6.781-.588-.587-1.43-.662-7.368-.662-6.208 0-6.743.053-7.231.721-.405.553-.528 2.134-.528 6.78v6.06h-4.043-4.043l-.148-6.129c-.126-5.22-.245-6.225-.8-6.78-.573-.574-1.457-.652-7.313-.652-5.865 0-6.739.078-7.315.654s-.65 1.398-.621 6.781l.034 6.126h-3.982-3.982l-.204-6.173c-.166-5.03-.316-6.286-.811-6.781-.517-.517-1.599-.607-7.268-.607-5.898 0-6.737.076-7.324.663s-.664 1.403-.664 6.78v6.118h-3.065-3.065v-99.141l.248-99.39c.136-.136 17.491-.247 38.567-.247l38.886.464zm373.473 1.44c.128.638.232 7.661.232 15.605v14.444l.836.055c.46.031 5.016.072 10.124.093 6.939.028 9.505.161 10.146.526l.857.489-.253 115.435-.597 115.805c-.518.56-49.45 1.323-49.993.781-.36-.36-.604-232.744-.265-250.926l.252-13.468h14.215 14.214l.232 1.161zm-643.099 1.293c.532.204.588 4.885.588 49.2l.242 49.605c.133.347 1.094 1.028 2.136 1.513 1.546.72 2.511.884 5.238.891 1.839.005 3.7.104 4.135.221l.791.212-.146 79.548-.357 79.758c-.116.116-6.046.259-13.177.318l-12.965.107-.104-89.65c-.112-97.962-.006-93.377-2.177-94.499-.573-.296-1.384-.539-1.802-.539-.761 0-.762-.036-.851-29.723l-.093-38.177-.004-8.453 5.016-.202c8.063-.325 12.9-.371 13.53-.13zm311.185 97.864v97.717h-18.112-18.112l-.034-82.48-.035-82.48 1.951.229a20.27 20.27 0 0 0 4.028-.03l2.078-.26v-14.959c0-8.228.112-15.071.248-15.207s6.489-.247 14.118-.247h13.87v97.717zm-112.346-84.144c-.872.873-1.065 2.668-.913 8.525.117 4.53.243 5.483.797 6.038.575.576 1.556.673 7.869.773l7.211.115.26-1.386c.143-.762.168-4.044.055-7.293-.17-4.908-.315-6.028-.854-6.624-.595-.657-1.201-.717-7.252-.717-5.436 0-6.704.1-7.173.569zm24.18-.031c-.722.723-1.056 5.673-.714 10.599.349 5.021-.008 4.827 8.865 4.834 6.675.005 6.74-.002 6.962-.831.348-1.301.256-11.44-.12-13.058-.185-.796-.556-1.588-.827-1.759s-3.447-.314-7.059-.318c-5.246-.004-6.677.103-7.107.533zm24.135.141c-.524.58-.615 1.667-.615 7.386 0 5.779.085 6.776.614 7.216.461.383 2.382.538 7.753.624l7.139.114.23-.857c.39-1.455.264-12.449-.155-13.552-.217-.571-.593-1.164-.836-1.318s-3.383-.283-6.978-.287c-5.865-.005-6.6.065-7.152.674zm-35.543 6.287c-.008 7.04.526 6.448-5.707 6.327l-5.248-.103-.103-5.481-.103-5.48h5.583 5.583l-.005 4.737zm24.148.372c-.003 2.81-.141 5.323-.307 5.584-.227.357-1.585.449-5.474.371l-5.173-.103-.103-5.481-.102-5.48h5.582 5.583l-.006 5.109zm24.072.371l-.102 5.481h-5.388-5.387l-.103-5.481-.102-5.48h5.592 5.593l-.103 5.48zm-200.988-3.919c.314.313.446 2.442.446 7.201 0 6.693-.007 6.758-.836 6.98-1.081.29-10.528.219-11.981-.091-1.108-.235-1.116-.256-1.352-3.392-.13-1.736-.147-4.862-.038-6.948.161-3.051.316-3.823.795-3.951.327-.087 3.278-.178 6.558-.202 4.193-.031 6.095.089 6.408.403zm464.337-.102c-1.876.156-2.672.387-2.97.863-.653 1.04.177 1.908 2.139 2.237.952.159 10.763.244 21.802.188 21.8-.112 20.92-.021 20.698-2.131-.065-.616-.399-.998-1.025-1.171-1.106-.305-36.954-.293-40.644.014zm-407.263 9.17c.533.205.588 8.031.588 84.899v84.673h-2.577c-4.548 0-5.766 1.078-5.777 5.113-.007 2.834.394 3.267 3.38 3.64l2.001.25v28.752 28.752h-8.148c-7.446 0-8.164-.056-8.325-.65-.097-.358-.067-40.359.068-88.893l.244-88.243 2.601.11c1.43.06 4.294.004 6.364-.126 3.595-.225 3.786-.279 4.272-1.224.415-.806.53-6.158.618-28.924.1-25.98.152-27.946.743-28.102.991-.26 3.298-.276 3.948-.027zm-56.713 17.296l.099 8.047-3.239.27c-3.843.32-10.087.01-10.625-.528-.234-.234-.383-3.265-.389-7.861-.007-6.072.091-7.543.521-7.82.291-.186 3.455-.298 7.031-.247l6.502.092.1 8.047zm142.645-6.055c-1.965.161-3.007.416-3.246.794-.66 1.047-.816 2.972-.677 8.352.117 4.53.243 5.483.797 6.037.575.577 1.556.674 7.869.774l7.211.115.26-1.386c.3-1.598-.03-12.648-.406-13.599-.139-.349-.53-.716-.868-.815-1.165-.338-8.051-.51-10.94-.272zm24.149 0c-1.85.151-3.008.423-3.211.752-.52.844-.771 6.271-.482 10.436.35 5.023-.012 4.827 8.892 4.834l6.763.006.242-1.289c.309-1.645.01-12.809-.365-13.652-.156-.349-.56-.716-.899-.815-1.165-.338-8.051-.51-10.94-.272zm24.451-.063c-3.984.234-3.91.08-3.91 8.115 0 5.839.085 6.841.614 7.28.461.384 2.382.538 7.753.625l7.139.114.23-.858c.393-1.467.263-12.385-.163-13.605-.221-.635-.681-1.236-1.021-1.334-.989-.288-7.81-.504-10.642-.337zm-38.838 7.081c-.008 7.04.526 6.448-5.707 6.326l-5.248-.103-.103-5.48-.103-5.48h5.583 5.583l-.005 4.737zm24.148.371c-.003 2.81-.141 5.323-.307 5.584-.227.358-1.585.45-5.474.372l-5.173-.104-.103-5.48-.102-5.48h5.582 5.583l-.006 5.108zm24.072.372l-.102 5.48h-5.388-5.387l-.103-5.48-.102-5.48h5.592 5.593l-.103 5.48zm279.436-5.125c-18.998.212-19.283.24-19.283 1.874 0 1.672-.005 1.672 22.733 1.672 23.296 0 22.202.096 22.216-1.96.012-1.747-1.716-1.854-25.666-1.586zm-89.255 4.103h25.388v2.415c0 2.257-.055 2.415-.835 2.417l-47.928.093-47.091.091v-2.482c0-2.27.072-2.498.836-2.673.46-.105 10.603-.117 22.539-.026l47.091.165zm19.432 9.274c.479.303.532 13.163.435 104.121l-.472 104.147c-.538.556-79.927.968-80.288.416-.341-.519-.377-208.452-.037-208.793.393-.393 79.739-.285 80.362.109zm-411.316 2.848l1.161.232v7.021 7.021l-6.966-.101-6.966-.101-.264-2.6c-.146-1.431-.167-4.557-.047-6.947l.219-4.346 1.16-.146c2.002-.252 10.487-.276 11.703-.033zm644.709 4.543c-1.706.176-2.497.441-2.879.963-.687.94-.665 1.182.178 2.026.562.561 1.514.76 4.685.976 5.712.389 93.835-.085 99.324-.535 5.137-.42 6.002-.61 6.002-1.311 0-1.081-1.219-1.404-6.585-1.748-6.312-.404-97.177-.739-100.725-.371zm-501.067.655c-3.851.403-4.046.858-3.848 8.993.117 4.77.237 5.718.798 6.279.579.58 1.548.676 7.872.777l7.211.114.26-1.385c.297-1.585-.029-12.645-.401-13.585-.136-.341-.526-.729-.867-.861-.768-.297-8.994-.545-11.025-.332zm23.482.085c-1.184.141-2.295.485-2.468.765-.518.838-.767 6.274-.479 10.43.35 5.023-.012 4.827 8.892 4.834l6.763.006.242-1.289c.306-1.632.012-12.806-.359-13.638a1.93 1.93 0 0 0-.899-.87c-.913-.365-9.191-.533-11.692-.238zm24.15 0c-1.265.15-2.298.483-2.503.807-.191.303-.351 3.582-.354 7.287-.005 5.811.078 6.805.608 7.245.461.384 2.382.538 7.753.624l7.139.115.23-.858c.302-1.129.307-11.764.005-13.271-.129-.646-.571-1.354-.982-1.574-.898-.481-8.877-.732-11.896-.375zM723.04 737.9c-17.265.239-17.611.277-17.611 1.931 0 1.584.643 1.634 22.419 1.752 18.392.101 20.849.047 21.641-.473 1.25-.818 1.204-2.327-.085-2.817-1.442-.548-8.02-.646-26.364-.393zm-325.984 5.15c-.008 7.04.526 6.448-5.707 6.326l-5.248-.103-.103-5.48-.103-5.481h5.583 5.583l-.005 4.738zm24.148.371c-.003 2.81-.141 5.323-.307 5.584-.227.358-1.585.45-5.474.372l-5.173-.104-.103-5.48-.102-5.481h5.582 5.583l-.006 5.109zm24.072.372l-.102 5.48h-5.388-5.387l-.103-5.48-.102-5.481h5.592 5.593l-.103 5.481zm138.812-3.665c-3.308.332-4.321 1.443-2.749 3.014.731.732 1.238.744 33.225.744 35.453 0 33.65.11 33.65-2.057 0-1.871.491-1.842-31.766-1.886-16.552-.023-31.113.061-32.36.185zm-339.587 10.724c.26 2.204.376 6.352.295 10.589l-.062 3.251h-6.856-6.856l-.188-1.207c-.865-5.555-.586-13.868.475-14.15.334-.089 3.392-.181 6.796-.205l6.188-.043.208 1.765zm-76.863 22.293l-.434 18.392c-.089.153-13.341.278-29.448.278-27.592 0-29.294-.037-29.422-.65-.075-.358-.088-8.634-.029-18.392l.106-17.741h29.749 29.748l-.27 18.113zm424.624-14.79c-8.063.159-10.579.323-11.053.716-.814.677-.774 1.374.13 2.277.731.732 1.238.743 33.09.743l33.066-.384c1.033-.553.961-2.423-.117-3.039-.654-.374-5.612-.482-22.757-.499-12.056-.011-26.617.072-32.359.186zm-206.225 1.758c-2.46.255-2.537.497-2.537 7.968 0 5.854.076 6.694.663 7.28.581.582 1.547.678 7.868.785l7.205.12.266-1.775c.295-1.964-.015-12.224-.399-13.207-.133-.342-.522-.744-.863-.894-.71-.311-9.867-.519-12.203-.277zm24.127.078c-.865.152-1.69.394-1.834.538-1.02 1.021-.868 13.965.174 14.832.391.325 2.699.5 7.725.585l7.166.12.247-1.316c.31-1.653.021-12.827-.354-13.666a2.04 2.04 0 0 0-.899-.894c-.868-.38-10.316-.534-12.225-.199zm24.111.003c-.886.156-1.761.522-1.945.812s-.337 3.559-.34 7.264c-.005 5.811.078 6.804.608 7.245.461.383 2.395.54 7.78.631l7.166.12.241-1.282c.132-.706.184-4.056.115-7.447-.107-5.231-.223-6.26-.767-6.804-.536-.536-1.501-.655-5.944-.731-2.917-.05-6.028.036-6.914.192zm287.65 1.115c-16.076.237-16.496.286-16.496 1.929 0 1.584.645 1.635 22.291 1.743 22.347.11 22.365.109 22.593-1.852.083-.708-.114-1.11-.694-1.421-1.065-.57-8.697-.68-27.694-.399zM397.056 767.2c-.008 7.04.526 6.448-5.707 6.327l-5.248-.103-.103-5.481-.103-5.48h5.583 5.583l-.005 4.737zm24.148.372c-.003 2.81-.141 5.323-.307 5.584-.227.357-1.585.449-5.474.371l-5.173-.103-.103-5.481-.102-5.48h5.582 5.583l-.006 5.109zm24.072.371l-.102 5.481h-5.388-5.387l-.103-5.481-.102-5.48h5.592 5.593l-.103 5.48zm-200.65 1.348c.355.355.216 12.533-.147 12.897-.209.209-3.113.314-7.017.255l-6.66-.102v-6.502-6.502l1.3-.257c1.427-.281 12.214-.1 12.524.211zm336.713 8.034c-.91.909-.922 1.188-.093 2.188l.65.785 32.581.062c34.857.067 33.737.125 33.737-1.754 0-2.129 1.745-2.024-33.65-2.024-31.987 0-32.494.011-33.225.743zm-195.675 6.955c-2.051.256-2.164.673-2.164 7.951 0 5.855.076 6.694.663 7.281.581.582 1.547.678 7.868.784l7.205.121.266-1.776c.356-2.373-.053-12.522-.541-13.434-.214-.399-.916-.83-1.562-.959-1.23-.246-9.701-.223-11.735.032zm24.122-.014c-1.937.265-2.122 1.006-2.061 8.252.046 5.389.155 6.56.652 7.059s1.786.618 7.808.719l7.21.121.251-1.339c.138-.737.185-4.093.104-7.457-.126-5.208-.245-6.215-.799-6.77-.559-.56-1.452-.66-6.305-.702-3.109-.027-6.196.026-6.86.117zm24.101.103c-.691.172-1.398.538-1.573.814s-.321 3.532-.324 7.237c-.005 5.812.078 6.805.608 7.245.461.383 2.395.54 7.78.631l7.166.121.241-1.283c.132-.705.184-4.056.115-7.446-.108-5.314-.217-6.256-.789-6.827s-1.446-.672-6.316-.733c-3.109-.039-6.218.069-6.908.241zm287.11.351c-14.749.228-15.568.319-15.568 1.727 0 1.537.158 1.55 21.85 1.838 22.737.302 22.798.297 23.034-1.742.084-.728-.114-1.117-.743-1.455-1.063-.57-8.933-.672-28.573-.368zm-476.344 2.544c.48 1.169.317 13.753-.185 14.255-.647.647-12.502.615-13.287-.037-.47-.39-.565-1.678-.565-7.669v-7.199h6.885c6.208 0 6.911.064 7.152.65zm152.403 4.087c-.008 7.04.526 6.448-5.707 6.326l-5.248-.103-.103-5.48-.103-5.48h5.583 5.583l-.005 4.737zm24.148.371c-.003 2.81-.141 5.323-.307 5.584-.227.358-1.585.45-5.474.372l-5.173-.104-.103-5.48-.102-5.48h5.582 5.583l-.006 5.108zm24.072.372l-.102 5.48h-5.388-5.387l-.103-5.48-.102-5.48h5.592 5.593l-.103 5.48zm136.56 3.062c-1.225.498-1.473 1.793-.526 2.741l.792.792h32.441c34.753 0 33.678.058 33.665-1.81-.015-2.016 1.94-1.9-33.14-1.978-18.019-.04-32.786.073-33.232.255zm-467.094 1.383c.19.19.404 1.863.474 3.718l.13 3.372-2.367.253c-1.301.139-2.847.148-3.435.019-.956-.21-1.096-.43-1.314-2.074-.341-2.571.091-5.47.849-5.699.949-.287 5.279.027 5.663.411zm16.305-.015c.102.1.245 1.611.319 3.357.156 3.741.099 3.81-3.198 3.818l-2.323.006.033-1.765c.018-.97.143-2.594.279-3.607.206-1.545.396-1.885 1.175-2.111.906-.262 3.344-.064 3.715.302zm8.974-.029c.173.107.314 1.78.314 3.718v3.523l-2.879-.108-2.88-.109-.106-3.598-.106-3.598 1.221-.166c1.311-.179 3.922.02 4.436.338zm9.368.243c.123.46.226 2.129.229 3.709.006 3.309-.092 3.393-3.73 3.187l-2.023-.115-.106-3.593c-.121-4.091-.274-3.907 3.313-3.981 1.874-.038 2.117.045 2.317.793zm9.754-.335c.025.031.163 1.597.305 3.48.257 3.376.248 3.426-.611 3.641-.478.12-2.037.168-3.463.107l-2.593-.112-.106-3.423-.107-3.422 1.221-.368c.942-.284 5.109-.209 5.354.097zm7.601-.129c.655 0 .713.3.713 3.715v3.716h-2.415-2.415l.044-2.508c.064-3.67.351-4.659 1.443-4.962.51-.141 1.15-.191 1.423-.109s.815.148 1.207.148zm-43.871 3.733v3.733l-2.322-.11-2.322-.111-.118-2.043c-.065-1.124-.013-2.754.116-3.623l.234-1.579h2.206 2.206v3.733zm121.78 6.577c.147.358.267 3.792.267 7.63 0 5.799-.094 7.041-.557 7.338-.317.203-3.356.317-7.044.265l-6.487-.092-.226-1.115c-.124-.613-.152-4.074-.061-7.691.141-5.669.247-6.599.768-6.738.332-.088 3.409-.18 6.838-.204 5.613-.038 6.262.022 6.502.607zm-77.915 1.592c.695.373.719.963.713 18.113-.003 9.751-.139 17.939-.302 18.196-.234.369-6.37.446-29.438.371l-29.142-.095-.096-18.485-.096-18.484h28.821l29.54.384zm553.286-.046c-11.781.192-13.531.295-14.063.828a1.4 1.4 0 0 0 .7 2.357c.446.098 10.188.224 21.649.279 22.385.107 22.074.131 22.074-1.759 0-1.684-.671-1.823-9.048-1.875-4.321-.027-13.912.05-21.312.17zm-334.732.292c-1.651.321-1.792.948-1.792 7.96 0 5.854.076 6.694.663 7.281.58.58 1.542.678 7.707.785l7.045.122.411-1.051c.528-1.347.248-13.015-.337-14.109-.229-.427-.944-.882-1.59-1.012-1.267-.253-10.779-.235-12.107.024zm24.121-.011c-1.535.323-1.746 1.359-1.688 8.258.046 5.388.155 6.56.652 7.059s1.786.618 7.808.719l7.21.121.251-1.339c.138-.737.185-4.093.104-7.458-.126-5.207-.245-6.215-.799-6.77-.562-.563-1.476-.66-6.676-.709-3.314-.032-6.401.022-6.862.119zm24.243.001c-1.531.383-1.672 1.069-1.672 8.137 0 5.827.085 6.827.614 7.267.461.383 2.395.54 7.78.631l7.166.121.241-1.283c.132-.705.184-4.056.115-7.447-.108-5.312-.217-6.255-.788-6.826-.576-.576-1.453-.671-6.688-.725-3.313-.034-6.359.022-6.768.125zm-36.6 7.09c-.008 7.04.526 6.448-5.707 6.326l-5.248-.103-.103-5.48-.103-5.481h5.583 5.583l-.005 4.738zm24.148.371c-.003 2.81-.141 5.323-.307 5.584-.227.358-1.585.45-5.474.372l-5.173-.104-.103-5.48-.102-5.481h5.582 5.583l-.006 5.109zm24.072.372l-.102 5.48h-5.388-5.387l-.103-5.48-.102-5.481h5.592 5.593l-.103 5.481zm136.877-2.987c-.471.091-1.044.576-1.274 1.08-.354.778-.293 1.04.403 1.736l.82.821h32.441c34.915 0 33.671.069 33.671-1.882 0-2.092 1.162-2.024-33.428-1.969l-32.633.214zm299.596.102c-1.275.245-2.445 1.143-2.445 1.876 0 .134.32.533.712.888 1.3 1.177 12.37 1.37 55.388.971l52.031-1.191c1.5-.523 1.3-1.487-.39-1.888-3.098-.735-101.7-1.349-105.296-.656zm-637.015 12.899c.266.249.081 14.272-.192 14.545-.336.337-10.316.551-12.237.263l-1.655-.248-.11-6.241c-.06-3.432-.025-6.725.078-7.317.181-1.04.277-1.085 2.787-1.306 2.656-.233 10.994-.009 11.329.304zm337.464 5.35c-1.558.451-1.949 1.638-.888 2.7l.792.792h32.441c35.224 0 33.841.082 33.597-2.003-.226-1.924.394-1.89-33.364-1.86l-32.578.371zm136.897-.068c-10.922.188-12.604.294-13.135.824-.914.916-.37 2.111 1.069 2.349.652.108 10.396.239 21.653.291 21.984.103 21.702.126 21.702-1.762 0-1.739-.62-1.856-9.996-1.888-4.821-.017-14.403.066-21.293.186zm-334.271 1.243c-1.33.674-1.606 2.349-1.439 8.729.125 4.761.252 5.774.795 6.317.558.559 1.6.664 7.688.774l7.042.128.414-1.057c.453-1.157.263-12.798-.229-13.996-.153-.373-.684-.833-1.18-1.022-1.382-.525-12.008-.422-13.091.127zm24.126-.003c-.794.412-.967.831-1.188 2.887-.41 3.805.07 11.786.743 12.345.39.324 2.706.501 7.723.59l7.165.127.252-1.345c.139-.74.186-4.098.105-7.463-.126-5.207-.245-6.215-.799-6.77-.56-.561-1.521-.666-6.862-.752-4.53-.074-6.462.03-7.139.381zm24.52-.221c-1.348.511-1.486 1.265-1.486 8.14 0 5.829.085 6.827.614 7.267.461.382 2.402.541 7.779.636l7.165.127.242-1.288c.133-.709.185-4.062.116-7.453-.108-5.312-.217-6.255-.788-6.826-.576-.577-1.473-.673-6.873-.739-3.416-.042-6.462.019-6.769.136zm-36.414 7.092c-.008 7.04.526 6.448-5.707 6.327l-5.248-.103-.103-5.481-.103-5.48h5.583 5.583l-.005 4.737zm24.148.372c-.003 2.81-.141 5.323-.307 5.584-.227.357-1.585.449-5.474.371l-5.173-.103-.103-5.481-.102-5.48h5.582 5.583l-.006 5.109zm24.072.371l-.102 5.481h-5.388-5.387l-.103-5.481-.102-5.48h5.592 5.593l-.103 5.48zm-200.714 5.37c.474.474.319 13.674-.166 14.16-.492.491-11.985.644-13.13.174-.586-.241-.65-.945-.65-7.164 0-6.801.012-6.903.836-7.25.941-.396 12.707-.325 13.11.08zm-131.428 3.108c.357.11.451 1.068.372 3.777l-.107 3.629-2.46.109-2.461.109-.153-1.967a31.47 31.47 0 0 1-.013-3.896c.119-1.631.264-1.95.942-2.066.811-.138 3.002.034 3.88.305zm6.804.068c.021.153.146 1.909.279 3.902l.241 3.622h-1.725c-2.003 0-2.176-.25-2.176-3.142 0-3.254.318-4.227 1.436-4.399 1.74-.268 1.907-.266 1.945.017zm7.927.142c.069.075.186 1.626.261 3.446l.134 3.31-1.041.35c-.573.193-1.618.243-2.322.111l-1.281-.241v-3.481c0-2.428.141-3.545.465-3.689.474-.212 3.557-.053 3.784.194zm6.818 3.6l.106 3.826-1.592-.115-1.593-.115-.106-3.597-.106-3.596 1.035-.16c2.161-.333 2.141-.366 2.256 3.757zm9.027-3.444c.187.115.34 1.702.34 3.525 0 3.812-.028 3.84-3.735 3.63l-2.023-.115v-3.513c0-3.426.023-3.52.928-3.79.954-.285 3.881-.114 4.49.263zm7.697-.131c.282.283.445 1.709.445 3.901v3.456h-2.366-2.366l-.222-1.367c-.292-1.8.128-5.805.646-6.152.655-.438 3.376-.324 3.863.162zm8.858.012c.156.253.352 1.903.437 3.667l.153 3.209-1.697.254c-.934.14-2.31.14-3.059 0l-1.361-.256.154-3.208c.084-1.764.281-3.413.436-3.666.173-.279 1.137-.458 2.469-.458s2.296.179 2.468.458zm7.112 3.307l.106 3.579-.974.244c-2.134.536-2.396.133-2.396-3.684 0-3.761.087-3.908 2.229-3.776.915.057.93.113 1.035 3.637zm415.121-2.649c-2.408.568-2.574 2.452-.292 3.319 1.621.617 63.668.534 64.893-.085.674-.341.929-.771.929-1.563 0-2.091.921-2.036-33.066-2l-32.464.329zm135.084 5.173c-9.602.179-11.494.303-11.79.771-.556.881-.427 1.427.473 2.009 1.22.788 42.562 1.043 43.501.268.792-.654.794-2.04.004-2.696-.707-.587-12.639-.718-32.188-.352zm-320.521 8.914c0 2.64-.102 5.064-.226 5.388-.191.498-1.039.587-5.573.587h-5.347v-5.387-5.387h5.573 5.573v4.799zm24.066.495l-.103 5.295-5.48.103-5.48.102v-5.397-5.397h5.583 5.584l-.104 5.294zm24.232.093v5.387h-5.573-5.572v-5.387-5.387h5.572 5.573v5.387zm-278.363-3.808c.367.294.447 3.898.371 16.582l-.096 16.207-3.901.233c-5.092.304-53.634.392-54.399.099-.523-.201-.587-2.036-.587-16.879 0-15.559.042-16.661.65-16.791 1.574-.336 57.52.194 57.962.549zm77.907 8.418c.145 2.434.146 5.929.003 7.767l-.262 3.342-3.268.259c-1.797.142-4.871.138-6.832-.009-3.233-.242-3.579-.341-3.724-1.059-.407-2.015-.588-7.611-.355-10.993l.258-3.731h6.958 6.958l.264 4.424zm338.054-1.19c-2.375.307-3.064 2.692-1.005 3.475.551.209 13.725.35 32.766.35 34.65 0 33.496.07 33.496-2.019 0-1.947 1.153-1.879-32.659-1.92-17.286-.02-31.956.031-32.598.114zm-109.797 7.076h-63.902c-17.641-.053-3.318-.097 31.829-.097l32.073.097zm242.968 3.414c-10.212.215-10.91.33-10.637 1.746.289 1.5 1.162 1.564 22.819 1.688 22.392.128 22.074.153 22.074-1.739 0-1.795-.416-1.856-12.782-1.881-6.354-.013-16.018.071-21.474.186zm-240.394 1.004l36.133.224-.095 28.843-.095 28.843-104.005.093c-70.536.064-104.081-.028-104.24-.286-.351-.568-.214-57.319.14-57.882.249-.397 12.593-.446 68.167-.272l103.995.437zm-165.797 4.905c-1.894 1.158-1.977 1.431-2.085 6.81-.079 3.98.014 5.215.433 5.719.483.582 1.129.62 6.822.396 3.873-.152 6.488-.413 6.808-.679.413-.343.496-1.568.401-5.971-.153-7.171.046-6.96-6.568-6.958-3.9.001-4.885.117-5.811.683zm20.806-.251c-.409.226-1.119.752-1.579 1.169-.792.717-.836 1.032-.836 6.066 0 5.098.033 5.327.821 5.75.994.531 12.205.17 13.326-.43.635-.34.712-.8.692-4.177-.03-5.113-.421-7.298-1.456-8.137-.709-.574-1.536-.672-5.529-.663-2.713.007-5.009.185-5.439.422zm19.839.417c-1.504 1.013-1.751 2.132-1.792 8.147-.026 3.741.022 4.007.793 4.421 1.011.541 12.215.166 13.36-.448.707-.378.742-.699.622-5.727-.121-5.039-.176-5.379-1.028-6.285-.88-.936-1.015-.958-5.797-.958-4.486 0-5.002.071-6.158.85zm21.029-.269c-.613.316-1.305.775-1.538 1.019-.256.269-.492 2.519-.599 5.726-.233 7.002-.675 6.615 7.182 6.291 3.285-.136 6.294-.418 6.687-.629.648-.346.714-.826.714-5.143 0-5.006-.375-6.88-1.5-7.481-1.157-.619-9.655-.451-10.946.217zm20.434.103c-1.894 1.158-1.978 1.431-2.085 6.81-.079 3.98.014 5.215.433 5.719.483.582 1.129.62 6.822.396 3.667-.144 6.494-.418 6.782-.657.369-.307.494-1.764.494-5.769 0-5.195-.028-5.387-.912-6.271-.873-.874-1.113-.912-5.666-.911-3.956.001-4.94.116-5.868.683zm20.806-.251c-.409.226-1.12.752-1.579 1.169-.793.717-.836 1.032-.836 6.066 0 5.098.032 5.327.821 5.75.994.531 12.205.17 13.326-.43.635-.34.711-.8.692-4.177-.03-5.113-.421-7.298-1.457-8.137-.708-.574-1.535-.672-5.529-.663-2.713.007-5.009.185-5.438.422zm19.838.416c-1.469.989-1.733 2.192-1.787 8.134-.046 5.094-.297 4.935 7.316 4.635 3.338-.132 6.41-.422 6.826-.644.715-.383.749-.687.628-5.731s-.176-5.379-1.027-6.285c-.88-.936-1.015-.958-5.797-.958-4.485 0-5.002.071-6.159.849zm21.03-.268c-.613.316-1.305.775-1.538 1.019-.257.269-.492 2.519-.599 5.726-.233 7.002-.675 6.615 7.182 6.291 3.285-.136 6.294-.418 6.687-.629.65-.348.714-.83.714-5.403 0-5.209-.377-6.851-1.689-7.354-.33-.127-2.635-.23-5.122-.229-3.354.002-4.808.151-5.635.579zm20.434.103c-1.897 1.16-1.978 1.427-2.087 6.886-.134 6.713-.608 6.33 7.449 6.02 3.514-.136 6.312-.408 6.594-.642.364-.302.49-1.784.49-5.765 0-5.195-.028-5.387-.912-6.271-.873-.874-1.113-.912-5.666-.911-3.956.001-4.941.116-5.868.683zm20.805-.251c-.408.226-1.119.752-1.579 1.169-.792.717-.836 1.032-.836 6.066 0 5.098.033 5.327.821 5.75.994.531 12.206.17 13.326-.43.636-.34.712-.8.692-4.177-.03-5.113-.421-7.298-1.456-8.137-.708-.574-1.535-.672-5.529-.663-2.713.007-5.009.185-5.439.422zm-250.084 1.471c.304 1.521.291 11.771-.017 12.922l-.239.892-6.874-.239c-3.78-.132-6.92-.286-6.978-.343-.325-.326-.579-8.069-.353-10.782.21-2.524.396-3.232.885-3.361.34-.09 3.482-.183 6.981-.207l6.362-.043.233 1.161zm338.269.588c-2.53.278-3.345 2.655-1.191 3.474.551.209 13.725.35 32.766.35 34.65 0 33.496.07 33.496-2.019 0-1.947 1.139-1.88-32.473-1.917-17.184-.02-31.854.031-32.598.112zm-264.337 1.688c.123.459.226 1.943.229 3.297l.005 2.462-1.2.24c-.66.132-2.415.129-3.901-.005l-2.701-.245v-3.293-3.292h3.672c3.493 0 3.683.04 3.896.836zm20.442-.248c.124.323.226 1.809.226 3.303 0 2.639-.028 2.723-1 2.967-.55.138-2.222.136-3.716-.003l-2.715-.255v-3.3-3.3h3.49c2.84 0 3.532.109 3.715.588zm20.463-.124c.084.256.207 1.749.273 3.319l.122 2.854-1.233.232c-.679.127-2.395.117-3.815-.023l-2.581-.254v-3.296-3.296h3.541c2.505 0 3.586.136 3.693.464zm20.77.697c.128.639.232 2.122.232 3.297 0 2.111-.014 2.14-1.2 2.377-.659.132-2.415.129-3.901-.005l-2.701-.245v-3.293-3.292h3.669 3.669l.232 1.161zm20.432-.325c.123.459.227 1.943.229 3.297l.006 2.462-1.201.24c-.659.132-2.415.129-3.901-.005l-2.701-.245v-3.293-3.292h3.672c3.494 0 3.683.04 3.896.836zm20.443-.248c.124.323.226 1.809.226 3.303 0 2.639-.029 2.723-1.001 2.967-.55.138-2.222.136-3.715-.003l-2.715-.255v-3.3-3.3h3.49c2.839 0 3.532.109 3.715.588zm20.463-.124c.084.256.207 1.749.273 3.319l.121 2.854-1.233.232c-.678.127-2.395.117-3.814-.023l-2.581-.254v-3.296-3.296h3.541c2.505 0 3.586.136 3.693.464zm20.77.697c.128.639.232 2.122.232 3.297 0 2.111-.014 2.14-1.2 2.377-.66.132-2.415.129-3.901-.005l-2.701-.245v-3.293-3.292h3.669 3.669l.232 1.161zm20.432-.325c.123.459.226 1.943.229 3.297l.005 2.462-1.2.24c-.66.132-2.415.129-3.901-.005l-2.701-.245v-3.293-3.292h3.672c3.494 0 3.683.04 3.896.836zm20.443-.248c.124.323.225 1.809.225 3.303 0 2.639-.028 2.723-1 2.967-.55.138-2.222.136-3.715-.003l-2.715-.255v-3.3-3.3h3.489c2.84 0 3.532.109 3.716.588zm-392.331 10.126c.105.171.307 2.093.448 4.273l.256 3.962h-1.704-1.704l-.257-1.715c-.254-1.696.011-5.835.417-6.491.263-.426 2.284-.449 2.544-.029zm6.879.208c.28.338.393 1.8.324 4.18l-.107 3.661-1.067.122c-.586.067-1.438.028-1.894-.086-.804-.202-.823-.317-.648-4.023.104-2.199.355-3.931.594-4.089.691-.455 2.34-.317 2.798.235zm8.586.434c.199.524.362 2.346.362 4.047 0 3.497-.043 3.549-2.91 3.54-2.743-.009-2.78-.077-2.472-4.592l.269-3.948h2.194c2.014 0 2.224.078 2.557.953zm17.592.208c.127.639.232 2.562.232 4.273v3.112h-3.311-3.311l-.255-1.505c-.139-.828-.138-2.658.004-4.067.292-2.918.222-2.865 3.947-2.931l2.461-.043.233 1.161zm7.663-.416c.227.423.353 2.226.292 4.18l-.107 3.435-2.136.111-2.136.112v-4.075c0-4.45-.011-4.429 2.309-4.479 1.019-.021 1.484.165 1.778.716zm7.757-.085c.195.363.367 2.286.382 4.273l.029 3.613h-2.226-2.227v-4.06c0-4.458-.061-4.351 2.494-4.443.796-.028 1.313.177 1.548.617zm7.444-.14c.278.335.393 1.752.324 3.994l-.107 3.474-1.899.111-1.899.11-.22-1.354c-.297-1.828.131-6.231.638-6.571.691-.463 2.708-.312 3.163.236zm-32.889.439c.124.324.226 2.061.226 3.862 0 3.595-.084 3.725-2.406 3.725-1.563 0-1.681-.33-1.681-4.675v-3.499h1.818c1.315 0 1.88.162 2.043.587zm579.995 3.475c-4.291.116-8.011.346-8.267.511s-.464.605-.464.976c0 1.659.21 1.68 20.212 1.986 23.519.36 24.743.274 24.743-1.744 0-1.859-.227-1.888-14.825-1.915-7.479-.013-17.108.07-21.399.186zm-404.223 1.081c-1.894 1.157-1.977 1.431-2.085 6.81-.079 3.98.014 5.214.433 5.718.483.582 1.129.62 6.822.396 3.873-.152 6.488-.412 6.808-.679.413-.342.496-1.567.401-5.971-.153-7.171.046-6.96-6.568-6.957-3.9.001-4.885.116-5.811.683zm20.806-.251c-.409.226-1.119.751-1.579 1.168-.792.718-.836 1.033-.836 6.067 0 5.093.034 5.327.819 5.747.98.525 12.241.155 13.349-.438.61-.327.691-.829.671-4.167-.03-5.112-.421-7.298-1.456-8.136-.709-.574-1.536-.673-5.529-.664-2.713.007-5.009.185-5.439.423zm19.839.416c-1.504 1.014-1.751 2.133-1.792 8.147-.026 3.741.022 4.008.793 4.421 1.011.541 12.215.166 13.36-.447.707-.378.742-.7.622-5.728-.121-5.039-.176-5.378-1.028-6.285-.88-.936-1.015-.958-5.797-.958-4.486 0-5.002.072-6.158.85zm21.029-.269c-.613.317-1.305.776-1.538 1.019-.256.269-.492 2.519-.599 5.727-.233 7.002-.675 6.614 7.182 6.29 3.285-.135 6.294-.418 6.687-.628.648-.346.714-.827.714-5.144 0-5.006-.375-6.879-1.5-7.481-1.157-.619-9.655-.45-10.946.217zm20.434.104c-1.897 1.159-1.977 1.426-2.086 6.886-.135 6.713-.609 6.33 7.448 6.019 3.515-.136 6.313-.408 6.595-.642.363-.302.489-1.784.489-5.765 0-5.194-.028-5.387-.912-6.271-.873-.873-1.113-.912-5.666-.91-3.956.001-4.94.115-5.868.683zm20.806-.251c-.409.226-1.12.751-1.579 1.168-.793.718-.836 1.033-.836 6.067 0 5.093.033 5.327.819 5.747.98.525 12.24.155 13.349-.438.609-.327.69-.829.671-4.167-.03-5.112-.421-7.298-1.457-8.136-.708-.574-1.535-.673-5.529-.664-2.713.007-5.009.185-5.438.423zm19.838.416c-1.472.99-1.735 2.207-1.759 8.157-.021 5.085-.296 4.91 7.288 4.611 3.338-.131 6.41-.421 6.826-.643.715-.383.749-.688.628-5.732s-.176-5.378-1.027-6.285c-.88-.936-1.015-.958-5.797-.958-4.485 0-5.002.072-6.159.85zm21.03-.269c-.613.317-1.305.776-1.538 1.019-.257.269-.492 2.519-.599 5.727-.233 7.002-.675 6.614 7.182 6.29 3.285-.135 6.294-.418 6.687-.628.65-.348.714-.83.714-5.404 0-5.208-.377-6.851-1.689-7.354-.33-.127-2.635-.23-5.122-.229-3.354.002-4.808.152-5.635.579zm20.434.104c-1.897 1.159-1.978 1.426-2.087 6.886-.134 6.713-.608 6.33 7.449 6.019 3.514-.136 6.312-.408 6.594-.642.364-.302.49-1.784.49-5.765 0-5.194-.028-5.387-.912-6.271-.873-.873-1.113-.912-5.666-.91-3.956.001-4.941.115-5.868.683zm20.805-.251c-.408.226-1.119.751-1.579 1.168-.792.718-.836 1.033-.836 6.067 0 5.093.034 5.327.819 5.747.98.525 12.241.155 13.349-.438.61-.327.691-.829.671-4.167-.03-5.112-.421-7.298-1.456-8.136-.708-.574-1.535-.673-5.529-.664-2.713.007-5.009.185-5.439.423zm-250.301.85c.145.145.317 3.489.384 7.431l.121 7.169-1.236.21c-1.874.32-12.985-.015-13.373-.403-.413-.413-.511-2.755-.396-9.449l.088-5.09 2.136-.159c3.083-.229 11.966-.018 12.276.291zm338.911.846c-2.697.244-3.69 1.612-2.229 3.072.731.731 1.238.743 33.225.743 35.395 0 33.65.105 33.65-2.025 0-1.939 1.099-1.874-32.102-1.909-16.98-.019-31.624.035-32.544.119zm-264.762 2.05c.123.46.226 1.944.229 3.298l.005 2.461-1.2.24c-.66.132-2.415.13-3.901-.005l-2.701-.245v-3.292-3.293h3.672c3.493 0 3.683.041 3.896.836zm20.442-.248c.124.323.226 1.809.226 3.302v2.715l-1.278.24c-.703.132-2.375.128-3.715-.01l-2.438-.25v-3.292-3.293h3.49c2.84 0 3.532.11 3.715.588zm20.463-.123c.084.255.207 1.747.273 3.315l.121 2.85-1.112.223c-.612.122-2.329.112-3.815-.023l-2.701-.245v-3.292-3.293h3.541c2.505 0 3.586.136 3.693.465zm20.77.696c.128.639.232 2.123.232 3.298 0 2.11-.014 2.139-1.2 2.376-.659.132-2.415.13-3.901-.005l-2.701-.245v-3.292-3.293h3.669 3.669l.232 1.161zm20.432-.325c.123.46.227 1.944.229 3.298l.006 2.461-1.201.24c-.659.132-2.415.13-3.901-.005l-2.701-.245v-3.292-3.293h3.672c3.494 0 3.683.041 3.896.836zm20.443-.248c.124.323.226 1.809.226 3.302v2.715l-1.278.24c-.703.132-2.375.128-3.716-.01l-2.437-.25v-3.292-3.293h3.49c2.839 0 3.532.11 3.715.588zm20.463-.123c.084.255.207 1.747.273 3.315l.121 2.85-1.113.223c-.612.122-2.328.112-3.814-.023l-2.701-.245v-3.292-3.293h3.541c2.505 0 3.586.136 3.693.465zm20.77.696c.128.639.232 2.123.232 3.298 0 2.11-.014 2.139-1.2 2.376-.66.132-2.415.13-3.901-.005l-2.701-.245v-3.292-3.293h3.669 3.669l.232 1.161zm20.432-.325c.123.46.226 1.944.229 3.298l.005 2.461-1.2.24c-.66.132-2.415.13-3.901-.005l-2.701-.245v-3.292-3.293h3.672c3.494 0 3.683.041 3.896.836zm20.443-.248c.124.323.225 1.809.225 3.302v2.715l-1.278.24c-.703.132-2.375.128-3.715-.01l-2.437-.25v-3.292-3.293h3.489c2.84 0 3.532.11 3.716.588zm419.309 1.649c-22.703.355-26.901.538-27.87 1.217-.733.514-.733.522-.01 1.177.647.586 2.101.701 13.096 1.035 14.905.454 100.431.59 102.931.163 2.76-.472 3.27-2.33.9-3.271-1.43-.566-59.914-.778-89.047-.321zm-760.518 2.173l5.016.235.098 12.913.097 12.914-29.634-.096-29.634-.095-.098-12.887-.098-12.887 1.213-.151c1.99-.246 47.612-.2 53.04.054zm148.054 11.178c-.409.169-1.107.702-1.552 1.184-.737.799-.817 1.33-.909 6.03-.13 6.699-.571 6.331 7.227 6.03 3.234-.125 6.213-.406 6.621-.624.698-.373.733-.718.621-5.976-.154-7.224.049-7.008-6.569-6.975-2.583.013-5.03.162-5.439.331zm20.434.079c-.409.226-1.119.752-1.579 1.168-.792.718-.836 1.033-.836 6.067 0 5.094.034 5.328.819 5.748.98.525 12.241.154 13.349-.439.61-.326.691-.828.671-4.166-.03-5.113-.421-7.298-1.456-8.137-.709-.574-1.536-.672-5.529-.663-2.713.006-5.009.185-5.439.422zm19.839.417c-1.504 1.013-1.751 2.132-1.792 8.147-.026 3.738.022 4.008.791 4.419.997.534 12.25.149 13.383-.457.68-.364.719-.737.601-5.716-.121-5.039-.176-5.379-1.028-6.285-.88-.936-1.015-.958-5.797-.958-4.486 0-5.002.071-6.158.85zm21.029-.27c-.613.317-1.305.776-1.538 1.02-.256.269-.492 2.519-.599 5.726-.233 7.002-.675 6.615 7.182 6.291 3.285-.136 6.294-.418 6.687-.629.648-.346.714-.826.714-5.143 0-5.006-.375-6.88-1.5-7.482-1.157-.619-9.655-.45-10.946.217zm20.434.104c-1.897 1.16-1.977 1.426-2.086 6.886-.135 6.713-.609 6.33 7.448 6.019 3.515-.135 6.313-.407 6.595-.641.363-.302.489-1.784.489-5.766 0-5.194-.028-5.386-.912-6.27-.873-.874-1.113-.912-5.666-.911-3.956.001-4.94.116-5.868.683zm20.806-.251c-.409.226-1.12.752-1.579 1.168-.793.718-.836 1.033-.836 6.067 0 5.094.033 5.328.819 5.748.98.525 12.24.154 13.349-.439.609-.326.69-.828.671-4.166-.03-5.113-.421-7.298-1.457-8.137-.708-.574-1.535-.672-5.529-.663-2.713.006-5.009.185-5.438.422zm19.838.416c-1.472.991-1.735 2.207-1.759 8.157-.021 5.088-.3 4.912 7.308 4.6 3.35-.137 6.422-.427 6.826-.643.69-.369.727-.724.608-5.72-.12-5.039-.176-5.379-1.027-6.285-.88-.936-1.015-.958-5.797-.958-4.485 0-5.002.071-6.159.849zm21.03-.269c-.613.317-1.305.776-1.538 1.02-.257.269-.492 2.519-.599 5.726-.233 7.002-.675 6.615 7.182 6.291 3.285-.136 6.294-.418 6.687-.629.65-.348.714-.83.714-5.403 0-5.209-.377-6.851-1.689-7.355-.33-.126-2.635-.229-5.122-.228-3.354.002-4.808.151-5.635.578zm20.434.104c-1.897 1.16-1.978 1.426-2.087 6.886-.134 6.713-.608 6.33 7.449 6.019 3.514-.135 6.312-.407 6.594-.641.364-.302.49-1.784.49-5.766 0-5.194-.028-5.386-.912-6.27-.873-.874-1.113-.912-5.666-.911-3.956.001-4.941.116-5.868.683zm20.805-.251c-.408.226-1.119.752-1.579 1.168-.792.718-.836 1.033-.836 6.067 0 5.094.034 5.328.819 5.748.98.525 12.241.154 13.349-.439.61-.326.691-.828.671-4.166-.03-5.113-.421-7.298-1.456-8.137-.708-.574-1.535-.672-5.529-.663-2.713.006-5.009.185-5.439.422zm89.13 1.383c-3.308.332-4.321 1.442-2.749 3.014.731.731 1.238.743 33.225.743 35.453 0 33.65.11 33.65-2.057 0-1.871.491-1.841-31.766-1.886-16.552-.023-31.113.061-32.36.186zm-265.282 2.364c.123.459.226 1.943.229 3.297l.005 2.462-1.2.24c-.66.131-2.415.129-3.901-.005l-2.701-.245v-3.293-3.292h3.672c3.493 0 3.683.04 3.896.836zm20.442-.249c.124.324.226 1.81.226 3.303v2.715l-1.278.24c-.703.132-2.375.127-3.715-.01l-2.438-.25v-3.293-3.292h3.49c2.84 0 3.532.109 3.715.587zm20.463-.123c.084.256.207 1.747.273 3.315l.121 2.85-1.112.223c-.612.122-2.329.112-3.815-.022l-2.701-.245v-3.293-3.292h3.541c2.505 0 3.586.136 3.693.464zm20.77.697c.128.638.232 2.122.232 3.297 0 2.111-.014 2.14-1.2 2.377-.659.131-2.415.129-3.901-.005l-2.701-.245v-3.293-3.292h3.669 3.669l.232 1.161zm20.432-.325c.123.459.227 1.943.229 3.297l.006 2.462-1.201.24c-.659.131-2.415.129-3.901-.005l-2.701-.245v-3.293-3.292h3.672c3.494 0 3.683.04 3.896.836zm20.443-.249c.124.324.226 1.81.226 3.303v2.715l-1.278.24c-.703.132-2.375.127-3.716-.01l-2.437-.25v-3.293-3.292h3.49c2.839 0 3.532.109 3.715.587zm20.463-.123c.084.256.207 1.747.273 3.315l.121 2.85-1.113.223c-.612.122-2.328.112-3.814-.022l-2.701-.245v-3.293-3.292h3.541c2.505 0 3.586.136 3.693.464zm20.77.697c.128.638.232 2.122.232 3.297 0 2.111-.014 2.14-1.2 2.377-.66.131-2.415.129-3.901-.005l-2.701-.245v-3.293-3.292h3.669 3.669l.232 1.161zm20.432-.325c.123.459.226 1.943.229 3.297l.005 2.462-1.2.24c-.66.131-2.415.129-3.901-.005l-2.701-.245v-3.293-3.292h3.672c3.494 0 3.683.04 3.896.836zm20.443-.249c.124.324.225 1.81.225 3.303v2.715l-1.278.24c-.703.132-2.375.127-3.715-.01l-2.437-.25v-3.293-3.292h3.489c2.84 0 3.532.109 3.716.587zm208.838.509c-3.269.112-6.153.339-6.409.505s-.464.604-.464.976c0 1.664.177 1.681 20.583 1.96 23.716.324 24.372.272 24.372-1.932 0-.936-.19-1.137-1.394-1.471-1.444-.401-25.371-.426-36.688-.038z" fill="#dfcb45"/><path d="M-.5 141V-.5H1279V350s-214.88 65.923-406.5-91C624 55.5 309 82.5-.5 141zM1297 957c2.95 1.878-183.09 0-330 0s-266 9-266 0c0-19.5 119.092-58 266-58 124.5 0 254.5 10 330 58z" fill="#071729"/><g clip-path="url(#A)"><g fill="#fcc9a7"><path d="M987.228 733.023c4.942-2.979 11.372-1.394 14.352 3.572 2.97 4.947 1.39 11.384-3.572 14.364a10.44 10.44 0 0 1-14.348-3.572c-2.977-4.928-1.374-11.365 3.568-14.364z"/><path d="M999.074 733.768c-.344-.267-18.699-21.851-18.699-21.851l-7.499 9.092L989.438 742l9.636-8.232zm-15.475 168.276l-4.675 21.374-14.768-2.216 4.77-21.087 14.673 1.929zm66.201-1.91l.18 21.889-14.87 1.108-.04-21.622 14.73-1.375z"/></g><g fill="#fffcf3"><path d="M980.792 919.941c-.305-.898-1.393-1.28-2.175-.707-1.527 1.108-4.217 2.407-8.109 1.948-4.045-.477-5.496-2.617-5.992-4.145-.267-.802-1.125-1.222-1.908-.917l-25.052 10.047c-1.527.612-2.748 1.796-3.378 3.305-.61 1.413.42 2.999 1.966 2.999l42.568.305a2.91 2.91 0 0 0 2.939-3.056l-.363-8.232c0-.134-.038-.268-.076-.401l-.42-1.146zm52.808 0c.31-.898 1.42-1.28 2.18-.707 1.52 1.108 4.22 2.407 8.11 1.948 4.04-.477 5.47-2.617 5.99-4.145.27-.802 1.12-1.222 1.91-.917l25.05 10.047c1.53.612 2.75 1.796 3.38 3.305a2.15 2.15 0 0 1-1.97 2.999l-42.57.305c-1.68.019-3.01-1.375-2.94-3.056l.37-8.232c0-.134.04-.268.07-.401l.42-1.146z"/></g><path d="M1033.41 625.717l-13.22 1.146-21.026 11.861v84.348h56.116v-84.348l-21.87-13.007z" fill="#08182b"/><path d="M1029.79 634.216H1026a7.12 7.12 0 0 1-7.12-7.124v-14.287h18.01v14.287c.02 3.935-3.17 7.124-7.1 7.124z" fill="#fcc9a7"/><path d="M1018.88 620.082s2.8 5.635 9.18 5.635c6.37 0 8.83-5.749 8.83-5.749l-18.01.114z" fill="#f4be9a"/><g fill="#fcc9a7"><path d="M1028.09 622.413h-.59c-9.18 0-16.73-7.258-17.09-16.446l-.33-9.149c-.38-9.722 7.39-17.801 17.1-17.801h1.24c7.34 0 17.48 8.079 17.09 17.801l-.32 9.149c-.36 9.188-7.92 16.446-17.1 16.446z"/><path d="M1015.65 603.752c.21 3.094-2.12 5.768-5.21 5.978a5.6 5.6 0 0 1-5.97-5.214c-.21-3.095 2.12-5.769 5.21-5.979 3.09-.191 5.76 2.14 5.97 5.215zm35.46 0c.21 3.094-2.12 5.768-5.21 5.978a5.61 5.61 0 0 1-5.98-5.214c-.21-3.095 2.12-5.769 5.21-5.979 3.09-.191 5.77 2.14 5.98 5.215z"/></g><g fill="#3d72a3"><path d="M999.166 722.671l-34.898 185.714 20.053-.191 51.019-185.16-36.174-.363z"/><path d="M1055.28 723.072l-2.19 185.504h-21.2l-8.45-184.339 31.84-1.165z"/></g><path d="M999.164 638.724s-46.862 28.307-58.253 47.942c-2.232 3.839.668 8.805 4.599 10.849 4.35 2.273 9.711.726 12.211-3.495l43.349-25.175c.02 0-1.906-21.622-1.906-30.121z" fill="#08182b"/><path d="M1009.11 586.427l1.32 14.058h2.11l.27-7.373s1.11-2.827 6.05-8.901c0 0 3.22 8.252 23.2 6.647l1.17 9.321 2.06-.229 1.08-10.008c.73-3.381.98-6.533.37-9.933-1.24-6.876-6.83-10.677-22.98-5.825-1.33.401 1.4.133 0 0-4.61-.516-16.79-.573-14.65 12.243z" fill="#2e2a33"/><path d="M1032.88 721.736l-4.54 48.629c-.17 1.834 1.07 3.495 2.88 3.839l55.71 10.658c2.05.402 3.99-1.05 4.22-3.113l5.09-46.223c.2-1.795-.97-3.457-2.74-3.877l-56.27-13.065c-2.1-.496-4.14.993-4.35 3.152z" fill="#afafaf"/><path d="M1035.97 722.595l-4.54 48.629c-.17 1.834 1.07 3.496 2.88 3.84l55.72 10.658c2.04.382 3.98-1.051 4.21-3.114l5.1-46.222c.19-1.796-.98-3.457-2.75-3.878l-56.27-13.064c-2.08-.497-4.14.993-4.35 3.151z" fill="#d1d1d1"/><g fill="#fcc9a7"><path d="M1064.98 772.237a10.48 10.48 0 0 1 7.06 13.008c-1.65 5.539-7.46 8.709-13 7.086a10.51 10.51 0 0 1-7.08-13.008c1.66-5.558 7.46-8.729 13.02-7.086z"/><path d="M1072.43 781.481l-1.83-29.586-9.9 1.795 1.32 24.85 10.41 2.941z"/></g><path d="M1055.28 638.724s15 10.753 15.95 26.072l4.69 35.813c.27 2.101.39 4.202.31 6.323l-1.81 54.474h-20.59l-.38-58.963 1.83-63.719z" fill="#08182b"/><path d="M1021.78 625.717c-1.61 1.165-9.33 5.52-9.33 5.52s.21 10.887 16.58 10.009c14.4-.764 14.31-9.608 14.31-9.608l-9.94-5.921h-11.62z" fill="#fcc9a7"/><path d="M964.002 679.6l28.01 44.809-13.28 12.587-37.741-44.102 23.011-13.294z" fill="#08182b"/><path d="M1053.43 722.48v-20.056l-4.66-36.577" stroke="#939597" stroke-width=".769" stroke-miterlimit="10" stroke-linecap="round" stroke-linejoin="round"/></g><path d="M1057.49 916.254c-.39-.12-.81 0-1.2.12-1.71.57-3.38 1.32-4.88 2.31-.75.48-1.49 1.02-1.85 1.83-.33.75-.3 1.59-.24 2.37l1.58 29.008c.03.63.12 1.32.6 1.71.6.45 1.44.15 2.1-.15l19.27-8.49c3.08-1.35 6.25-2.79 8.52-5.28-1.73-3.839-5.38-6.389-8.73-8.969-5.21-4.02-10-8.64-14.22-13.679-.24-.3-.53-.66-.95-.78z" fill="#ddc199"/><path d="M1027.17 866.487l4.79-1.08a467.82 467.82 0 0 1 24.72 53.217c-1.65 1.05-3.83 2.13-5.42.99-.66-.48-1.05-1.26-1.4-2.01-8.08-16.799-15.65-33.838-22.69-51.117z" fill="#bdb39b"/><path opacity=".068" d="M1056.59 950.122c.03.33-.48.45-.54.12-1.28-9.749-3.11-19.319-5.47-28.858-.15-.6.78-.78.93-.18a184.63 184.63 0 0 1 5.08 28.918zm10.14-4.289c-3.95-8.339-8.14-16.559-12.57-24.658-.26-.48.51-.87.78-.39 4.61 8.159 8.77 16.559 12.57 25.108-.06.06-.09.12-.12.18-.21-.15-.42-.21-.66-.24zm6.44-5.49c-6.61-6.24-12.51-13.17-17.65-20.669-.33-.51.5-.93.83-.42a128.16 128.16 0 0 0 17.36 20.609c.33.33-.21.81-.54.48z" fill="#272525"/><path d="M1119.03 924.803l-.11-1.38c3.94-2.7 10.89-1.83 15.08-.45 4.48 1.47 4.48 4.23 4.42 8.91-.03 2.639-.27 5.609-2.3 7.319-1.56 1.32-3.74 1.5-5.77 1.62l-5.45.33c-1.26.06-2.66.09-3.65-.72-.99-.84-1.14-2.25-1.26-3.54l-.96-12.089zm-4.82 0l.12-1.38c-3.95-2.7-10.89-1.83-15.08-.45-4.49 1.47-4.49 4.23-4.43 8.91.03 2.639.27 5.609 2.31 7.319 1.55 1.32 3.74 1.5 5.77 1.62l5.45.33c1.26.06 2.66.09 3.65-.72.99-.84 1.14-2.25 1.26-3.54l.95-12.089z" fill="#2f3f47"/><path d="M1147.91 914.784c.99.21 1.95.51 2.87.9.69.27 1.38.63 1.86 1.17.66.78.84 1.86.96 2.91.15 1.38.21 2.76.18 4.14 0 1.17-.09 2.37-.69 3.36-.84 1.379-2.49 2.009-4.04 2.399-2.96.75-6.05.93-9.1 1.08-18.46.9-36.98.3-55.35-1.77-.75-.09-1.59-.209-2.1-.779-.3-.33-.45-.781-.6-1.201-.95-3.059-1.58-7.229.48-10.079 1.77-2.43 5.03-1.05 7.48-1.08 2.52-.03 5.06-.24 7.57-.33l14.73-.57 20.76-.63c4.67-.09 10.17-.6 14.99.48z" fill="#516770"/><path d="M1108.23 848.938l-37.58.6c.3-6.689.78-13.379 2.22-19.919 2.48-11.459 8.17-22.648 17.77-29.338 14.72-10.259 38.09-8.91 53.95 1.23 6.67 4.26 12.03 10.109 14.84 17.279 3.23 8.189 4.1 17.129 4.61 25.918l.18 3.48c-18.61-.72-37.34.69-55.99.75z" fill="#eaf1f2"/><path d="M1109.24 852.298c18.37-.03 36.8-1.35 55.17-.69a345.81 345.81 0 0 1-2.51 59.907c-.36 2.73-.81 5.58-2.6 7.739-2.79 3.33-7.6 1.86-11.34 1.86-6.32 0-12.81.271-19.18.42-12.03.27-23.97.3-35.94-1.049-5.68-.63-17.17 1.11-19.9-4.02-2.24-4.17-1.31-12.629-1.64-17.279-.39-5.52-.69-11.01-.87-16.529-.33-9.93-.27-19.859.12-29.819l38.69-.54z" fill="#e2eced"/><path d="M1065.85 884.636c-.24-.21-.27-.57-.3-.87l-1.56-24.928c-.03-.72-.03-1.56.54-2.04.42-.33.96-.36 1.5-.36l5.53-.06c1.17 9.449 1.65 18.959 1.41 28.468l-6.16.03c-.33 0-.69 0-.96-.24zm-9.54 19.14c-.24-.69-.51-1.41-1.05-1.92-.42-.39-.98-.63-1.52-.81-2.34-.84-4.73-1.47-7.15-1.89-1.89 1.29-3.59 2.82-5.06 4.59-.27.33-.54.69-.6 1.11-.06.33.03.66.12.99l2.84 11.069c1.41.18 2.82.21 4.19.03l-1.58-6.719c-.51-2.13-.9-4.74.71-6.24l4.91 1.29c.27.06.57.15.81.33.27.24.39.6.51.93.69 2.1 1.2 4.26 1.55 6.45l3.15-.871c.09-2.849-.87-5.639-1.83-8.339z" fill="#2f3f47"/><path d="M1043.59 900.535c-.09-.09-.11-.209-.14-.299l-.93-4.02a46.07 46.07 0 0 1 6.37-.99c.33 1.11.54 2.28.63 3.449.03.241.03.541-.15.72-.12.12-.27.15-.42.21-1.59.48-3.23.84-4.91 1.05-.12-.03-.3 0-.45-.12z" fill="#516770"/><path d="M1041.5 895.287c-1.26-2.13-.24-7.74-.24-9.99.03-3.089.03-6.209.75-9.209.71-3 2.18-5.94 4.6-7.83 1.38-1.08 3-1.769 4.67-2.339a35.27 35.27 0 0 1 15.59-1.65c.42.06.87.12 1.17.42.33.3.39.78.45 1.23.24 1.709.56 3.599.48 5.339-.15 3.06.47 2.22-1.74 3.09-1.71.66-4.91.12-6.85.57-2.28.51-4.49 1.29-6.7 2.07-1.41.48-2.91 1.08-3.63 2.37-.38.69-.5 1.53-.59 2.34-.54 4.799-.78 9.629-.75 14.459 0 .84-6.17.42-6.97-.51-.09-.12-.15-.24-.24-.36z" fill="#e2eced"/><path opacity=".023" d="M1051.97 867.299c.18 2.88.93 5.49 2.07 8.129.21.51-.42.9-.75.45-1.8-2.519-2.72-5.519-3.05-8.579-.12-1.08 1.64-1.11 1.73 0zm-4.58 2.07c.51 2.79 1.77 4.62 3.74 6.6.27.27-.09.72-.39.51-1.34-.84-2.6-1.38-3.56-2.73-.89-1.26-1.49-2.61-1.67-4.14-.12-1.05 1.67-1.29 1.88-.24z" fill="#272525"/><path d="M1167.35 856.618c.24.21.27.57.3.87l1.56 24.928c.03.72.03 1.56-.54 2.04-.42.33-.96.36-1.5.36l-5.53.06c-1.17-9.449-1.65-18.959-1.41-28.468l6.16-.03c.33 0 .72 0 .96.24zm23.19-10.23c-.09.72-.18 1.5.09 2.16.21.54.6.99 1.02 1.41 1.71 1.77 3.56 3.42 5.57 4.89 2.27-.3 4.48-.93 6.55-1.86.39-.18.81-.36 1.05-.72.18-.27.26-.6.32-.93l2.37-11.189a17.87 17.87 0 0 0-3.74-1.92l-1.56 6.749c-.51 2.13-1.31 4.65-3.41 5.25l-3.83-3.33c-.21-.18-.45-.39-.57-.659-.15-.331-.09-.721-.03-1.081.33-2.189.81-4.349 1.47-6.479l-3.2-.63c-1.38 2.55-1.74 5.49-2.1 8.339z" fill="#2f3f47"/><path d="M1200.48 854.938c.03.12 0 .24 0 .33l-.95 4.019c-2.1-.51-4.16-1.169-6.17-1.949.18-1.14.51-2.28.96-3.36.09-.24.21-.48.45-.57.15-.06.3-.03.48 0a30.12 30.12 0 0 1 4.84 1.23c.15.06.33.15.39.3z" fill="#516770"/><path d="M1200.03 860.579c.21 2.46-3.2 7.02-4.22 9.059-1.38 2.76-2.78 5.55-4.76 7.92-1.97 2.37-4.58 4.35-7.6 4.95-1.7.36-3.47.27-5.21.03-5.23-.69-10.29-2.55-14.69-5.46-.36-.24-.71-.48-.86-.9s0-.87.12-1.32c.56-1.65 1.07-3.48 1.94-5.01 1.5-2.669.54-2.19 2.93-2.01 1.83.15 4.46 2.07 6.41 2.55 2.27.57 4.6.84 6.91 1.14 1.46.18 3.08.33 4.31-.509.65-.451 1.13-1.141 1.55-1.831 2.61-4.049 4.97-8.279 7.09-12.629.36-.75 5.69 2.37 6.02 3.57.03.18.06.3.06.45z" fill="#e2eced"/><path opacity=".023" d="M1178.28 880.976c1.11-2.67 1.59-5.34 1.77-8.22.03-.569.77-.629.86-.059.48 3.059 0 6.149-1.07 9.029-.39 1.05-2.01.27-1.56-.75zm4.99.211c.78-2.73.48-4.92-.42-7.59-.12-.36.39-.6.6-.3.81 1.35 1.71 2.4 1.98 4.02.24 1.53.18 3-.36 4.439-.36 1.05-2.07.451-1.8-.569z" fill="#272525"/><path d="M1155.86 829.319c-.03 1.14-.09 2.31-.57 3.36-1.22 2.61-4.45 3.449-7.3 3.929-16.24 2.73-32.85 3.66-49.19 1.59-2.15-.27-4.31-.599-6.28-1.499-1.98-.9-3.74-2.431-4.46-4.44-.45-1.29-.48-2.67-.51-4.05l-.06-4.17c0-.63 0-1.26.24-1.86.27-.63.81-1.14 1.38-1.53 2.15-1.47 4.87-1.8 7.48-2.07 17.29-1.739 34.8-3.269 52-.929.72.09 1.47.209 1.98.719.27.24.45.571.71.81.51.39 1.2.36 1.8.57 1.68.54 2.27 2.61 2.48 4.38.24 1.71.33 3.45.3 5.19z" fill="#2f3f47"/><path opacity=".2" d="M1134.2 831.839c-.57-1.05-.66-2.28-.54-3.48.06-.72.24-1.47.69-2.009.96-1.141 2.72-1.02 4.19-1.29 1.29.539 2.37 1.589 2.9 2.879.33.78.48 1.62.39 2.46a4.14 4.14 0 0 1-3.29 3.48c-1.7.36-3.53-.51-4.34-2.04zm-28.49 0c-.57-1.05-.66-2.28-.54-3.48.06-.72.24-1.47.69-2.009.96-1.141 2.72-1.02 4.19-1.29 1.28.539 2.36 1.589 2.9 2.879.33.78.48 1.62.39 2.46-.21 1.71-1.62 3.18-3.29 3.48-1.68.36-3.5-.51-4.34-2.04z" fill="#eaf1f2"/><path d="M973.339 948.322h-58.354v-97.593h58.354v97.593z" fill="#b2b2b2"/><path d="M915.216 948.322h-58.355v-97.593h58.355v97.593z" fill="#d1d1d1"/><path d="M909.97 758.443l-7.029 33.688 21.951 2.83s1.904-35.009 0-35.197l-14.922-1.321z" fill="#a8754b"/><g fill="#fff"><path d="M930.508 724.605s-21.933 3.094-25.871 36.499c0 0 6.991 7.526 15.903 5.206l9.968-41.705z"/><path d="M940.026 723.454s21.367-2.113 28.885 12.958c7.537 15.071-14.433 30.765-6.896 65.301l-47.369-2.508v-30.463s-8.63-12.6 3.599-26.105c0 0 .735-20.522 21.781-19.183z"/></g><path d="M869.554 806.598s-15.356-5.696-19.482 9.224c-4.126 14.901-21.235 112.324-21.235 112.324h13.717l8.064-38.724s11.381-12.695 14.867-39.649l47.859-5.715-43.79-37.46z" fill="#b5845b"/><path d="M900.95 842.247s-8.14-.226-22.592-4.829c-14.452-4.621-24.759.264-19.068 16.561 5.69 16.278 34.443 91.728 34.443 91.728l10.891-3.264-9.402-48.853s-2.205-24.238-12.417-38.441c0 0 21.48 1.075 28.828-.057 7.311-1.113-10.683-12.845-10.683-12.845z" fill="#a8754b"/><path d="M962.014 801.714s17.372 21.861-3.524 43.325c0 0-10.759 12.544-58.184 10.582 0 0-12.436-42.024-38.89-53.323l54.755-7.337 45.843 6.753z" fill="#071729"/><path d="M938.854 667.641s-5.652-23.031 13.925-23.163c14.489-.094 18.804 17.24 1.036 28.84l-14.961-5.677z" fill="#190d08"/><path d="M954.474 677.506s3.542-9.054-6.557-13.637-13.322 6.262-13.322 6.262l19.879 7.375z" fill="#fd6c75"/><path d="M916.112 698.103s-14.584-8.639 1.187-25.993c9.854-10.845 27.114-10.242 36.723.51s.547 29.708.547 29.708l-6.538-10.884-5.728-8.45-8.197-3.282-6.425.453-5.445.698-4.391 1.848-1.733 15.392z" fill="#27160c"/><path d="M928.02 705.084l16.391-2.107 3.318 25.856-16.391 2.107-3.318-25.856z" fill="#b5845b"/><path d="M946.126 710.665s-1.771 9.412-9.327 11.317c-2.355.585-4.918-.094-6.35-2.037-.395-.528-.678-1.131-.772-1.81-.358-2.717 6.802-7.47 6.802-7.47h9.647z" fill="#a8754b"/><path d="M934.58 717.362l.848-.113c9.402-1.207 16.054-9.827 14.848-19.24l-.961-7.469c-1.206-9.412-9.817-16.071-19.219-14.863l-.848.113c-9.402 1.207-16.053 9.827-14.848 19.239l.961 7.47c1.206 9.412 9.817 16.07 19.219 14.863z" fill="#b5845b"/><path d="M948.429 696.14s-11.795-3.848-11.494-17.108c0 0-.753-9.884 9.572-.735s1.922 17.843 1.922 17.843z" fill="#27160c"/><path d="M945.826 699.762c.415 3.169 3.297 5.414 6.482 4.999 3.165-.415 5.407-3.301 4.993-6.47a5.78 5.78 0 0 0-6.482-4.998c-3.165.396-5.408 3.3-4.993 6.469z" fill="#b5845b"/><path d="M942.039 689.502l.527 4.187c1.206 5.904 3.693 4.112 4.598 1.566l-5.125-5.753zm-29.452-2.132s12.04 9.035 29.695-4.357c12.172-9.224-6.237-12.543-6.237-12.543l-17.165 3.546-6.293 13.354z" fill="#27160c"/><path d="M947.708 728.811s-10.306 18.41-17.617 12.751c-7.895-6.111 9.93-18.108 9.93-18.108l7.687 5.357zm-4.555 37.498s-6.369 11.751-10.721 20.974l-46.427-2.678s-9.214-7.545-16.431-1.169l7.123 8.563 58.127 12.883a6.86 6.86 0 0 0 6.181-1.698c5.144-4.866 16.336-16.202 21.762-27.765l-19.614-9.11z" fill="#b5845b"/><path d="M814.288 748.183h57.053c1.885 0 3.505 1.32 3.882 3.15l10.74 50.456a3.98 3.98 0 0 1-3.882 4.81h-58.014a3.98 3.98 0 0 1-3.901-3.225l-9.798-50.457a4.01 4.01 0 0 1 3.92-4.734z" fill="#b2b2b2"/><path d="M811.012 748.183h57.054a3.96 3.96 0 0 1 3.882 3.15l10.74 50.456c.527 2.471-1.357 4.81-3.882 4.81h-58.015a3.98 3.98 0 0 1-3.9-3.225l-9.798-50.457c-.452-2.452 1.413-4.734 3.919-4.734z" fill="#d1d1d1"/><path d="M884.459 802.298h38.984a2.15 2.15 0 0 1 0 4.3h-39.738l.754-4.3z" fill="#b2b2b2"/><path d="M846.344 776.079a6.23 6.23 0 0 1-6.218 6.225 6.23 6.23 0 0 1-6.218-6.225 6.23 6.23 0 0 1 6.218-6.225c3.429 0 6.218 2.773 6.218 6.225zm116.423-47.004c.773.339 26.342 12.92 1.187 51.908 0 0-16.072.265-25.38-11.713-.019 0 3.071-49.476 24.193-40.195z" fill="#fff"/><path d="M907.579 940.312c-.339-1.018-1.451-1.396-2.205-.735-1.469 1.301-4.107 2.906-7.989 2.51-4.051-.396-5.558-2.793-6.142-4.51-.302-.905-1.169-1.358-1.941-.981l-24.532 12.336c-1.489.755-2.657 2.151-3.222 3.886-.547 1.641.546 3.397 2.091 3.359l42.376-1.171c1.677-.038 2.939-1.679 2.807-3.584l-.697-9.356c-.019-.151-.037-.3-.094-.45l-.452-1.304zm-61.855-16.145c-.076-1.076-1.037-1.736-1.922-1.283-1.752.868-4.711 1.716-8.366.321-3.787-1.453-4.635-4.15-4.748-5.961-.057-.943-.773-1.622-1.621-1.452l-26.906 5.489c-1.639.339-3.128 1.377-4.145 2.904-.961 1.434-.358 3.414 1.13 3.773l41.208 9.978c1.62.396 3.278-.849 3.636-2.735l1.771-9.205c.038-.151.038-.302.038-.471l-.075-1.358z" fill="#fd6c75"/><path d="M1147.66 470.364c12.31.2 23.22 3.515 31.04 8.491 7.95 5.051 13.17 11.463 10.48 17.923-2.69 6.486-12.44 11.387-23.84 14.229-11.09 2.764-23.77 3.07-34.82.396-11.14-2.694-18.97-7.952-22.23-14.193-3.44-6.592-3.31-13.969 4.68-19.421 8.05-5.486 21.62-7.636 34.69-7.425zm-30.13 51.359c5.35 2.413 9.47 5.978 11.92 9.715 2.49 3.793 3.52 7.692 1.08 10.121-2.45 2.438-7.67 2.826-13.21 1.966-5.4-.836-11-3.088-15.32-6.389-4.34-3.325-6.74-7.192-6.95-10.642-.21-3.644 1.29-6.972 5.85-7.941 4.59-.975 10.95.609 16.63 3.17zm-25.82 23.127c3.29 2.4 5.58 5.41 6.72 8.298 1.15 2.931 1.29 5.727-.71 7.03-2.01 1.308-5.62.827-9.26-.546-3.54-1.335-7.03-3.664-9.49-6.52-2.48-2.878-3.56-5.847-3.21-8.22.37-2.507 1.86-4.554 5.1-4.563 3.26-.008 7.36 1.973 10.85 4.521zm73.23-94.592c-20.36 2.828-39.23.133-53.43-6.11-14.41-6.338-24.68-15.63-21.92-27.031 2.78-11.446 17.6-22.075 35.68-29.714 17.59-7.429 38.43-11.19 57.37-9.594 19.07 1.607 33.36 8.316 40.34 17.828 7.38 10.048 9.07 22.313-2.71 33.405-11.86 11.162-33.71 18.213-55.33 21.216zm-106.93 108.526c.85-1.537 2.72-2.322 4.84-2.176 2.14.147 4.41 1.221 6 2.92 1.53 1.628 2.12 3.678 1.84 5.436-.24 1.578-1.63 2.443-3.15 3.043-1.51.595-3.26 1.045-5.06.194-1.81-.857-2.86-2.627-3.66-4.312-.85-1.779-1.59-3.695-.81-5.105z" fill-rule="evenodd" fill="#071729"/><path d="M1275 962h5v-10h-5v10zM90 952a5 5 0 1 0 0 10v-10zm1185 0H90v10h1185v-10z" fill="#071729"/><defs><clipPath id="A"><path fill="#fff" transform="translate(934 572)" d="M0 0h166v361H0z"/></clipPath></defs></svg>