<svg id="Layer_1" data-name="Layer 1" xmlns="http://www.w3.org/2000/svg" viewBox="0 0 387.39 371.15"><defs><style>.cls-1{fill:#071729;}.cls-2{fill:#79797a;}.cls-3{fill:#d8effa;}.cls-4{fill:#d2d1d1;}.cls-5{fill:#f28b6e;}.cls-6{fill:#556573;}.cls-7{fill:#f9d30b;}.cls-8{fill:#757677;}.cls-9{fill:#787879;}.cls-10{fill:#d6edf7;}.cls-11{fill:#f5b173;}.cls-12{fill:#d0e6f2;}.cls-13{fill:#707173;}.cls-14{fill:#7f93a1;}.cls-15{fill:#d2e6e7;}.cls-16{fill:#9dcce6;}.cls-17{fill:#687b8a;}.cls-18{fill:#9fb4c1;}.cls-19{fill:#163352;}.cls-20{fill:#797879;}.cls-21{fill:#78787a;}.cls-22{fill:#071732;}.cls-23{fill:#d2d2d1;}.cls-24{fill:#f2876e;}.cls-25{fill:#f29270;}.cls-26{fill:#f0816d;}.cls-27{fill:#c9e7f6;}.cls-28{fill:#1e2a37;}.cls-29{fill:#fbf8f5;}.cls-30{fill:#3d2912;}.cls-31{fill:#159747;}.cls-32{fill:#f3906f;}.cls-33{fill:#f5ab72;}.cls-34{fill:#f49c70;}.cls-35{fill:#f3a471;}.cls-36{fill:#f3936f;}.cls-37{fill:#bfdae7;}.cls-38{fill:#c1dbe9;}.cls-39{fill:#c1ddea;}.cls-40{fill:#bed7e4;}.cls-41{fill:#bed8e6;}.cls-42{fill:#fefefe;}.cls-43{fill:#432511;}.cls-44{fill:#f5a070;}.cls-45{fill:#767777;}.cls-46{fill:#f4956d;}.cls-47{fill:#f3a36f;}.cls-48{fill:#f4a371;}.cls-49{fill:#f6aa6f;}.cls-50{fill:#7a7978;}.cls-51{fill:#9bd0ef;}.cls-52{fill:#92caea;}.cls-53{fill:#f4a172;}.cls-54{fill:#abd2e7;}.cls-55{fill:#badbec;}.cls-56{fill:#010101;}.cls-57{fill:#c7e5f4;}.cls-58{fill:#bad7e7;}.cls-59{fill:#4f5b69;}.cls-60{fill:#f4a571;}.cls-61{fill:#f2aa71;}.cls-62{fill:#c8e6f4;}.cls-63{fill:#a4d2ee;}.cls-64{fill:#777878;}.cls-65{fill:#f59d71;}.cls-66{fill:#a0c6da;}.cls-67{fill:#a0c6db;}.cls-68{fill:#563520;}</style></defs><path class="cls-1" d="M21.34,183.11c3.59-22.17,7.16-44.33,8.81-66.77a267.43,267.43,0,0,1,5.39-39.52c4.56-20.15,12.7-38.17,30.31-50.46,13.84-9.65,29.6-13.2,46.12-14,19.7-1,39.18,2,58.77,3.26,26.4,1.64,50.76,9.89,74.25,21.16,26,12.49,53.49,19.63,81.71,24.7a126.8,126.8,0,0,1,35.44,11.39c20.94,10.67,31.53,28.84,36.14,51,5.08,24.36,1.63,48.33-4.31,72.09-.53,2.09-1.14,4.17-1.71,6.25-2.75-.59-2.08-2.9-2.23-4.67-.31-3.88.38-7.81-.54-11.66-1.24-6.62-2-13.35-4.43-19.71-.64-1.69-1.07-3.48-2.61-4.66-3.84-1.62-7.84-.64-11.75-.76-6.11-.17-12.23.5-18.31-.42-2.3-.79-3.41-2.69-4.45-4.67-.16-3.95.6-8.15-2.82-11.3.07-2.51,2.73-1.58,3.87-2.82-6.74-3.83-14.52-5.47-20.44-10.66-3.35-9.6-6.65-19.23-13.69-26.94-9.7-10.63-21.54-17.1-36-18.22-3.16-.24-6.26-.9-9.41-1.15-1.94-.15-3.61-.84-3.9-3.12a3.71,3.71,0,0,1,2.61-4.28,10.61,10.61,0,0,0,2.67-1.34,3.74,3.74,0,0,0,1.68-3.88,3.67,3.67,0,0,0-3.08-2.9,28.35,28.35,0,0,0-6-.34c-13.63-.32-27.28.66-40.92-.52-3.27-.82-6.59-.43-9.88-.44-17.69,0-35.39,0-53.07,0a33.09,33.09,0,0,0-7,.34,7.88,7.88,0,0,1-1.75,0c-10.59-2-21.34-.72-32-1.66a46.5,46.5,0,0,0-8.48.51,62.82,62.82,0,0,1,7.24-.45,3.83,3.83,0,0,1,4,2.3c1.42,4.24,4.75,5.42,8.57,6.08a33.1,33.1,0,0,0,5.49,2.32,3.62,3.62,0,0,1,2.84,4.09c-.18,2.25-1.71,3.1-3.68,3.32-6.42.74-12.85,1.38-19.22,2.37-7.41-2-9.52-1.28-12.49,4.46-5,5-11.58,8.19-15.82,14.15-2.7,3.79-5.09,7.71-7.42,11.72-.77,1.31-1,3.8-3.66,2.75-2.24-5.12-.58-10.52-1.2-15.75-.28-2.35,1.48-6.49-2.16-6.46-2.88,0-1.72,4.12-1.75,6.41-.13,10.82-.07,21.64,0,32.45,0,2.86.14,5.68,2.85,7.54a3.73,3.73,0,0,1,.33,1.8c-.64,2.54-2.78,2.61-4.75,2.79-2.82.25-5.66.05-8.49.13-5.16.15-5.76.63-5.79,5.82-.11,14.65,0,29.31,0,44a58.52,58.52,0,0,1-.23,7.49c-.32,2.4-1.48,4.29-4,4.34-10.61.22-21.25,1.3-31.82-.59-1.62-4.53-1.34-5.53,3-5.9s5.36-2.4,5.06-6.13a31.47,31.47,0,0,1,0-4.45c.23-4,.22-7.73-4.92-8.68C21.48,184.6,21.24,183.83,21.34,183.11Z" transform="translate(-13.35 -12.1)"/><path d="M345.36,329.2c6.77,1.64,13.65,3.07,19.94,6.14,5,2.44,10.81,4.76,11.25,11.47s-5.17,9.18-9.86,11.91c-15.49,9-32.57,13-50.06,15.75-22.19,3.42-44.28,7.57-66.79,8.51-30,1.25-59.47-1.64-88-11.66-23.79-8.37-48.34-10.06-73.29-9.12-13.17.49-26.29-.25-39-4.06a33,33,0,0,1-6.47-2.52c-6-3.25-6.14-8.71-.57-12.54,4-2.7,8.67-3.25,13-4.77,5.72,2.44,10.35,6.94,16.43,8.74,2,.58,3.81,2,6.35,1.23-.72-2.53-2.84-3.36-4.44-4.68-2.26-2-4.17-4.11-4.34-7.31.11-2.21,1.59-3.21,3.47-3.62,14.21-3.12,28.44-6.1,42.9-7.79a6.71,6.71,0,0,1,2.93.4c2.77,1.3,3.57,4,4.71,6.51a53.83,53.83,0,0,1,2.75,11.12c.57,4.24,2.85,5.09,6.66,3.63,6.51-2.49,12.9-5.15,18.35-9.63,1.67-1.37,3.32-2.76,5.59-3,24.56-.54,49.11-.1,73.66-.24,6.14,0,12.28.08,18.41,0,5.59-.11,6.23-1.11,4.26-6.19a9.15,9.15,0,0,1-1.08-3.79c.85-1.65,2.44-1.63,4-1.78,3.2.18,6.31,1.43,9.59.86,2.38.08,4.84-.27,7,1.25,2.36,4.38.65,9.19,1.46,13.73,1.23,5.19.39,6.81-4.62,8.53-3.75,1.29-7.63,2.16-11.36,3.92a187.51,187.51,0,0,0,25.63.44c1.84-.09,2.41-1.46,2.4-3.18,0-2.49-.56-5-.25-7.47a44.34,44.34,0,0,0,2.13-10c.19-2.18.59-4.26,3.2-4.87a29.41,29.41,0,0,1,6.76-.18,13.71,13.71,0,0,1,2.48.34c2.85,1.1,6,.14,8.84,1.08,2.92,1.43,2.91,4.45,3.75,7a52.57,52.57,0,0,0,1.82,5c2.24,3.82.23,5.86-3.12,7.25-4.07,1.68-8.39,2.68-12.54,4.56a194.52,194.52,0,0,0,25.07.55c2.57-.09,2.64-2.07,2.22-4-.63-2.9-2.2-5.58-2-8.68a22.54,22.54,0,0,0-.07-5.86c-.44-3.18.84-5,4.15-5.3C334.29,327.06,340.23,325.32,345.36,329.2Z" transform="translate(-13.35 -12.1)"/><path class="cls-2" d="M345.36,329.2a90.29,90.29,0,0,0-17-1.21c-3.74,0-5.15-2.21-5.65-5.6-1.88-12.84-3.91-25.64-3.87-38.68A259.17,259.17,0,0,0,315.93,245c2.32-9.27,2.31-18.72,2.13-28.18a10.49,10.49,0,0,1,3-7.66c3.15-3.42,6.06-7.05,9.12-10.56,8.92-10.26,13.17-22.54,15.36-35.7.93-2.94,1.87-5.88,5.95-3.62,9.44,0,18.88-.07,28.32,0,1.5,0,3.35-.86,4.51,1-1.86,1.88-4.31,1.58-6.58,1.58-3.39,0-4.81,1.61-4.74,4.89,0,1.66,0,3.32,0,5q0,40.35,0,80.69c0,7.62.37,15.26-1.4,22.77-5.6,15.36-9.9,31.27-19.6,44.86C349.78,323.08,346.87,325.64,345.36,329.2Z" transform="translate(-13.35 -12.1)"/><path class="cls-2" d="M18.57,209.2c10.32,0,20.64,0,31,.2,3.38.07,4.18-1.16,4.16-4.33-.13-17.47.06-34.95-.16-52.43-.05-4.1,1-5.71,5.23-5.29a98.06,98.06,0,0,0,11,.05c1.57,0,3.48.56,4.06-1.78,1.16-.3,1.54.58,1.62,1.34,1.26,11.85,6.77,21.81,13.72,31.14,2,6.29,1.28,11.68-4.78,15.57a5,5,0,0,0-1.95,6.56c1.18,2.79,1.33,5.39-.21,8.05-2.45,4.23,2,6.08,3.16,9.07.11,6.25-2.62,11.87-4.06,17.76a164.35,164.35,0,0,1-6.86,20.65c-4.73,2.54-3.61,7.29-4.1,11.32s3.73,2.23,5.27,3.84c1.21,2-.21,3.47-1.06,5-2.34,4.18-5.11,8.1-7.51,12.25-3.18,5.48-3,5.76,2.74,8.9,3,1.64,6.83,1.62,9,4.7-.48,3.38-2.95,5.75-4.4,8.63a53.35,53.35,0,0,0-3.23,5.05c-1.2,2.12-2.61,4.11-3.92,6.15S65,326,63.12,327.67c-1,.88-1.95,2-3.56,1.73a123.55,123.55,0,0,1-27.19-35.89c-9.1-17.87-15.43-36.73-17.32-56.74C14.3,228.91,13.11,221,13.39,213c.12-3.33,1.46-3.94,4.13-3.82C17.86,208.64,18.21,208.63,18.57,209.2Z" transform="translate(-13.35 -12.1)"/><path class="cls-3" d="M371.57,275.15q-.06-55.8-.18-111.61c0-2.65.91-3.52,3.46-3.39,3.15.17,6.31.07,9.47.09a80.13,80.13,0,0,1,6.23,24.92c.81,7.28-.21,14.62.72,21.89-2.95,8.93-3.4,18.39-6,27.43C381.33,248.26,376.4,261.68,371.57,275.15Z" transform="translate(-13.35 -12.1)"/><path class="cls-2" d="M18.57,209.2H17.52c-.1-1.23.86-3.38-.55-3.52-5.49-.53-2.94-4.34-3.12-7-.09-1.45.43-2.93.5-4.4.24-5.07-.6-10.76,7-11.22.21.25.45.73.63.71,7.41-.8,6.87,4.15,6.56,9-.09,1.48,0,3,0,4.46,0,7.3,0,7.5-7.15,7.92C18.15,205.37,18.7,207.32,18.57,209.2Z" transform="translate(-13.35 -12.1)"/><path class="cls-4" d="M74.9,343.14c2.64,1.54,6.84,3.4,5.28,6.4-1.39,2.66-5.36.06-8-1.07-6-2.61-12.29-4.86-16.68-10.16-.3-3.46,2.1-5.66,3.79-8.2,2.22,1.77,2.85,4.75,5,6.57C67.06,340.14,71,341.55,74.9,343.14Z" transform="translate(-13.35 -12.1)"/><path class="cls-5" d="M63.44,337.27c-2.2-1.91-3.88-4.12-4.11-7.16a3.68,3.68,0,0,0,.23-.71l2.9-2.31c3,.8,6.24.25,9.06,1.84,1.43,3-1.73,4.85-1.9,7.46C67.74,337.89,65.57,337.43,63.44,337.27Z" transform="translate(-13.35 -12.1)"/><path class="cls-6" d="M391.27,207.05c-2.11-2.71-.45-5.71-.58-8.56-.21-4.44-.11-8.89-.14-13.33,1.76,3.63.59,7.52,1,11.26.21,1.91-.8,4,.71,5.73Z" transform="translate(-13.35 -12.1)"/><path class="cls-7" d="M88.42,178.16c-8.89-9-12.87-20.3-14.63-32.54-.09-.5-.19-1-.28-1.52-2-2.27-1.72-5.07-1.22-7.6,1.11-5.54.32-11.73,5-16.18,5-12.76,13.62-22.43,25.27-29.5,3.35-3.16,7.13-5.29,11.92-5a73.62,73.62,0,0,1,19.22-2.19c1.61,0,3.36.34,3.52-2.26.14-2.38-.65-3.27-3.06-3.18-2.14.08-3.7-1.25-4.9-3-2.46-4.69-.48-8.5,4.87-8.88,5.77-.41,11.54.43,17.3.75h1c2.17-.66,4.4-.18,6.6-.33q29.49,0,59,0c1.81,0,3.66-.31,5.45.31,14.62,0,29.25.14,43.88.13,3.67,0,6.81.64,7.12,5,.28,3.89-2,5.89-5.71,5.93-2.2,0-2.24,1.17-2.33,2.82-.14,2.44,1.22,2.67,3.1,2.64,9.23-.2,18.24.93,26.71,4.84,18.38,8.5,29.11,23,33.29,42.62,3.75,6.27,1.63,12.87,1.11,19.38a72,72,0,0,1-2.28,8.53c-2.29,4.75-3.06,10.41-8.12,13.5-.16,0-.42,0-.46-.13-2.52-5.6-7.08-8.75-12.73-10.61-.15-2.47,1.31-4.42,2.19-6.54,10.53-25.46-8.76-54.09-36-53.65-4.16.07-5.46,1.59-5.44,5.6.12,19.62.06,39.23.05,58.85a79,79,0,0,1-.38,9c-.48,4.21.33,4.85,4.67,4.61,7.74-.44,15-2.74,22-5.83a2.19,2.19,0,0,1,1.58.48c1.48,2.28,1,4.85,1.06,7.34-.76,3.53,1.82,6.43,1.89,9.81-3.79,4.15-9.2,4.53-14.13,6-1.39.4-2.91.33-4.31.81-5.26.78-10.55.39-15.82.36-3.29,0-5.64,1-7.32,4a20.83,20.83,0,0,1-7.16,8c-2.12.72-3.07-.48-3.59-2.28s-.87-3.87-1.36-6c-.55,1.76-.09,3.41-.27,5-.21,1.9.46,4.31-1.9,5.19-2.08.78-2.91-1.56-4.34-2.51,0,3.34,3.51,5.84,2.13,9.46-6,6-13.66,8.88-21.61,10.82-4.58,1.12-6.15,3.33-6.12,8,.17,24.32.07,48.65.09,73,0,6.12.36,6.44,6.55,6.49,7.5.06,15-.18,22.48.1,4.19.15,8.42.71,10.33,5.42,1.66,2.65,3.62,5.11,4.2,8.35.47,2.6-.22,3.57-3,3.53-8.46-.13-16.92,0-25.38-.05l-72.66-.08c-2.72-.63-5.69.06-8.23-1.54a4.29,4.29,0,0,1-.88-2.25c-.15-4.11,2.45-6.71,5-9.33,3.39-3.07,7.42-4.18,11.93-4.14,7.32.07,14.63-.07,21.94.05,4,.07,5.72-1.38,5.71-5.51q-.1-37.65,0-75.31c0-3.7-1.57-5.35-5-6.08-7.75-1.65-14.71-5.2-21.28-9.52-2.49-1.63-5.11-3.16-6.65-5.88-1-2.64.86-4.89,1.05-7.38,3-3.16,1.56-6.82,1.18-10.37-.21-2-.49-3.92-1-6.43-1,4.89-.12,9.79-3.49,13.5-1.76,1.25-3.44,2.71-5.85,1.76-.57-.34-1.25-.67-1.51-1.25-3-6.69-8.69-7.08-14.95-6.7-5.11.31-10.27.24-15.15-1.81-4-4.18-.9-8.73-.7-13.14a8.12,8.12,0,0,1,4.27-4.24c3.31-1.05,6.58-.19,9.87.22,2.93.37,4.62-.2,4.52-3.9-.61-22.28-.14-44.57-.27-66.86,0-7-.37-7.48-7.35-7.08-15.08.87-25.9,8.45-33.05,21.55-3.65,6.32-3.95,13.27-3.78,20.29,0,1,.09,2,.11,3.06a43.13,43.13,0,0,0,8.63,19c1,1.34,2.63,2.61,2,4.73a3.3,3.3,0,0,1-2.23.94C95,171.23,91.93,175.09,88.42,178.16Z" transform="translate(-13.35 -12.1)"/><path class="cls-8" d="M77.29,120.32a67.07,67.07,0,0,0-3.78,23.78c-2.76.24-3.82-1-3.8-3.77q.12-20.91,0-41.83c0-2.62,1-3.42,3.53-3.43s3.36,1,3.44,3.51C76.91,105.83,75.8,113.12,77.29,120.32Z" transform="translate(-13.35 -12.1)"/><path class="cls-9" d="M329.36,151.45c.5-6.77,1.2-13.54.17-20.33l22.59,10.4c-1.91,3-4.82,1.1-6.63,2.59-2.47,1.58-6.43.91-7.34,4.86a6.57,6.57,0,0,1-3.3,3.11C332.94,152.55,331.05,152.83,329.36,151.45Z" transform="translate(-13.35 -12.1)"/><path class="cls-10" d="M151.43,67.11c-5.1,0-10.21.09-15.32.17-5.84.1-7.5,2-6.85,8-4.16.46-7.64.1-8.1-5.32a3.19,3.19,0,0,0-3.55-2.81c-.74-.56-.75-1.13,0-1.69,10.77-.66,21.5,0,32.22.84C150.52,66.32,151.14,66.38,151.43,67.11Z" transform="translate(-13.35 -12.1)"/><path class="cls-11" d="M337.57,148.29c.59-5.28,4.48-4.3,7.92-4.18,5.31,2.39,3.82,6.71,3.07,10.83.89,2.49-1.44,3.74-2.14,5.62a3,3,0,0,1-4.14-.46C342.32,155.53,341.83,151.16,337.57,148.29Z" transform="translate(-13.35 -12.1)"/><path class="cls-12" d="M84.07,84c-2.74-.14-5.61-.4-5.66-4-.06-4.11,3-4.58,6.19-4.6,3,0,5.54,1.1,5.49,4.34C90,83.33,87.2,84.13,84.07,84Z" transform="translate(-13.35 -12.1)"/><path class="cls-13" d="M48.22,201.16c.85,3.86-1.43,4.11-4.52,4.23-3.43.13-4.14-1.27-4.13-4.36,0-3.27.78-4.78,4.43-4.77S48.73,197.81,48.22,201.16Z" transform="translate(-13.35 -12.1)"/><path class="cls-14" d="M223.47,67.11h-65l0-.66q31.08,0,62.17.1A15.45,15.45,0,0,1,223.47,67.11Z" transform="translate(-13.35 -12.1)"/><path class="cls-15" d="M114.48,85.82l-11.92,5C103.93,84.45,108.77,82.42,114.48,85.82Z" transform="translate(-13.35 -12.1)"/><path class="cls-16" d="M346.29,160.44c.75-1.83,1.51-3.67,2.27-5.5a10.06,10.06,0,0,1,2.93,4.3c-2.93-.29-4.58,1-4.9,4A1.77,1.77,0,0,1,346.29,160.44Z" transform="translate(-13.35 -12.1)"/><path class="cls-17" d="M117.62,65.42v1.69h-8.42C112,65,114.9,65.76,117.62,65.42Z" transform="translate(-13.35 -12.1)"/><path class="cls-18" d="M158.42,66.44c0,.22,0,.44,0,.66h-6C154.28,65.47,156.41,66.47,158.42,66.44Z" transform="translate(-13.35 -12.1)"/><path class="cls-1" d="M252.31,323.19c-4.48-3.65-9.66-4.69-15.35-4.52-7.3.22-14.62-.06-21.93.11-2.78.06-3.67-.76-3.66-3.63q.15-40.63,0-81.26c0-2.81,1-3.5,3.55-4a61.25,61.25,0,0,0,25.59-11.58c2.28-.57,4.09.91,6.14,1.4,1.11.6,2.09,1.43,3.24,2,6.12,1.88,12.27,1.42,18.41.21,2.07-.4,4.12-1.23,6.15.15,1.91,2.24,1.54,5,1.56,7.58.1,15.69,0,31.38-.13,47.07.06,8.1-.39,8.6-8.32,8.89-1.63.06-3.28-.06-4.5,1.31-1.58,2.25-1,4.82-1.09,7.27-.43,9.12.85,18.28-.74,27.36-1,2.14-3.38.46-4.75,1.61Z" transform="translate(-13.35 -12.1)"/><path class="cls-19" d="M261.41,285.07c1.69-1.5,3.74-.8,5.62-.83,7.2-.09,7.2,0,7.53-7.27a215.62,215.62,0,0,1,5.54-28.16c.72-2.76,1.42-5.6,5.06-5.86,3.19-.14,6.25.9,9.4,1.1,2.77,1,5.42,3,8.57,1,4.41-.07,8.65-2.37,13.16-1,3.75,5.08,2.46,11.16,2.92,16.74,1.68,20.65,1,41.47,5,62,.57,2.9,1.54,4.46,4.16,5.23-2.51.14-3.43,1.27-2.66,3.81.65,2.12,1.55,4.35-.32,6.38-3.78,2.8-7.76,3-11.91.91-1.6-3.92-1.74-8.35-4.12-12-2.62-3.44-2.74-7.71-3.78-11.64a170.87,170.87,0,0,1-3.53-16.91c-.22-2.42-1-4.77-1-7.22.06-2.67-.71-5.24-.95-7.88a27.78,27.78,0,0,0-.72-6.92,15.34,15.34,0,0,1,0-3.77,3,3,0,0,1,.81-2.46c-1,.85-.75,2.09-.92,3.2-2.63,10.39-6,20.6-6.92,31.37a196.69,196.69,0,0,0-1,21.16c-2.6.53-1.76,2.64-2.07,4.3-.63,3.39.34,7.25-2.84,9.91-4.92,2.82-9.52,1.45-14-1.09q0-7.41-.07-14.82c-2.81-5.7-1.54-11.74-1.11-17.59.38-5.14.4-10.27.71-15.4.21-3.49-1.11-4.83-4.55-4.67C265.34,286.74,263.06,287,261.41,285.07Z" transform="translate(-13.35 -12.1)"/><path class="cls-20" d="M69.47,336.13l1.9-7c.35-2.93,2.81-4.4,4.43-6.46a19.34,19.34,0,0,0,4.83-6.13c1.34-2.14,3.9-3.11,5.11-5.38,2.23-2.3,3.62-5.49,7-6.6,6.76.54,13.59-.68,20.31.84,1.87,1.09,2.33,3,2.72,4.88a35.77,35.77,0,0,0,1.52,6.43c.73,1.95,1.49,3.89,2.09,5.9.26,1.12.68,2.24.08,3.38-15.71,1.37-31.06,4.78-46.43,8.05-1.76.37-2.72,1-2.69,2.83C69.48,337.27,69.22,337,69.47,336.13Z" transform="translate(-13.35 -12.1)"/><path class="cls-21" d="M303.23,298.06q3.06,14.51,6.13,29c-3-.47-6.14.67-9.08-.72.18-1.07,1.76-1.66,1-3.12-2-.09-1.68,2.13-2.82,2.85l-7.08-.08c-2-1-2-2.73-1.9-4.65,1-16.74,3.44-33.21,9-49.13a1.14,1.14,0,0,1,1.85,0l.07,4c-1,2.54-1.2,5,1.06,7,.23,2.69,1.34,5.27.84,8C298.82,295,298.83,295.08,303.23,298.06Z" transform="translate(-13.35 -12.1)"/><path class="cls-9" d="M261.41,285.07c3.31,0,6.63.14,9.94.1,2.17,0,2.56.64,2.44,2.94-.65,12.06-1,24.13-1.4,36.2l-6.86-.29c-1.44-1.36-4.35,1.38-5.13-1.84.07-10.62.11-21.24.23-31.85C260.65,288.57,260,286.65,261.41,285.07Z" transform="translate(-13.35 -12.1)"/><path class="cls-22" d="M313.49,339.09c4.05.74,7.93-.8,11.91-.91.94,3,2,6,2.78,9s.33,5.14-3.75,5c-8-.22-16-.05-24-.08-1.81,0-4.25.05-4.46-2.1s2.39-1.69,3.84-2.15c4.1-1.31,8.28-2.43,12.34-3.85C314.78,343.14,316.18,341.57,313.49,339.09Z" transform="translate(-13.35 -12.1)"/><path class="cls-22" d="M272.46,339.13c4.6,1.24,9.32,1,14,1.09,1.73,2.89.63,6.2,1.37,9.29.52,2.19-1.87,2.56-3.43,2.58-8.65.11-17.31.09-26,0-1.45,0-3.36-.3-3.47-2.1s1.72-1.58,3-1.92c4.16-1.1,8.38-2.08,12.41-3.55C272.62,343.71,276,342.54,272.46,339.13Z" transform="translate(-13.35 -12.1)"/><path class="cls-23" d="M147.37,333.17c2.73.47,6-1.4,8.11,1.77-6.29,6.11-13.93,9.94-22.07,12.86-6.45,2.3-7.25,1.77-8.3-5a2.15,2.15,0,0,1,2.31-2.6C134.81,339.88,141.23,337,147.37,333.17Z" transform="translate(-13.35 -12.1)"/><path class="cls-24" d="M147.37,333.17c-4.39,5.8-10.81,7.14-17.47,8-1.71.21-3.78-.61-4.79,1.64q-1.26-5.31-2.53-10.6c2.18-2,4.77-1.33,7.29-1.16,3.55,1.39,7.15,2.47,11,1.22,2.13,0,4.13-1.11,6.3-.79Z" transform="translate(-13.35 -12.1)"/><path class="cls-25" d="M130.7,332.1l-8.12.07c-1-2-2.09-4.09-3.14-6.14-.28-.95-.57-1.9-.85-2.86,3.35-2.28,6.9-1.62,10.47-.69a3.82,3.82,0,0,1,1.68,2C131.63,327.06,132.43,329.59,130.7,332.1Z" transform="translate(-13.35 -12.1)"/><path class="cls-26" d="M69.47,336.13c.28.27.57.53.85.78.76,2.64,2.87,4.29,4.58,6.23-5,.31-8.63-2-11.46-5.87C65.15,335.31,67.46,336.54,69.47,336.13Z" transform="translate(-13.35 -12.1)"/><path class="cls-27" d="M298.47,326.09c.29-1.64-1.09-3.85,1.11-4.79,1.15-.5,3.11-.95,3.75,1,.86,2.61-.28,4-3.05,4.05Z" transform="translate(-13.35 -12.1)"/><path class="cls-28" d="M260.4,322.18c1.27,1.83,3.74.35,5.13,1.84-3.13.8-6-.61-9.06-.89C257.51,321.7,259.05,322.32,260.4,322.18Z" transform="translate(-13.35 -12.1)"/><path class="cls-29" d="M316.29,244.05a43.39,43.39,0,0,1-13.62,2c-.06-.16-.21-.37-.16-.47,6.26-11.62,1.48-23.94,2-35.9.18-4.11,1.79-8.6-.63-12.68.33-3.8,3.68-4.54,6.19-6.14,4.5,2.16,7,.18,10.19-3.36,7.47-8.42,14.05-17.26,18.28-27.75a3.28,3.28,0,0,1,1-1,2.06,2.06,0,0,1,2.61.6l4.13,1.07.3,2.77c-1.74,17.53-10,31.89-22.25,44a16.66,16.66,0,0,0-5.29,14.17,89.15,89.15,0,0,1-.4,17.43A7.79,7.79,0,0,1,316.29,244.05Z" transform="translate(-13.35 -12.1)"/><path class="cls-30" d="M113.57,306.14c-7.35-.35-14.76.94-22.06-.75a14.38,14.38,0,0,1-13.07-3.33c-3.31-1.45-6.68-2.78-9.91-4.38-6.54-3.22-6.59-3.43-2.8-9.84,3.28-5.53,6.66-11,10-16.49-.07-2.09,1.41-3.47,2.31-5.13a130.35,130.35,0,0,1,9.06-11.86c2.56-2.79,4.36-5.81,4.22-9.75a4.73,4.73,0,0,1,1.25-3.68,4.19,4.19,0,0,1,3.29-.94c6.69,1.32,13.61-.21,20.26,1.57,2.11,8.29,6.24,15.84,8.76,24a180.35,180.35,0,0,1,7.24,31.9c.71,5.88.55,6.13-5.42,7.84C122.32,305.53,118.05,307.53,113.57,306.14Z" transform="translate(-13.35 -12.1)"/><path class="cls-31" d="M116.44,242.42c-6.77-.52-13.6.24-20.34-1a4.1,4.1,0,0,0-3.78.69c-1.13.26-2.51-1.26-3.31,1.27-1.33,4.21-3.76,8-5.77,12-1,1.95-2.15,3.77-4.75,3.7-2-.42-3.87-1-4.92-3q4.49-15.25,9-30.52c.79-2.7,1.48-5.44,2.21-8.17.3-.16.64-.38.93-.3,6.65,1.82,11.14.5,12.58-7.29.61-3.28,4.52-4.05,7.38-5.35a8.75,8.75,0,0,1,3.84-.22c5.4,1.67,10.85,3.29,16.07,5.41,6.86,2.78,13.2,2.74,19.58-1.08,1.67-1,3.39-2.18,5.52-2.1,1.82-.08,2.76-2.33,4.77-1.95a4.5,4.5,0,0,1,3.93,4c2,2.43-.56,3.87-1.23,5.73-6,8.5-14.69,12-24.53,13.27a36,36,0,0,1-6,0c-5.79-.16-5.79-.17-6.78,5.74a40.86,40.86,0,0,1-1.69,7.79A2.5,2.5,0,0,1,116.44,242.42Z" transform="translate(-13.35 -12.1)"/><path d="M105.82,205c-3.82,2.44-7.35,4.66-8,10.1-.45,3.54-4.3,4.67-7.93,3.92a45,45,0,0,1-5.12-1.68c-4.67-2.89-6.41-6.46-2.79-11.42,1.15-1.57.49-2.8-.65-4.35-2-2.73-1.76-6.39,1-7.92,6.61-3.65,7.35-9,6.11-15.49,2.35-7,8-8.06,14.3-7.74.68-.26,1.34-.54,2-.74,9.65-1.86,14.39,1.13,16.73,10.55-.27,1.89-1.74,2.6-3.24,3.28-1.41,1.25-3.67.85-4.64,3.28-2,5.1-2.57,5.05-6.72.79-2.11,2.69-.19,5,.54,7.28C107.75,198.38,109,202.05,105.82,205Z" transform="translate(-13.35 -12.1)"/><path class="cls-32" d="M73.57,256l5,2.24c4.08,3.06.44,6-.13,9-.79,1.44-1.28,3.08-2.74,4.06-7.25-.25-7.25-.25-5.89-6.88.07-.32.38-.8.27-.91C64.75,258,71.62,258.16,73.57,256Z" transform="translate(-13.35 -12.1)"/><path class="cls-33" d="M78.44,302.06l13.07,3.33c-.69,3-3.55,4.41-5.18,6.73-3.21,1-6.5.52-9.75.31-1.32-.08-3.13-.06-3.09-2.26A31.51,31.51,0,0,1,78.44,302.06Z" transform="translate(-13.35 -12.1)"/><path class="cls-34" d="M81.5,317.18a13.34,13.34,0,0,1-4.93,6A10,10,0,0,1,69,324.4c-1.53-.36-3.45-.71-2.43-3.16a22,22,0,0,1,3.93-6.13C74.27,315.06,78.06,315.21,81.5,317.18Z" transform="translate(-13.35 -12.1)"/><path class="cls-35" d="M81.5,317.18c-3.81,0-7.67.25-11-2.07a10.78,10.78,0,0,1,3-4.94c2.31,2,5.05.73,7.59,1,1.8.17,3.63-.05,5.25,1C85.6,314.65,82.59,315,81.5,317.18Z" transform="translate(-13.35 -12.1)"/><path class="cls-36" d="M66.52,321.24c2.67,4.12,6.79.88,10,2l-5.2,6c-3-.62-6.65,1.64-8.91-2.08Z" transform="translate(-13.35 -12.1)"/><path class="cls-37" d="M47.37,229.53c0,2,.16,3.78-2.61,3.89S41.59,232,41.6,229.7c0-2.07.32-3.46,2.92-3.47S47.56,227.59,47.37,229.53Z" transform="translate(-13.35 -12.1)"/><path class="cls-38" d="M47.35,303.57c.07,2,.14,3.68-2.64,3.76-3,.09-3.09-1.57-3.1-3.77s.36-3.42,3-3.41S47.52,301.62,47.35,303.57Z" transform="translate(-13.35 -12.1)"/><path class="cls-39" d="M47.34,244.21c.06,2.3.18,4-2.62,4.08-3,.09-3.1-1.54-3.1-3.75s.32-3.45,2.93-3.42S47.61,242.5,47.34,244.21Z" transform="translate(-13.35 -12.1)"/><path class="cls-37" d="M31.37,259.26c0,2,.22,3.79-2.56,3.92s-3.26-1.32-3.2-3.63c.05-2,.2-3.5,2.84-3.5S31.6,257.27,31.37,259.26Z" transform="translate(-13.35 -12.1)"/><path class="cls-37" d="M47.37,260c.22,2-.45,3.14-2.95,3.16-3.14,0-2.68-2.05-2.8-4-.15-2.39.92-3.15,3.21-3.1C47.65,256.12,47.36,258,47.37,260Z" transform="translate(-13.35 -12.1)"/><path class="cls-39" d="M25.68,244.52c-.18-1.94.12-3.39,2.79-3.4s2.93,1.32,2.93,3.42-.13,3.84-3.09,3.75C25.5,248.21,25.62,246.51,25.68,244.52Z" transform="translate(-13.35 -12.1)"/><path class="cls-37" d="M31.36,230.09c.22,2.09-.41,3.32-2.93,3.32-3.15,0-2.69-2.07-2.8-4-.14-2.38.92-3.17,3.22-3.12C31.69,226.31,31.38,228.2,31.36,230.09Z" transform="translate(-13.35 -12.1)"/><path class="cls-40" d="M31.39,274c0,2.09,0,3.94-2.64,4.05-2.41.1-3.24-1.11-3.14-3.36.09-1.86-.16-3.72,2.65-3.77C30.66,270.87,31.63,271.87,31.39,274Z" transform="translate(-13.35 -12.1)"/><path class="cls-41" d="M41.66,274.37c-.22-2.19.4-3.46,2.94-3.45,2.7,0,2.79,1.63,2.8,3.6s-.44,3.58-3,3.53S41.54,276.34,41.66,274.37Z" transform="translate(-13.35 -12.1)"/><path class="cls-41" d="M41.65,288.92c-.13-2.12.38-3.62,2.92-3.59S47.35,287,47.4,289s-.4,3.46-3,3.44S41.51,290.9,41.65,288.92Z" transform="translate(-13.35 -12.1)"/><path class="cls-1" d="M118.43,240.91c.68-4.39,1.38-8.78,2-13.18.22-1.45.54-2.65,2.42-2.22,14,3.19,25.12-2.49,35.24-11.31a60.52,60.52,0,0,0,30.08,15.55c3.42.69,4.06,2.07,4,5.23q-.18,39.36,0,78.74c0,3.76-.74,5.31-4.88,5.1-7.12-.35-14.28,0-21.42-.14-5.33-.11-10.22.83-14.41,4.32-3.34,1.66-6.65,2.69-9.82-.38-1.46-4.39-.66-8.92-.77-13.39-.14-5.16-.13-10.33,0-15.49.09-3.84-.38-6.87-5.2-7.39C132.28,286,132,283,132,280.24c-.13-6.49,0-13-.05-19.49,0-4.33-.09-8.66,0-13,.09-3.62-1.46-5-5.07-5C124,242.71,120.77,243.6,118.43,240.91Z" transform="translate(-13.35 -12.1)"/><path class="cls-1" d="M294.52,174.37c-8.13,5.9-17.5,6.51-27.06,6.4-1.78,0-2.23-.83-2.07-2.5,2.32-24.39.59-48.84,1-73.26.06-3.88,1-4.93,4.91-4.92,33.08,0,52.14,31.28,36.86,60.7a12.53,12.53,0,0,0-.53,1.37c-3,2.4-5.61.44-8.33-.57-4.24-1.58-5-1.08-4.83,3.24,0,.49.34,1.31.12,1.43C289.7,169,294.08,171.68,294.52,174.37Z" transform="translate(-13.35 -12.1)"/><path class="cls-1" d="M121.5,180.23c-1.76-2.54-4.1-4.62-5.42-7.54s-4.29-2.58-6.91-2.45c-1.94.1-3.86.42-5.79.63-2.21-4.88-1.2-10.07-1.35-15.13-.19-6.47-.15-6.55-6.56-7a8.82,8.82,0,0,1-4.67-1.38l-.22-3c2.87-1.77,3.64-4.41,3.52-7.65a125.19,125.19,0,0,1,.19-13.42c6.62-15.18,24.57-25.3,40.52-23.1,3.37.47,2.33,2.68,2.33,4.39.07,19.1,0,38.2.05,57.3,0,5.31-.38,10.66.9,15.87.65,2.64-.34,3.23-2.68,3.11C130.77,180.55,126.14,180.41,121.5,180.23Z" transform="translate(-13.35 -12.1)"/><path class="cls-42" d="M212.44,148.07c0,12.81,0,25.61,0,38.41,0,6.75-3.37,10.72-9,10.8s-9.11-3.87-9.12-10.61c0-19.45-.09-38.91.07-58.36,0-3.89-1-4.75-4.41-2.94a29.05,29.05,0,0,1-6,2.43c-4.28,1.14-7.59-.61-9.59-4.34s-1.75-8.3,2-10.22c9.57-5,18.52-11.81,30.32-11.11,4.32.26,5.87,1.83,5.83,6C212.36,121.47,212.44,134.77,212.44,148.07Z" transform="translate(-13.35 -12.1)"/><path class="cls-29" d="M295.35,245.16l-9.93-1c-5.28-.86-6.61-2.32-6.19-7.74.31-4.08.67-8.19,1.37-12.23.6-3.41.12-5-3.54-2.91-1.21.67-2.54.54-3.84.66-6.48,2.25-13.09,3.39-20,2.3-1.77-.28-3.57-.52-4.9-1.95-1.62-2.84.14-5,1.43-7.27,1.56-1.86,3.73-2.05,5.91-2,9.34.12,16.32-4.88,23-10.52a4.76,4.76,0,0,0,1.46-5.41c6.2-1.53,12.58-2.53,18.19-5.88,3,.61,4.95,2.17,5.16,5.43-1.9,3-2.4,6.31-2.77,9.85-.85,8.07-3.1,15.92-4.95,23.81C294.63,235.24,293.55,240.13,295.35,245.16Z" transform="translate(-13.35 -12.1)"/><path class="cls-3" d="M150.64,206.41c-8,6.17-16.41,8.93-26.32,4.06-4.72-2.32-10-3.54-15-5.25-1.5-2.61-.63-4.31,2.12-5.08a6.85,6.85,0,0,0,4.25-2.89,3.17,3.17,0,0,1,2.65-1.39,67.83,67.83,0,0,0,19.73,1.26c4.59-.31,8,.6,9.81,5.18A23.77,23.77,0,0,0,150.64,206.41Z" transform="translate(-13.35 -12.1)"/><path class="cls-43" d="M294.52,174.37a32.55,32.55,0,0,1-3.59-3.34c-.78-1-1.79-2.18-1-3.6s2.29-.71,3.66-.33c.15-2.58-2.78-5-.12-7.09s5.07-.33,7.36,1a11.21,11.21,0,0,0,6.74,1.15c7.77-1,10.76,4,12.6,10.26,3.12,3.63,2.83,6.24-1.29,11.82a1.5,1.5,0,0,1-2-.42c-.68-1.2-1.39-2.14-3.06-1.43-2,.85-3.47.1-4.34-1.86-.25-3.16-1.55-4.67-5.09-4.15-3.1.46-6.33.33-9-1.91C295.16,174.42,294.85,174.39,294.52,174.37Z" transform="translate(-13.35 -12.1)"/><path class="cls-3" d="M280.17,197c3.62,1.28,2.56,3.47.67,5.17-7.32,6.55-15,12.51-25.63,12a7.56,7.56,0,0,0-4.74,1,5.13,5.13,0,0,1-2-1.59c-.92-1.32-.81-2.42.68-3.23,1.88-2.29,4.33-4.31,5.53-6.91,2.54-5.44,6.41-7,12.13-6.41C271.24,197.58,275.73,197.1,280.17,197Z" transform="translate(-13.35 -12.1)"/><path class="cls-2" d="M318.19,184.11c1.59-3.74,4.67-7.22,2-11.69,2.91-4.07,4.81-8.66,6.91-13.15,4.07-2.22,8.15-2.47,12.24,0-1.76,8.2-6.42,14.85-11.48,21.24-2.79,3.51-6.13,6.59-8.76,10.21-2.89,4-5.5,4-8.54.44-.59-1.09.08-1.69.86-2.26C314.85,189,315.87,185.6,318.19,184.11Z" transform="translate(-13.35 -12.1)"/><path class="cls-44" d="M311.39,189.21c-.28.64-.55,1.28-.82,1.92l-6.13,5c-.39.36-.72.35-1-.12l-5.07-4.85c-2-2.66-3.52-5.44-2.91-8.93,4.84-2.62,10-1.37,15-1.12,1.18,1.57,2.3,1.52,3.59,0,.64-.73,1-2.47,2.57-1.36,1.1.79.7,2.1.64,3.24C317.07,186.75,314.66,188.39,311.39,189.21Z" transform="translate(-13.35 -12.1)"/><path class="cls-45" d="M90.8,147.32c12.51.36,12.51.36,12.52,13.08,0,3.5,0,7,.05,10.48-.41.05-.62-.1-.65-.46C97.2,163.52,92,156.44,90.8,147.32Z" transform="translate(-13.35 -12.1)"/><path class="cls-46" d="M249.19,210.43c-.38.95-1.19,1.89-.06,2.87.68,3.08-.8,5.27-2.95,7.18-2.34.41-4-1-5.68-2.19-1.77-3.64-3.91-7.15-4.05-11.33,2-.53,2.19,1,3,1.72,1.11,1,1.21,3.69,3.26,2.95,1.53-.54.63-2.64.74-4,.23-2.89-.46-5.85.58-9.24,3.27,2.15,2.08,5.57,3.21,8C247.82,207.74,246.94,209.83,249.19,210.43Z" transform="translate(-13.35 -12.1)"/><path class="cls-47" d="M118.35,195.86c-.59.52-1.19,1-1.79,1.54-3-2.28-7.06-1-10.07-3.18a3.66,3.66,0,0,1-2.27-4c.13-1.95-.12-4.41,2.22-5,2.55-.62,2.47,2,3.16,3.53a16.12,16.12,0,0,0,1.62,2.22c1.26-4,1-9.23,7-7.51C119.49,187.62,116.17,191.76,118.35,195.86Z" transform="translate(-13.35 -12.1)"/><path class="cls-48" d="M310.47,181.11c-4.85,2.47-10,.46-15,1.12l0-7.76c4.09.3,8.17,1.25,12.27.15,2.24-.59,3,.34,2.8,2.53C310.41,178.46,310.49,179.79,310.47,181.11Z" transform="translate(-13.35 -12.1)"/><path class="cls-49" d="M159.34,208.47l-3.93-4c2.6-5.27,1.38-11.41,4.65-16.89.82,5.88,1.74,11.74,2.42,17.63C162.7,207.17,161.11,208.07,159.34,208.47Z" transform="translate(-13.35 -12.1)"/><path class="cls-50" d="M94.29,123.22c2.55,6.47,1,13.18.92,19.76,0,2.28-3,.79-4.63,1.31C89.79,136.91,90.47,129.79,94.29,123.22Z" transform="translate(-13.35 -12.1)"/><path class="cls-51" d="M142.38,323.21l9.15-.21c-1.84,2.61-4,5-4.36,8.43-1.29,2.53-3.61,1.82-5.7,1.84-2.14-2.76-.89-6.69-3.24-9.38C139.31,321.78,140.78,322.13,142.38,323.21Z" transform="translate(-13.35 -12.1)"/><path class="cls-52" d="M339.35,159.24l-12.24,0,2.25-7.82,5.94,0c1.35,2.63,4.12,4.53,4.12,7.87Z" transform="translate(-13.35 -12.1)"/><path class="cls-53" d="M339.42,159.27c-1.72-2.44-4.57-4.3-4.12-7.87.75-1,1.51-2.07,2.27-3.11,1.51.61,3.06,1.12,4.51,1.86s3.21,1.42.61,3.21c-1.65,1.14.38,1.8.87,2.56,1.23,1.91.88,3-1.4,3.45Z" transform="translate(-13.35 -12.1)"/><path class="cls-8" d="M273.22,221.92l9.4-4.7c-.71,6.5-1.33,12.35-2,18.2-.45,4-.25,7.7,4.78,8.72-3.11-.36-3.36,2.1-3.82,4.09q-2.69,11.58-5.13,23.22a13.79,13.79,0,0,1-1.92,5.52c0-16.72.05-33.44,0-50.15C274.54,225.13,275.34,223.08,273.22,221.92Z" transform="translate(-13.35 -12.1)"/><path class="cls-54" d="M251,246.33c-1.5-.24-2.49-1.09-2.38-2.64a2.38,2.38,0,0,1,2.59-2.43,2.31,2.31,0,0,1,2.36,2.63C253.51,245.48,252.52,246.23,251,246.33Z" transform="translate(-13.35 -12.1)"/><path class="cls-55" d="M246.18,220.48l2.95-7.18c1.07.22,1.24,1.06,1.34,1.95-.31,2.46-2.31,4.41-2.11,7Z" transform="translate(-13.35 -12.1)"/><path class="cls-56" d="M303.43,196l1,.12c1.94,2.55,3.16,4.93,1.75,8.52-.95,2.41-.15,5.52-.07,8.32.18,5.95,0,12,.74,17.85s.44,11.06-4.19,15.28c-2.89,3.24-5.07.85-7.32-.94-2.91-3-3.08-6.3-2-10.32,2.25-8.45,3.92-17.05,5.79-25.6a24.09,24.09,0,0,0,.43-7.35C299.32,199.21,301.31,197.44,303.43,196Z" transform="translate(-13.35 -12.1)"/><path class="cls-57" d="M303.23,298.06c-2-.12-4.81,1.54-4.89-2.59,0-2.92.33-4.94,3.94-4.17C302.59,293.55,302.91,295.81,303.23,298.06Z" transform="translate(-13.35 -12.1)"/><path class="cls-58" d="M301.44,283.27c-1.26.07-3,.56-2.93-1.41s-1.67-4.74,1.87-5.61C301.58,278.47,301.43,280.88,301.44,283.27Z" transform="translate(-13.35 -12.1)"/><path class="cls-59" d="M300.31,272.26l-1.85,0c0-1,.09-2.25,1.16-2.2C301,270.1,300.21,271.45,300.31,272.26Z" transform="translate(-13.35 -12.1)"/><path class="cls-60" d="M116.29,317.25c-1.2-1.84-1.23-4-1.64-6.08,3.93-3.73,8.39-2.69,12.88-1.44,1.95,2,2.68,4.17,1.09,6.73C124.59,317.94,120.51,318.73,116.29,317.25Z" transform="translate(-13.35 -12.1)"/><path class="cls-34" d="M116.29,317.25a42.65,42.65,0,0,1,12.08-1.07c2.1,2.08,3,4.33,1,7H118.59C117.82,321.2,117.06,319.23,116.29,317.25Z" transform="translate(-13.35 -12.1)"/><path class="cls-61" d="M127.43,310.18c-4.27.17-8.62-.57-12.78,1l-1.08-5c4.23-1.32,8.63-1.57,13-2C129,305.86,129.16,307.89,127.43,310.18Z" transform="translate(-13.35 -12.1)"/><path class="cls-62" d="M303.55,310.32c.21,1.71-.4,3-2.94,2.82-3-.17-2-2.37-2.2-4-.21-1.9.3-3.05,2.63-3C304,306.16,303.45,308.12,303.55,310.32Z" transform="translate(-13.35 -12.1)"/><path class="cls-63" d="M138.33,324.11c2.26-.1,3.3.91,3.16,3.25-.12,2,0,3.94,0,5.91-3.74,1-7.46,1.81-10.77-1.17l-.84-7.22C132.44,322,135.32,322.35,138.33,324.11Z" transform="translate(-13.35 -12.1)"/><path class="cls-9" d="M138.33,324.11c-2.85,0-5.73-.28-8.48.77-.15-.57-.31-1.14-.47-1.7.39-2.44-.8-4.65-1-7,.35-2.1-.46-4-.94-6a12.15,12.15,0,0,0-.86-6c3.92-.66,5-2.28,4.22-6.69-2.75-15.94-6-31.65-13.37-46.22-1.45-2.86-.48-5.91-1-8.83l2-1.51c3.65,0,7.31.25,10.95.06,3.08-.16,4,1,4,4-.13,11.95.06,23.91-.12,35.86-.05,3.39.84,5.05,4.42,4.51,4-.59,4.66,1.54,4.62,5-.1,10.95.06,21.9.12,32.86C141.05,323.6,139.48,322.93,138.33,324.11Z" transform="translate(-13.35 -12.1)"/><path class="cls-64" d="M78.46,267.29c-.58-3,2.39-6,.13-9,2.33-.06,2.8-2,3.59-3.6,2.45-4.85,4.83-9.73,7.29-14.71,1.59-.23,1.56,1.91,2.85,2.11,1,5.46-.89,9.73-4.74,13.68C84.18,259.25,81.48,263.42,78.46,267.29Z" transform="translate(-13.35 -12.1)"/><path class="cls-65" d="M106.49,194.22c2.15,0,4.3,0,6.45,0s3.41,1,3.62,3.18c0,2.29-.84,4-3.35,3.74-3.21-.29-4,1.42-3.88,4.08l-3.51-.22C106.84,201.46,106.38,197.82,106.49,194.22Z" transform="translate(-13.35 -12.1)"/><path class="cls-66" d="M293.73,129.85c-2.61.9-3.34,4.27-4.67,4-1.63-.3-2.87-2.72-4.28-4.22,1.47-1.33,3-3.71,4.41-3.69S291.19,129.16,293.73,129.85Z" transform="translate(-13.35 -12.1)"/><path class="cls-67" d="M123.36,153.31c-1.64,1.75-2.85,4.12-4.38,4.35-1.23.19-4.15-2.4-4-3.43.24-1.71,2.15-4.14,3.71-4.43S121,152.76,123.36,153.31Z" transform="translate(-13.35 -12.1)"/><path class="cls-68" d="M311.39,189.21c1.59-2.41,5-3.08,5.88-6.19l.92,1.09C316.52,186.6,316.57,191.4,311.39,189.21Z" transform="translate(-13.35 -12.1)"/></svg>