<svg width="1280" height="293" viewBox="0 0 1280 293" fill="none" xmlns="http://www.w3.org/2000/svg">
<path fill-rule="evenodd" clip-rule="evenodd" d="M428.342 7.63579C428.659 11.3403 429.187 20.4349 429.514 27.8449C430.251 44.4933 430.384 45.0142 433.803 44.619C436.456 44.3126 436.466 44.2787 436.306 36.3278C436.218 31.9366 435.834 22.1694 435.454 14.6217L434.762 0.899414H431.264H427.765L428.342 7.63579ZM453.607 2.64588C452.418 6.85637 448.666 42.5911 449.253 44.118C449.951 45.9343 453.464 46.4293 454.442 44.8485C455.074 43.8296 459.955 6.94818 459.962 3.14487C459.965 1.32555 459.409 0.899414 457.033 0.899414C455.095 0.899414 453.934 1.49122 453.607 2.64588ZM404.019 3.33449C403.075 4.47019 403.8 9.015 407.486 25.0406C412.106 45.134 413.043 47.8046 415.468 47.8046C419.127 47.8046 419.003 45.2507 414.345 24.7482C411.803 13.5528 409.273 3.83148 408.723 3.14487C407.397 1.48922 405.489 1.56606 404.019 3.33449ZM284.135 4.49315C280.825 6.80747 279.689 10.48 281.029 14.5328C282.85 20.0397 286.141 21.0716 300.668 20.6884C312.93 20.3661 313.195 20.3102 315.563 17.5597C318.814 13.7844 318.796 8.61481 315.519 5.34543C313.159 2.98919 312.554 2.89538 299.743 2.89538C289.146 2.89538 285.953 3.22272 284.135 4.49315ZM479.208 6.13882C478.365 7.1877 475.168 17.0887 467.458 42.5242C465.947 47.5161 467.284 50.4672 470.586 49.4213C472.15 48.9263 473.85 44.601 478.868 28.3449C482.34 17.0957 484.921 7.21664 484.605 6.39131C483.905 4.57199 480.591 4.4173 479.208 6.13882ZM310.794 11.6277C311.109 13.8452 310.971 13.8732 299.513 13.8732C289.799 13.8732 287.813 13.6137 287.299 12.2754C286.257 9.56589 289.068 8.8683 299.975 9.12977C310.013 9.37128 310.488 9.48106 310.794 11.6277ZM379.305 11.4491C378.75 12.8922 392.975 48.6269 395.285 51.5949C396.659 53.3593 400.373 52.6887 400.771 50.6049C401.09 48.9373 386.723 13.5528 384.744 11.1287C383.316 9.38026 380.026 9.57387 379.305 11.4491ZM502.737 15.6196C500.131 18.5837 483.142 53.0919 483.645 54.4012C484.379 56.3124 487.06 56.9511 488.687 55.6038C490.698 53.9382 507.963 19.3481 507.963 16.9849C507.963 15.94 507.251 14.8123 506.381 14.479C504.301 13.6826 504.494 13.6217 502.737 15.6196ZM357.309 23.4179C356.46 25.6254 357.418 27.3918 369.364 45.6449C380.1 62.0507 381.775 63.6236 384.28 59.6536C385.379 57.9121 384.928 57.1097 369.616 33.5833C363.992 24.9428 361.447 21.857 359.947 21.857C358.826 21.857 357.639 22.5596 357.309 23.4179ZM523.325 30.0485C516.528 37.5792 498.869 62.0428 499.156 63.5298C499.374 64.6615 500.417 65.2692 502.138 65.2692C504.393 65.2692 506.665 62.7863 517.446 48.5431C524.891 38.705 529.968 31.1013 529.773 30.0804C529.274 27.4677 525.67 27.4507 523.325 30.0485ZM71.4137 37.8287C69.7228 38.9095 67.7349 40.9225 66.995 42.3027L65.6501 44.8106H43.7703C19.9776 44.8106 17.4588 45.2916 15.1859 50.2716C13.675 53.5809 13.675 56 15.1859 59.3093C17.6928 64.8022 17.3448 64.7703 75.4375 64.7703C123.068 64.7703 128.984 64.9409 128.984 66.3121C128.984 67.1604 130.089 68.9568 131.439 70.3041C133.827 72.6882 134.298 72.7541 148.938 72.7541H163.983V75.3259C163.983 76.8379 165.187 79.1003 166.905 80.8148C169.627 83.5303 170.356 83.7319 177.482 83.7319C184.607 83.7319 185.336 83.5303 188.058 80.8148C189.776 79.1003 190.981 76.8379 190.981 75.3259V72.7541H206.057H221.133L224.056 69.837C227.986 65.9149 227.986 61.6296 224.056 57.7075C221.255 54.9122 220.755 54.7904 212.057 54.7904C203.733 54.7904 202.98 54.6298 202.98 52.8504C202.98 51.7825 201.895 49.6498 200.568 48.1099C198.271 45.4413 197.685 45.2936 188.124 44.9683C178.757 44.6499 177.985 44.4643 176.482 42.1759C175.597 40.8287 173.435 38.8507 171.678 37.7808C168.629 35.9256 166.321 35.8368 121.485 35.8497C76.4464 35.8617 74.3596 35.9445 71.4137 37.8287ZM337.384 38.195C337.065 39.0253 336.954 40.3526 337.138 41.144C337.322 41.9364 343.761 49.3904 351.448 57.7095C361.801 68.9139 365.947 72.7591 367.447 72.5445C368.664 72.3709 369.598 71.3659 369.789 70.0246C370.03 68.3261 366.718 64.1615 355.902 52.5599C342.124 37.7828 338.595 35.0454 337.384 38.195ZM167.315 42.9204C168.649 43.5272 170.604 45.6599 171.658 47.6609L173.575 51.2975L184.015 51.5849C189.758 51.7426 194.912 52.3274 195.469 52.8853C196.025 53.4432 196.481 55.3353 196.481 57.0898V60.2793L205.98 60.5278C218.037 60.8432 219.979 61.2963 219.979 63.7912C219.979 64.879 219.866 65.8541 219.729 65.9589C219.592 66.0646 211.38 66.401 201.48 66.7073L183.481 67.2652L183.72 71.1683C184.031 76.259 182.645 77.747 177.61 77.729C171.786 77.7071 170.859 76.8319 171.195 71.6743L171.482 67.2652L154.555 66.9908C144.223 66.8231 137.117 66.2932 136.316 65.6295C135.579 65.0187 135.246 63.5747 135.558 62.3362C135.881 61.0518 135.526 59.6446 134.706 58.966C133.679 58.1157 118.202 57.7315 77.3954 57.5429L21.4905 57.2854V54.7904V52.2955L45.8472 51.7965L70.2038 51.2975L71.8457 47.8325C72.7487 45.9264 74.6125 43.7997 75.9875 43.1061C79.3313 41.4205 163.64 41.2488 167.315 42.9204ZM528.462 58.9191C516.432 70.1524 513.463 73.4487 513.463 75.5704C513.463 80.9266 516.583 79.1172 532.158 64.7323C540.574 56.959 547.834 49.9462 548.29 49.1488C549.303 47.3794 547.369 44.7897 545.089 44.8615C544.193 44.8905 536.712 51.2157 528.462 58.9191ZM426.968 57.8912C411.843 60.1985 395.735 67.4019 383.549 77.3099C378.88 81.1052 377.912 82.4116 378.163 84.5732C378.662 88.8605 381.481 88.3206 387.726 82.7399C394.31 76.8568 410.186 68.6314 419.968 66.0347C429.973 63.3791 450.14 63.6326 460.265 66.5417C492.317 75.752 514.893 102.045 518.942 134.878C520.327 146.115 518.909 158.104 514.837 169.558C510.829 180.836 510.711 182.944 514.067 183.332C516.356 183.598 516.949 182.992 518.956 178.343C523.427 167.986 525.12 160.355 525.665 148.102C526.705 124.76 520.064 104.985 505.139 86.9883C495.495 75.3568 476.637 63.8551 460.527 59.7783C451.023 57.3732 435.923 56.5239 426.968 57.8912ZM313.23 64.9688C308.964 68.9937 302.273 74.6343 298.36 77.5045C294.423 80.3927 286.162 88.4045 279.861 95.4462C273.599 102.445 263.53 113.276 257.483 119.517L246.49 130.863L240.484 130.239C237.181 129.896 232.454 129.027 229.979 128.31C226.195 127.212 223.139 127.257 210.766 128.591L196.053 130.177L191.267 135.315C187.867 138.965 185.082 140.9 181.65 141.999L176.818 143.545L166.15 138.23C159.114 134.723 153.101 132.49 148.483 131.67C144.634 130.986 137.678 129.351 133.027 128.036C128.377 126.722 123.73 125.647 122.701 125.647C120.625 125.647 103.34 135.409 92.4865 142.712C88.6368 145.301 81.6621 150.851 76.9874 155.043C72.3127 159.235 64.1031 165.359 58.7434 168.651C49.9399 174.06 47.3411 176.449 31.82 193.409L14.6409 212.18L0.566715 219.5L-13.5075 226.821L-26.1028 241.886L-38.6981 256.951L-49.6345 261.228C-58.572 264.723 -63.0557 267.311 -74.1601 275.381L-87.7493 285.258L-99.5186 285.541C-109.212 285.773 -111.473 286.117 -112.337 287.486C-113.097 288.691 -113.024 289.584 -112.072 290.729C-110.906 292.13 -105.43 292.31 -63.8707 292.31H-16.9833L-0.746215 284.268C13.247 277.338 16.2508 275.423 20.9906 270.408C26.4043 264.679 26.7542 264.494 43.4893 258.529C59.4834 252.829 61.6513 252.323 80.1572 249.972C99.0542 247.571 100.366 247.256 113.589 241.96L127.353 236.447L142.918 238.907C151.478 240.259 166.596 242.894 176.514 244.762L194.545 248.158L207.977 256.88C215.365 261.676 222.774 266.224 224.444 266.984C226.113 267.746 236.028 270.388 246.478 272.857C256.927 275.326 269.527 279.029 274.476 281.086L283.476 284.825L251.586 285.324C223.252 285.767 219.578 286.009 218.645 287.486C217.883 288.692 217.956 289.583 218.909 290.729C220.096 292.156 232.24 292.31 343.472 292.31C454.705 292.31 466.848 292.156 468.035 290.729C470.388 287.899 467.92 285.884 461.363 285.281C455.854 284.774 454.501 284.068 440.794 274.529C431.26 267.895 423.664 261.693 419.105 256.822C409.033 246.057 396.828 237.413 369.971 222.022C353.84 212.779 336.25 200.664 335.654 198.388C335.294 197.013 337.878 197.429 351.848 200.998C365.386 204.456 371.251 206.57 383.447 212.387C397.753 219.21 399.14 219.656 414.474 222.365L430.527 225.199L441.996 232.492C448.305 236.503 461.138 245.652 470.514 252.824C479.89 259.995 494.62 270.13 503.248 275.344L518.935 284.825L508.199 285.324L497.464 285.823V288.817V291.811L635.349 292.065C739.215 292.255 773.581 292.03 774.64 291.153C775.412 290.514 775.91 289.053 775.746 287.907C775.449 285.827 775.333 285.822 716.005 285.324L656.562 284.825L665.267 276.841C670.056 272.45 675.169 267.061 676.631 264.866C678.093 262.67 681.912 257.34 685.12 253.021C688.328 248.701 690.953 244.691 690.953 244.109C690.953 241.537 697.76 233.498 701.706 231.408C704.057 230.163 708.337 226.684 711.217 223.676C726.707 207.496 733.316 201.426 737.413 199.617C741.448 197.836 742.297 197.779 746.653 199.007C753.665 200.982 766.101 203.518 768.703 203.503C771.75 203.485 774.918 201.699 793.313 189.628C797.357 186.973 803.239 186.418 811.308 187.929C815.656 188.744 818.921 193.182 820.919 200.995C822.013 205.269 821.965 206.661 820.589 210.707C818.586 216.592 819.115 218.131 826.715 228.534C829.867 232.846 833.354 237.845 834.466 239.643C836.014 242.146 837.18 242.91 839.452 242.91C841.504 242.91 842.523 242.361 842.761 241.127C843.115 239.292 838.823 231.927 834.429 226.828C833.064 225.244 831.947 223.602 831.946 223.179C831.946 222.755 830.798 220.679 829.396 218.565L826.847 214.721L829.052 210.192C831.104 205.978 831.153 205.432 829.751 202.331C828.923 200.498 827.649 197.427 826.92 195.506C826.192 193.585 824.772 190.817 823.765 189.356L821.935 186.7L825.916 183.553C829.514 180.71 830.356 180.466 834.671 181.025C844.159 182.254 843.944 182.115 843.944 187.007C843.944 191.851 845.582 193.51 850.366 193.51C852.255 193.51 853.572 194.543 855.431 197.482C856.813 199.666 857.943 201.922 857.943 202.494C857.943 204.602 863.383 211.649 866.09 213.046C871.403 215.788 872.753 218.061 871.845 222.738C870.098 231.747 870.574 233.918 874.922 236.789C877.109 238.234 879.289 239.417 879.766 239.417C880.242 239.417 881.377 240.238 882.287 241.242C883.587 242.676 883.942 245.14 883.942 252.743C883.942 262.382 883.959 262.446 888.147 269.132C893.031 276.928 893.712 277.533 896.137 276.238C898.85 274.789 898.327 271.365 894.467 265.319C891.09 260.027 890.991 259.583 890.907 249.397L890.821 238.918L884.85 234.427C878.303 229.504 878.505 230.238 880.562 218.806C881.077 215.942 880.659 215.289 875.902 211.536C873.029 209.269 869.74 206.194 868.595 204.703C867.449 203.212 866.217 201.768 865.856 201.494C865.496 201.219 863.776 198.167 862.034 194.711C860.293 191.256 858.322 188.263 857.655 188.059C856.99 187.855 855.256 187.43 853.805 187.115C852.052 186.735 850.949 185.682 850.522 183.984C849.975 181.811 850.956 180.236 857.054 173.496L864.228 165.566H869.482C874.244 165.566 875.026 165.897 877.838 169.094C880.186 171.763 880.942 173.579 880.942 176.553C880.942 180.944 882.474 182.15 890.969 184.44C895.32 185.614 895.625 185.949 898.86 193.125C903.908 204.319 904.586 204.928 914.809 207.45C926.133 210.242 928.439 209.994 928.439 205.985C928.439 202.72 928.806 202.88 915.634 200.418C910.711 199.498 909.683 198.928 908.871 196.671C908.345 195.206 906.233 190.773 904.177 186.819C900.553 179.847 900.261 179.565 894.441 177.455C887.826 175.057 886.98 174.267 886.957 170.462C886.949 169.037 886.042 167.058 884.942 166.065C882.346 163.721 882.42 162.412 885.3 159.711L887.659 157.501L892.837 159.538C895.685 160.657 900.16 161.574 902.782 161.574C906.93 161.574 907.995 162.035 910.992 165.12C914.492 168.725 922.183 173.55 924.427 173.55C925.106 173.55 927.101 176.247 928.86 179.542C931.381 184.262 933.375 186.413 938.25 189.677C941.654 191.955 944.587 193.934 944.768 194.076C944.949 194.217 945.766 197.264 946.585 200.847C947.978 206.943 948.38 207.557 952.843 210.415C955.467 212.095 958.099 213.47 958.692 213.47C959.286 213.47 959.921 213.832 960.105 214.274C960.941 216.291 976.705 226.819 981.305 228.431C990.781 231.754 990.323 231.389 988.07 233.806C986.984 234.971 984.27 239.292 982.039 243.409C979.808 247.526 976.059 252.627 973.71 254.746C969.411 258.622 958.586 265.365 956.662 265.365C956.093 265.365 951.234 268.284 945.864 271.851C940.495 275.419 935.818 278.338 935.472 278.338C935.126 278.338 932.381 279.91 929.372 281.831L923.901 285.324H896.015H868.13L859.286 276.885C851.207 269.175 849.883 268.306 843.944 266.807C840.369 265.904 833.071 263.568 827.724 261.615C818.709 258.323 817.494 257.542 810.972 250.853L803.94 243.641L797.2 242.92C787.626 241.897 783.965 240.113 778.762 233.936C772.226 226.179 769.154 223.913 763.078 222.375C758.649 221.253 757.442 220.459 756.197 217.854C755.167 215.699 752.617 213.545 748.187 211.087C740.945 207.07 739.744 206.821 737.961 208.966C736.074 211.235 737.296 212.95 743.203 216.323C746.603 218.264 749.313 220.713 750.505 222.923C752.402 226.44 753.606 227.082 762.692 229.417C765.744 230.203 767.35 231.307 768.41 233.354C769.221 234.92 771.551 237.711 773.588 239.556C775.624 241.4 778.858 244.369 780.773 246.153C782.701 247.95 785.328 249.397 786.658 249.397C787.98 249.397 792.084 249.895 795.778 250.504C802.474 251.607 802.508 251.629 807.262 257.989C810.364 262.138 812.734 264.367 814.043 264.367C815.15 264.367 818.146 265.317 820.701 266.478C823.255 267.64 830.472 270.27 836.737 272.322C846.708 275.588 848.707 276.631 852.773 280.689L857.418 285.324H852.716C847.502 285.324 845.286 287.394 847.078 290.59C847.97 292.179 851.529 292.31 893.909 292.31C919.136 292.31 940.487 292.038 941.357 291.704C943.697 290.808 943.385 286.251 940.94 285.614C939.267 285.178 939.848 284.457 944.484 281.217C947.532 279.085 950.488 277.34 951.052 277.34C951.616 277.34 953.959 276.073 956.258 274.524C958.557 272.975 963.587 269.981 967.437 267.872C975.097 263.674 984.936 255.842 984.936 253.944C984.936 252.309 991.085 241.004 992.222 240.548C992.725 240.347 996.083 237.091 999.685 233.312C1003.29 229.535 1006.84 226.443 1007.59 226.443C1008.33 226.443 1008.93 226.066 1008.93 225.605C1008.93 225.145 1011.52 222.744 1014.68 220.271C1017.85 217.798 1021.15 214.245 1022.03 212.377C1022.9 210.508 1026.32 203.59 1029.63 197.003C1032.93 190.416 1035.82 184.457 1036.04 183.762C1036.26 183.065 1038.78 182.221 1041.62 181.883C1046.24 181.338 1047.53 180.592 1053.62 174.939C1057.37 171.458 1060.71 168.597 1061.05 168.584C1061.39 168.571 1061.92 170.084 1062.22 171.947C1062.52 173.809 1063.93 177.168 1065.35 179.411C1066.87 181.811 1067.93 184.945 1067.93 187.022C1067.93 191.486 1072.1 203.517 1075.12 207.751C1076.38 209.524 1078.91 212.546 1080.73 214.468C1082.56 216.389 1084.57 219.87 1085.2 222.202C1086.19 225.878 1086.71 226.443 1089.08 226.443C1090.58 226.443 1092.11 225.958 1092.48 225.366C1093.16 224.274 1091.1 215.383 1089.96 214.468C1089.61 214.193 1088.27 212.397 1086.97 210.476C1085.68 208.554 1083.25 205.528 1081.58 203.748C1078.03 199.954 1074.97 190.978 1074.95 184.308C1074.93 180.705 1074.23 178.592 1071.93 175.326C1068.14 169.918 1066.3 161.542 1068.58 160.078C1069.44 159.529 1072 157.921 1074.29 156.506C1077.53 154.493 1079.47 151.99 1083.2 145.029C1086.94 138.043 1089.25 135.081 1093.91 131.274C1099.33 126.84 1100.06 125.752 1102.44 118.625C1104.49 112.484 1105.78 110.267 1108.51 108.192C1110.41 106.742 1113.2 104.418 1114.7 103.027C1116.2 101.635 1118.76 99.8104 1120.38 98.9711C1122 98.1318 1123.95 96.8294 1124.7 96.0769C1126.71 94.068 1128.16 94.4113 1127.42 96.7246C1127.07 97.8324 1124.77 101.761 1122.31 105.457C1118.07 111.823 1117.87 112.445 1118.44 117.341C1118.96 121.743 1118.69 123.07 1116.6 126.323C1114.48 129.62 1114.07 131.738 1113.53 141.931C1112.92 153.579 1112.86 153.795 1109 159.468C1105.26 164.97 1105.14 165.405 1106.07 169.791C1107.01 174.186 1106.91 174.562 1103.36 179.199C1098.8 185.15 1097.49 187.929 1098.27 189.953C1099.39 192.867 1102.72 191.537 1107.45 186.29C1113.32 179.78 1114.19 177.503 1113.37 170.938C1112.76 166.063 1112.94 165.438 1116.01 161.618C1119.17 157.695 1119.34 157.053 1120 146.201C1120.6 136.533 1121.08 134.225 1123.31 130.423C1125.42 126.839 1125.93 124.686 1125.93 119.384C1125.93 112.936 1126.06 112.6 1132.32 103.395C1135.83 98.2236 1138.99 93.1429 1139.34 92.105C1140.34 89.1799 1142.98 86.4744 1148.41 82.8357L1153.39 79.4955L1157.93 82.0403C1165.61 86.3496 1173.73 88.9803 1177.3 88.3117C1180.01 87.8047 1181 88.1909 1183.42 90.7088C1186.02 93.4263 1186.9 93.7117 1192.61 93.7117C1198.58 93.7117 1199.26 93.9662 1205.17 98.4102C1223 111.813 1221.28 111.054 1232.75 110.534L1240.59 110.178L1245.49 117.414C1248.18 121.394 1250.89 124.649 1251.5 124.649C1252.1 124.649 1257.59 127.344 1263.68 130.637C1269.77 133.93 1275.14 136.625 1275.61 136.625C1276.09 136.625 1277.86 137.887 1279.55 139.429C1281.24 140.972 1283.87 143.138 1285.39 144.244L1288.16 146.252L1286.04 154.839C1284.87 159.562 1283.92 165.958 1283.92 169.052C1283.92 176.394 1283.04 178.013 1273.71 187.894C1271.12 190.637 1268.72 194.257 1268.38 195.94C1268.05 197.623 1267.57 199.731 1267.32 200.627C1266.75 202.639 1254.51 207.043 1246.92 207.959C1243.9 208.325 1240.75 208.808 1239.92 209.033C1238.91 209.307 1237.3 207.338 1235 203.014L1231.57 196.588L1233.25 190.573C1235.62 182.066 1235.4 180.319 1231.42 176.114C1228.04 172.538 1227.92 172.142 1227.92 164.689V156.969L1223.39 153.783C1220.9 152.031 1218.4 150.597 1217.83 150.597C1217.26 150.597 1217.01 149.811 1217.28 148.85C1217.56 147.89 1218.05 144.858 1218.39 142.114C1218.91 137.871 1218.58 136.315 1216.17 131.72C1212.83 125.319 1210.79 123.687 1208.51 125.577C1206.26 127.442 1206.54 130.068 1209.49 134.731C1211.94 138.604 1212 139.09 1210.99 145.631C1210.4 149.395 1209.92 152.66 1209.92 152.884C1209.92 153.109 1212.4 155.263 1215.42 157.672L1220.92 162.053V168.391C1220.92 174.211 1221.21 175.069 1224.48 178.873C1226.96 181.773 1227.85 183.617 1227.44 185.019C1227.11 186.122 1226.33 189.61 1225.7 192.771C1224.66 198.024 1224.75 198.854 1226.74 202.388C1230.25 208.606 1229.84 209.339 1222.67 209.679C1216.46 209.975 1216.42 209.995 1216.42 212.971V215.965L1224.92 216.29C1236.91 216.749 1257.81 213.807 1266.42 210.45L1273.42 207.721L1274.93 202.362C1276.48 196.842 1280.81 189.275 1283.24 187.837C1283.99 187.389 1286.05 185.364 1287.82 183.338C1290.91 179.787 1291.06 179.21 1291.9 167.371C1292.38 160.614 1293.26 153.462 1293.86 151.475C1294.8 148.332 1295.43 147.791 1298.68 147.312C1300.74 147.01 1308.59 145.834 1316.14 144.7L1329.86 142.638L1335.64 146.116C1338.82 148.029 1341.94 149.595 1342.58 149.596C1343.22 149.598 1343.9 149.979 1344.08 150.444C1344.27 150.908 1348.41 153.253 1353.28 155.655C1362.73 160.305 1374.66 170.235 1377.58 175.872C1378.45 177.549 1380.46 182.511 1382.05 186.897C1385.12 195.377 1386.83 197.89 1391.03 200.056C1394.31 201.751 1397.45 204.32 1406.03 212.345C1412.08 218.003 1413.23 219.709 1416.45 227.814C1419.46 235.367 1420.62 237.193 1423.24 238.507C1425.8 239.785 1426.9 241.429 1428.91 246.99C1431.25 253.416 1431.84 254.161 1437.56 257.88C1441.34 260.338 1444.8 263.598 1446.55 266.363C1448.12 268.833 1451.54 273.644 1454.15 277.055C1456.77 280.465 1458.91 283.709 1458.91 284.262C1458.91 284.88 1453.39 285.377 1444.66 285.547C1430.49 285.821 1430.41 285.837 1430.07 288.205C1429.89 289.516 1430.34 290.968 1431.07 291.434C1431.81 291.899 1443.94 292.286 1458.04 292.295C1485.17 292.311 1486.58 292.072 1485.73 287.618C1485.44 286.094 1484.15 285.779 1477.19 285.534C1469.22 285.253 1468.92 285.153 1466.75 282.041C1465.51 280.279 1464.26 278.613 1463.95 278.338C1462.82 277.318 1457.91 270.466 1457.91 269.906C1457.91 269.587 1455.6 266.161 1452.78 262.293C1449.13 257.284 1446.14 254.405 1442.38 252.287C1437.51 249.544 1436.92 248.804 1434.77 242.726C1433.04 237.842 1431.48 235.367 1428.71 233.148C1425.98 230.956 1424.25 228.253 1422.25 223.059C1419.05 214.706 1411.88 206.507 1399.52 197.051C1392.64 191.781 1391.32 190.254 1389.17 185.027C1383.18 170.458 1381.91 168.45 1373.69 160.543C1369.19 156.212 1364.14 152.161 1362.46 151.539C1354.81 148.701 1351.01 146.803 1344.94 142.798C1334.41 135.85 1333.01 135.464 1322.53 136.623C1307.2 138.318 1295.55 139.822 1294.43 140.252C1293.84 140.476 1289.04 137.583 1283.76 133.823C1278.48 130.061 1272.64 126.403 1270.79 125.69C1263.74 122.98 1254.7 118.101 1254.08 116.665C1253.72 115.842 1251.4 112.386 1248.92 108.985L1244.42 102.801L1234.7 102.747C1223.27 102.684 1220.41 101.53 1209.35 92.5002C1202.48 86.8985 1202.09 86.7259 1196.29 86.7259C1190.78 86.7259 1190.06 86.4574 1186.92 83.2329C1183.23 79.4296 1182.16 79.1651 1177.41 80.8807C1174.57 81.9036 1173.58 81.6721 1167.84 78.6592C1164.31 76.8099 1161.2 75.0594 1160.93 74.768C1159.46 73.2222 1152.88 71.7501 1151.23 72.5994C1150.24 73.1114 1147.82 74.311 1145.86 75.265C1140.88 77.6901 1139.81 78.6502 1136.61 83.5662L1133.79 87.8915L1128.87 87.2169C1124.34 86.5951 1123.61 86.8017 1119.69 89.8226C1117.35 91.6269 1114.63 93.9073 1113.65 94.8903C1112.68 95.8724 1109.53 98.1807 1106.65 100.019C1099.96 104.302 1099.62 104.771 1096.83 113.497C1094.68 120.193 1093.9 121.336 1087.46 127.102C1080.87 133.004 1077.85 137.457 1074.06 146.882C1073.45 148.407 1072.16 149.89 1071.19 150.178C1067.05 151.409 1060.75 155.064 1059.84 156.756C1058.47 159.307 1048.61 170.237 1045.41 172.752C1043.78 174.025 1040.57 175.065 1037.1 175.437C1031.85 176 1031.31 176.303 1029.73 179.538C1014.13 211.619 1013.52 212.71 1009.53 215.222C1007.36 216.587 1003.47 219.681 1000.88 222.096L996.18 226.488L988.993 223.901C984.641 222.335 977.789 218.508 971.622 214.201C954.427 202.193 953.251 201.066 952.466 195.846C951.63 190.276 951.001 188.52 949.844 188.52C947.618 188.52 937.026 179.69 935.477 176.544C934.532 174.623 933.236 172.007 932.598 170.733C931.924 169.385 928.963 167.309 925.526 165.775C921.91 164.161 917.875 161.282 915.14 158.363C910.724 153.652 910.587 153.591 904.426 153.591C900.994 153.591 896.668 152.978 894.813 152.229C886.91 149.037 885.23 149.25 880.031 154.104C875.284 158.535 875.163 158.581 868.162 158.581C862.053 158.581 860.83 158.887 859.197 160.826C858.156 162.062 854.397 165.881 850.842 169.315L844.378 175.558L836.142 174.397C826.87 173.087 824.622 173.718 819.889 178.957L817.257 181.869L808.207 180.035L799.159 178.202L790.539 183.361C785.799 186.199 781.68 188.52 781.386 188.52C780.472 188.52 769.465 195.721 769.151 196.525C768.824 197.362 766.423 196.789 751.16 192.231L740.87 189.159L736.66 191.216C734.345 192.347 730.357 195.123 727.798 197.383C725.238 199.645 722.674 201.494 722.098 201.494C721.523 201.494 719.806 203.178 718.282 205.236C713.59 211.574 699.543 224.959 696.084 226.389C693.659 227.391 691.13 230.297 686.368 237.551C682.827 242.944 679.414 248.49 678.782 249.874C678.15 251.258 677.315 252.391 676.926 252.391C676.538 252.391 674.996 254.3 673.5 256.632C672.003 258.966 665.082 266.375 658.12 273.099L645.459 285.324L628.458 285.318L611.457 285.311L606.609 281.164C603.09 278.154 600.85 275.024 598.446 269.76C595.711 263.77 594.108 261.71 589.259 257.952C585.915 255.36 582.132 251.257 580.476 248.428C576.9 242.317 561.236 230.288 533.962 212.705C523.787 206.146 509.838 196.966 502.963 192.305C496.089 187.645 487.274 181.958 483.376 179.671C479.477 177.383 472.052 171.545 466.876 166.699C461.701 161.852 452.966 155.031 447.467 151.54C441.967 148.049 429.818 138.737 420.468 130.848C410.064 122.068 397.989 113.027 389.345 107.541C378.849 100.88 374.382 97.4122 371.953 94.0371C370.02 91.3505 365.782 87.643 361.578 84.9614C357.67 82.4675 350.422 77.2151 345.472 73.288C340.523 69.362 332.988 64.2373 328.729 61.9001L320.987 57.6516L313.23 64.9688ZM783.616 64.0248C781.05 65.898 780.337 72.1743 782.343 75.2301C783.941 77.6632 784.347 77.744 794.913 77.744C805.063 77.744 805.942 77.5873 807.389 75.5255C808.245 74.306 808.946 71.9358 808.946 70.2592C808.946 68.5825 808.245 66.2123 807.389 64.9928C805.953 62.9459 805.041 62.7743 795.581 62.7743C788.944 62.7743 784.726 63.2154 783.616 64.0248ZM541.961 76.0884C527.296 85.5822 524.462 87.8047 524.462 89.8156C524.462 94.6428 528.147 93.2097 546.417 81.2799C561.494 71.4348 564.049 69.4069 563.778 67.5027C563.586 66.1545 562.667 65.1684 561.46 65.0158C560.296 64.8671 552.149 69.4947 541.961 76.0884ZM942.394 67.2203C941.044 68.5676 939.939 70.5605 939.939 71.6503C939.939 73.5455 939.12 73.6443 920.96 73.9407L901.982 74.2511L899.247 76.9826C896.928 79.2989 896.512 80.5513 896.512 85.2289C896.512 89.9064 896.928 91.1579 899.247 93.4752L901.982 96.2067L924.454 96.5091C945.858 96.7975 946.976 96.9083 948.012 98.8394C948.61 99.9551 950.976 101.718 953.269 102.756C956.891 104.398 959.966 104.649 976.719 104.668C997.487 104.692 1000.01 104.213 1005.14 99.2994C1007.77 96.7755 1008.2 96.7057 1020.94 96.7057C1034.93 96.7057 1038.33 95.8394 1041.37 91.4992C1043.41 88.5991 1043.37 81.8048 1041.3 78.8588C1038.8 75.294 1033.87 73.7521 1024.97 73.7521C1017.54 73.7521 1016.93 73.5974 1016.93 71.7112C1016.93 70.5885 1015.83 68.5676 1014.48 67.2203L1012.03 64.7703H978.437H944.848L942.394 67.2203ZM328.093 69.2522C331.369 71.1683 337.629 75.6203 342.005 79.1472C346.38 82.6731 353.009 87.4903 356.734 89.8525C360.458 92.2147 365.39 96.4672 367.692 99.3024C370.694 103 375.629 106.817 385.148 112.807C393.235 117.894 405.266 126.924 415.943 135.916C425.582 144.035 437.943 153.466 443.414 156.874C449.09 160.41 457.249 166.768 462.413 171.678C467.686 176.691 475.292 182.598 480.631 185.826C485.671 188.875 495.346 195.165 502.13 199.804C508.913 204.443 522.335 213.308 531.957 219.505C557.414 235.9 570.965 246.33 575.328 252.89C577.313 255.874 581.304 260.172 584.198 262.442C588.391 265.731 590.193 268.137 593.073 274.299C595.061 278.55 597.749 282.769 599.045 283.677C601.259 285.223 599.548 285.324 570.996 285.324C532.285 285.324 532.847 285.458 507.977 270.337C498.16 264.366 483.003 253.98 474.296 247.255C453.03 230.829 429.603 216.169 414.056 209.558C406.177 206.207 391.209 198.068 373.059 187.264C357.337 177.903 341.548 168.536 337.973 166.447C334.398 164.357 325.146 160.429 317.413 157.718C309.198 154.839 294.133 148.186 281.174 141.714C268.976 135.622 258.21 130.637 257.252 130.637C256.148 130.637 259.565 126.523 266.577 119.41C272.662 113.235 281.644 103.692 286.536 98.2026C291.426 92.7137 299.264 85.2408 303.951 81.5952C308.638 77.9506 314.48 72.8978 316.932 70.3679C319.384 67.838 321.559 65.7682 321.764 65.7682C321.969 65.7682 324.817 67.3361 328.093 69.2522ZM798.697 71.4847C796.635 71.7002 793.26 71.7002 791.197 71.4847C789.135 71.2701 790.822 71.0935 794.947 71.0935C799.072 71.0935 800.76 71.2701 798.697 71.4847ZM1009.26 72.4158C1009.63 72.7781 1008.92 73.5754 1007.69 74.1872C1005.05 75.4976 1004.28 78.25 1005.98 80.2869C1006.92 81.4196 1010.06 81.7359 1020.4 81.7359C1032.4 81.7359 1033.79 81.9216 1035.45 83.7559C1038.78 87.4254 1036.23 88.1799 1018.68 88.7218L1002.53 89.2208L1000.6 92.8814C999.537 94.8953 997.717 96.7975 996.553 97.1089C995.389 97.4212 986.324 97.6827 976.41 97.6897C956.667 97.7046 955.373 97.3793 952.407 91.6549L950.887 88.7218H928.037C908.407 88.7218 905.001 88.4993 903.871 87.141C902.918 85.9953 902.846 85.1031 903.607 83.8976C904.52 82.4505 907.611 82.1701 927.44 81.7359C946.964 81.3088 950.368 81.0064 951.239 79.6262C952.58 77.5015 951.425 74.6902 948.944 74.0425C947.853 73.7581 947.207 73.1274 947.508 72.6403C948.135 71.6294 1008.25 71.4098 1009.26 72.4158ZM1314.37 80.1941C1313.02 81.5413 1311.92 83.3377 1311.92 84.186C1311.92 85.4684 1310.32 85.7279 1302.42 85.7279C1291.51 85.7279 1288.91 87.125 1288.93 92.9632C1288.97 100.897 1287.39 100.698 1350.38 100.698C1411.09 100.698 1409.92 100.807 1411.37 95.0031C1412.24 91.5511 1410.28 87.0572 1407.58 86.3356C1406.39 86.0163 1396.53 85.7488 1385.66 85.7419C1368.52 85.7299 1365.91 85.5243 1365.91 84.186C1365.91 83.3377 1364.81 81.5413 1363.46 80.1941L1361.01 77.744H1338.92H1316.83L1314.37 80.1941ZM1358.92 88.2228L1359.43 91.2168L1381.39 91.4862C1394.01 91.6409 1403.77 92.1718 1404.33 92.7337C1404.97 93.3724 1386.33 93.7117 1350.62 93.7117C1316.09 93.7117 1295.92 93.3564 1295.92 92.7477C1295.92 92.2048 1300.62 91.6599 1306.67 91.5002C1317.28 91.2208 1317.42 91.1858 1317.77 88.7218C1317.96 87.3496 1318.64 85.8915 1319.27 85.4814C1319.9 85.0722 1328.96 84.8477 1339.41 84.9824L1358.4 85.2289L1358.92 88.2228ZM552.961 94.8544C542.786 99.2166 533.883 103.358 533.175 104.059C531.363 105.854 532.743 108.681 535.431 108.681C539.222 108.681 575.419 93.0321 575.792 91.2317C576.178 89.3635 574.227 86.6809 572.588 86.8247C571.967 86.8795 563.135 90.4932 552.961 94.8544ZM560.06 115.568C538.601 120.427 535.664 121.785 539.127 125.242C540.636 126.749 542.281 126.524 561.008 122.266C581.077 117.702 583.959 116.674 583.959 114.084C583.959 110.749 580.34 110.974 560.06 115.568ZM-37.2942 113.683C-40.68 116.342 -41.5719 120.661 -39.544 124.576C-38.6701 126.263 -37.5531 127.643 -37.0622 127.643C-36.5712 127.643 -34.2963 129.439 -32.0064 131.635L-27.8437 135.627H-3.84904H20.1446L23.1444 132.633L26.1443 129.639H46.9891H67.8349L70.9108 127.055C75.0665 123.565 75.2605 117.747 71.3417 114.122L68.6959 111.675H16.9798C-33.3264 111.675 -34.8063 111.73 -37.2942 113.683ZM740.611 115.28C739.174 116.714 737.713 119.409 737.363 121.268L736.727 124.649H707.976C680.846 124.649 679.082 124.761 676.71 126.622C675.327 127.708 673.959 129.834 673.669 131.346C673.068 134.483 675.102 139.079 677.499 139.997C678.389 140.337 691.178 140.617 705.919 140.617H732.721L734.331 143.071C736.914 147.005 741.732 147.783 761.283 147.428L779.117 147.104L782.018 143.86L784.92 140.617H811.85C826.662 140.617 839.51 140.337 840.399 139.997C842.837 139.063 845.082 134.028 844.353 131.129C843.423 127.43 839.328 124.649 834.81 124.649C831.161 124.649 830.945 124.478 830.945 121.578C830.945 119.516 829.986 117.551 828.022 115.59L825.099 112.673H784.161H743.223L740.611 115.28ZM1185.48 114.919C1185.22 116.154 1184.53 119.646 1183.94 122.681C1183.05 127.299 1181.98 129.146 1177.4 134.022C1172.33 139.416 1171.93 140.202 1171.93 144.662C1171.93 149.578 1170.29 152.287 1161.58 161.808C1157.88 165.859 1152.25 172.909 1151.81 174.049C1150.25 178.108 1136.08 197.1 1132.31 200.175C1128.41 203.367 1126.6 206.169 1121.23 217.36C1117.71 224.713 1114.56 232.049 1114.23 233.66C1113.8 235.816 1112.69 236.999 1110.04 238.137C1108.05 238.987 1102.55 241.644 1097.81 244.041C1091.74 247.109 1087.96 248.399 1085.03 248.399C1081.39 248.399 1079.76 249.276 1071.98 255.4C1067.09 259.25 1062.94 262.757 1062.76 263.193C1062.58 263.629 1059.96 265.449 1056.93 267.239C1053.91 269.028 1048.96 272.234 1045.93 274.361C1042.91 276.489 1040.1 278.255 1039.7 278.284C1039.3 278.314 1036.54 279.889 1033.57 281.785C1028.87 284.789 1027.23 285.27 1020.8 285.528C1013.9 285.804 1013.41 285.973 1013.1 288.205C1012.91 289.516 1013.36 290.968 1014.1 291.434C1014.83 291.899 1024.72 292.286 1036.06 292.295C1053.67 292.308 1056.88 292.08 1058 290.729C1058.95 289.586 1059.03 288.689 1058.27 287.486C1057.48 286.235 1055.43 285.75 1049.97 285.528L1042.71 285.232L1047.57 281.734C1050.24 279.808 1053.83 277.633 1055.54 276.898C1057.25 276.163 1059.5 274.86 1060.54 274.004C1061.58 273.147 1067.55 268.383 1073.81 263.417L1085.18 254.387H1091.01C1096.6 254.387 1096.96 254.547 1100.03 258.36C1101.79 260.544 1104.03 262.586 1105.01 262.896C1105.99 263.205 1110.3 262.316 1114.58 260.919C1118.87 259.521 1123.07 258.379 1123.91 258.379C1124.76 258.379 1126.57 259.726 1127.93 261.373C1129.29 263.019 1130.88 264.367 1131.45 264.367C1132.03 264.367 1136.38 265.945 1141.12 267.875C1148.08 270.708 1152.62 271.738 1164.73 273.228C1179.29 275.02 1180.05 275.021 1191.62 273.236C1199.09 272.085 1206.31 270.255 1210.98 268.334C1215.07 266.647 1220 264.883 1221.92 264.413C1223.85 263.942 1232.38 260.819 1240.88 257.472L1256.33 251.384L1261.38 254.837C1275.25 264.333 1278.51 266.676 1281.4 269.204C1285.02 272.373 1287.75 273.469 1297.42 275.626C1301.27 276.484 1305.54 277.453 1306.92 277.778C1308.29 278.104 1311.18 279.935 1313.33 281.847L1317.25 285.324H1233.17C1186.93 285.324 1148.38 285.597 1147.51 285.93C1145.64 286.647 1145.43 289.422 1147.13 291.113C1148.05 292.029 1173.48 292.31 1255.5 292.31C1370.26 292.31 1365.68 292.507 1364.73 287.618C1364.42 285.983 1362.8 285.799 1346.54 285.55L1328.69 285.277L1322.8 280.663C1319.57 278.125 1316.92 275.705 1316.92 275.287C1316.92 273.828 1308.09 270.276 1298.71 267.957C1287.32 265.142 1286.54 264.747 1278.79 257.843C1275.42 254.844 1272.18 252.391 1271.59 252.391C1270.99 252.391 1267.94 250.594 1264.8 248.399C1261.67 246.203 1258.15 244.407 1257 244.407C1255.84 244.407 1250.35 246.203 1244.8 248.399C1239.25 250.594 1234.19 252.391 1233.54 252.391C1232.9 252.391 1225.15 255.24 1216.32 258.722C1202.42 264.202 1198.99 265.163 1190.84 265.874C1179.52 266.862 1179.41 266.862 1164.93 265.947C1155.11 265.329 1152.11 264.702 1144.43 261.664C1139.48 259.707 1134.08 256.909 1132.43 255.446C1126.39 250.089 1126.89 250.19 1117.38 252.403C1109.22 254.302 1108.34 254.336 1105.26 252.875C1103.43 252.008 1101.93 251.127 1101.93 250.917C1101.93 250.706 1105.54 248.616 1109.95 246.271C1114.36 243.927 1118.55 241.089 1119.26 239.964C1120.47 238.064 1122.51 233.248 1127.95 219.411C1129.5 215.462 1132.41 211.475 1138.1 205.494C1142.48 200.883 1147.8 194.168 1149.91 190.57C1152.02 186.972 1155.13 182.233 1156.82 180.037C1158.51 177.842 1161.7 173.489 1163.91 170.365C1166.12 167.241 1168.76 164.097 1169.78 163.379C1174.7 159.931 1177.29 155.374 1178.36 148.296C1179.39 141.434 1179.58 141.103 1184.52 137.178C1190.02 132.808 1189.66 133.811 1191.61 117.414L1192.18 112.673H1189.07C1186.66 112.673 1185.86 113.174 1185.48 114.919ZM67.252 119.258C67.5809 119.586 67.6079 120.485 67.312 121.254C66.873 122.397 62.6862 122.653 44.5012 122.653H22.2275L19.5586 126.146L16.8888 129.639H-3.67404H-24.2369L-27.4427 126.146C-29.2056 124.225 -31.1525 122.653 -31.7685 122.653C-33.2614 122.653 -34.2773 120.904 -33.5064 119.659C-32.8384 118.581 66.179 118.186 67.252 119.258ZM822.011 120.692C824.667 122.111 824.436 123.308 821.208 124.852C818.128 126.325 817.184 129.016 818.986 131.184C819.865 132.241 822.472 132.633 828.626 132.633C833.996 132.633 836.838 132.996 836.445 133.631C836.057 134.257 825.499 134.635 808.137 134.646L780.448 134.664L778.093 137.141C775.761 139.595 775.568 139.619 758.323 139.619H740.907L739.768 137.124L738.629 134.629H709.851C691.996 134.629 680.839 134.255 680.461 133.644C680.065 133.005 692.041 132.567 714.542 132.396C746.324 132.156 749.325 131.987 750.336 130.388C751.7 128.228 750.139 125.314 747.343 124.802C744.085 124.206 743.268 122.652 745.391 121.089C746.992 119.91 753.702 119.659 783.705 119.659C806.864 119.659 820.78 120.034 822.011 120.692ZM131.487 134.637C135.335 135.739 141.409 137.123 144.984 137.714C148.558 138.304 155.42 140.62 160.232 142.86L168.98 146.935L163.216 150.124C160.045 151.878 150.708 157.704 142.468 163.072C134.227 168.441 120.51 176.664 111.985 181.348C103.461 186.031 86.9248 196.297 75.2395 204.161C63.5532 212.025 53.4777 218.459 52.8488 218.459C52.2188 218.459 48.678 219.359 44.9782 220.458C37.2626 222.752 33.9068 225.46 -8.0078 263.224L-32.5064 285.296L-54.4382 285.31L-76.369 285.324L-67.0765 278.548C-60.1499 273.497 -54.8692 270.638 -46.3386 267.321L-34.8943 262.87L-22.201 247.598L-9.50771 232.324L4.41451 225.143L18.3367 217.96L35.7217 198.999C51.5188 181.77 54.0147 179.479 63.0322 173.936C68.4909 170.58 76.6764 164.484 81.2222 160.388C85.7679 156.291 92.4115 150.967 95.9863 148.555C104.186 143.023 122.122 132.633 123.472 132.633C124.033 132.633 127.64 133.534 131.487 134.637ZM227.664 134.748C229.212 135.363 236.623 136.238 244.135 136.693L257.79 137.52L278.931 148.079C290.558 153.886 306.911 161.108 315.272 164.128C324.025 167.289 333.655 171.571 337.973 174.223C355.989 185.285 399.655 210.864 402.667 212.119C404.483 212.877 405.969 213.667 405.969 213.877C405.969 215.054 397.736 211.857 384.97 205.719C372.42 199.685 367.723 198.049 350.025 193.544C325.896 187.402 326.131 187.352 328.841 197.97L330.473 204.366L341.302 211.927C347.256 216.085 356.931 222.232 362.8 225.587C391.438 241.956 405.92 252.13 414.843 262.151C418.766 266.556 425.109 271.847 432.551 276.92L444.148 284.825L372.737 285.082L301.327 285.337L285.236 278.359C271.936 272.593 265.538 270.51 248.357 266.358L227.57 261.333L212.025 251.463L196.481 241.594L176.482 237.93C165.482 235.915 149.764 233.209 141.552 231.916L126.621 229.565L111.553 235.403C97.1493 240.983 95.6134 241.355 76.6534 243.849C57.7565 246.336 56.0086 246.757 39.5895 252.783C22.7895 258.95 22.2225 259.251 16.9248 264.847C12.3771 269.651 9.07123 271.796 -3.35807 278.011C-11.5256 282.096 -19.0502 285.299 -20.0791 285.131C-21.421 284.912 -14.6944 278.326 3.67854 261.872C41.5044 227.993 40.6635 228.645 49.74 226.199C56.5036 224.375 60.0314 222.396 77.4874 210.639C88.4868 203.23 105.092 192.951 114.387 187.796C123.684 182.642 137.183 174.555 144.386 169.826C157.036 161.522 173.558 151.718 177.295 150.301C178.975 149.664 178.964 149.815 177.141 152.37C176.059 153.887 174.847 157.364 174.449 160.097C173.242 168.372 169.189 177.21 164.935 180.844C162.204 183.177 160.786 185.425 159.947 188.747C158.802 193.286 158.663 193.413 153.63 194.488C143.252 196.705 120.37 215.079 121.148 220.57C121.798 225.16 125.202 224.039 131.714 217.092C139.683 208.589 149.826 201.983 157.156 200.521C163.587 199.237 164.138 198.733 165.915 192.512C166.678 189.843 168.896 186.199 171.382 183.53C175.833 178.751 179.162 171.481 180.943 162.65C182.023 157.299 185.128 152.724 196.114 140.304C199.744 136.201 198.192 136.569 223.664 133.762C224.316 133.69 226.116 134.134 227.664 134.748ZM615.974 136.91C614.608 137.6 613.058 139.389 612.531 140.887C611.256 144.504 612.791 148.705 615.974 150.311C618.998 151.838 634.731 152.01 638.559 150.558C645.432 147.949 645.829 140.274 639.272 136.788C636.323 135.221 619.142 135.311 615.974 136.91ZM1421.87 138.87C1420.6 140.937 1420.08 142.997 1420.46 144.547C1421.65 149.507 1426.36 151.015 1438.86 150.448C1448.35 150.018 1450.37 148.645 1450.37 142.626C1450.37 136.543 1448.51 135.697 1435.15 135.659L1423.88 135.627L1421.87 138.87ZM552.961 137.649C546.636 138.039 541.319 138.417 541.145 138.489C540.971 138.562 540.971 139.856 541.145 141.365L541.461 144.11L557.96 143.763C567.035 143.572 577.159 143.123 580.459 142.765C586.018 142.162 586.459 141.93 586.459 139.619V137.124L575.459 137.032C569.41 136.981 559.285 137.259 552.961 137.649ZM998.436 139.774C995.189 141.546 993.936 143.759 993.936 147.722C993.936 150.561 994.564 151.943 996.571 153.518C999.035 155.454 1000.49 155.587 1019.11 155.587C1038.92 155.587 1039.04 155.574 1041.48 153.137C1044.92 149.703 1044.74 145.26 1041.01 141.538L1038.09 138.621L1019.26 138.651C1007.58 138.67 999.676 139.096 998.436 139.774ZM1443.41 142.613C1443.8 143.247 1441.07 143.611 1435.91 143.611C1430.75 143.611 1428.02 143.247 1428.41 142.613C1428.75 142.064 1432.13 141.615 1435.91 141.615C1439.7 141.615 1443.07 142.064 1443.41 142.613ZM636.956 143.611C636.956 144.203 633.289 144.609 627.956 144.609C622.624 144.609 618.957 144.203 618.957 143.611C618.957 143.019 622.624 142.613 627.956 142.613C633.289 142.613 636.956 143.019 636.956 143.611ZM1036.68 147.852C1036.37 148.786 1031.91 149.1 1018.93 149.1C1005.96 149.1 1001.5 148.786 1001.19 147.852C1000.86 146.885 1004.85 146.605 1018.93 146.605C1033.02 146.605 1037.01 146.885 1036.68 147.852ZM540.628 157.25C539.347 158.528 539.975 161.512 541.711 162.395C544.234 163.679 582.278 168.036 584.278 167.271C586.087 166.577 586.575 163.07 584.997 162.097C584.003 161.484 547.073 156.597 543.378 156.589C542.232 156.587 540.994 156.884 540.628 157.25ZM536.629 175.214C535.35 176.49 535.975 179.475 537.712 180.38C541.348 182.277 576.919 192.666 578.649 192.337C581.124 191.866 581.56 187.907 579.27 186.715C576.558 185.303 540.954 174.548 538.992 174.548C538.058 174.548 536.995 174.848 536.629 175.214ZM-80.0807 192.435C-82.0756 194.426 -83.0036 196.352 -83.0036 198.5C-83.0036 200.647 -82.0756 202.574 -80.0807 204.565C-77.2539 207.386 -76.8409 207.482 -67.5045 207.482C-58.168 207.482 -57.755 207.386 -54.9282 204.565C-52.9333 202.574 -52.0053 200.647 -52.0053 198.5C-52.0053 196.352 -52.9333 194.426 -54.9282 192.435C-57.755 189.614 -58.168 189.518 -67.5045 189.518C-76.8409 189.518 -77.2539 189.614 -80.0807 192.435ZM529.324 193.011C529.007 193.834 528.966 195.076 529.233 195.769C530.008 197.783 567.508 216.574 569.348 215.87C570.234 215.529 570.96 214.216 570.96 212.95C570.96 210.973 568.344 209.291 552.497 201.081C542.342 195.818 533.104 191.514 531.967 191.514C530.83 191.514 529.64 192.188 529.324 193.011ZM-59.0049 198.5C-59.0049 200.339 -59.6719 200.496 -67.5045 200.496C-75.337 200.496 -76.004 200.339 -76.004 198.5C-76.004 196.661 -75.337 196.504 -67.5045 196.504C-59.6719 196.504 -59.0049 196.661 -59.0049 198.5Z" fill="#DFCB45"/>
</svg>
