<svg xmlns="http://www.w3.org/2000/svg" xmlns:xlink="http://www.w3.org/1999/xlink" width="1280" height="1012" fill="none" xmlns:v="https://vecta.io/nano"><g clip-path="url(#B)"><path fill="#f5df4d" d="M0 0h1280v1012H0z"/><g fill-rule="evenodd"><path d="M311.641 773.104l-4.597.427c-3.232.248-7.448.716-10.018 1.114l-2.361.352c-.557.079-1.417.23-1.912.337-1.846.398-3.43.664-5.396.905s-3.124.499-4.048.899c-.835.363-3.142 1.087-3.934 1.235-1.761.329-9.809 2.918-12.255 3.942-.247.104-.854.309-1.349.457s-1.434.509-2.087.803-1.315.534-1.473.534-.381.086-.499.191-.618.347-1.113.538a49.02 49.02 0 0 0-2.136.911l-2.47 1.092c-1.239.531-5.217 2.523-8.773 4.393-1.051.553-2.138 1.276-2.416 1.606l-.504.6-.002 22.092-.001 22.092h-18.966l-19.643.236c-.758.264-1.032.72-1.407 2.35l-.452 1.911c-.106.433-.258 1.242-.337 1.799s-.229 1.265-.332 1.574-.315 1.169-.47 1.911a87.64 87.64 0 0 1-.586 2.577c-.167.675-.304 1.565-.304 1.978 0 1.031.843 1.853 1.901 1.853h.797v21.249 21.249h-2.136-2.136v-3.695-3.695l-.653-.465c-.646-.459-.835-.465-16.583-.46-15.355.005-15.95.021-16.492.437-.554.425-.563.486-.633 4.143l-.071 3.712-5.455.068c-5.035.062-5.487.1-5.887.501s-.433.793-.433 5.204c0 4.375.035 4.809.428 5.244.294.325.699.473 1.293.473h.864v40.218 40.218l.593.593.593.593 24.31-.007 24.743-.335c.38-.288 23.698-.315 187.037-.223l186.603.106.547-.547.548-.547v-35.875-35.874h.849c1.389 0 1.849-.482 1.849-1.937a12.52 12.52 0 0 0-.205-2.18c-.112-.518-.322-1.651-.465-2.516l-.484-2.811-.858-4.834c-.594-3.422-.911-4.706-1.243-5.038-.319-.319-1.806-.366-13.356-.42l-12.998-.062-.148-5.427c-.237-8.645-.183-29.592.076-29.752.124-.076.225-.53.225-1.009 0-.654-.286-1.332-1.157-2.741l-1.623-2.658c-.256-.433-.545-.821-.642-.862s-.176-.161-.176-.267c0-.292-3.396-5.943-3.623-6.029a.33.33 0 0 1-.199-.286c0-.358-1.141-1.956-1.537-2.152-.206-.102-6.077-.236-13.047-.298l-12.673-.112-.906-1.687-1.566-2.923c-.363-.68-.911-1.565-1.217-1.967l-.557-.731h-41.8l-42.317.237c-.284.131-.972.94-1.529 1.799s-1.181 1.772-1.389 2.028-.801 1.116-1.319 1.911l-.942 1.445h-12.127c-12.873 0-12.803-.005-13.694 1.062-.194.232-.885 1.125-1.537 1.985l-1.783 2.333-2.23 2.893-1.63 2.124V824.16l-.399-31.45c-.22-.217-1.004-.698-1.743-1.069s-1.394-.725-1.456-.788c-.256-.26-7.775-4.046-8.034-4.046-.08 0-.759-.294-1.508-.653a69.12 69.12 0 0 0-2.15-.988l-2.087-.92c-.714-.323-1.428-.587-1.585-.587s-.382-.092-.499-.205c-.214-.205-3.094-1.227-8.533-3.027-4.363-1.444-5.822-1.873-8.545-2.512-1.36-.319-2.726-.663-3.035-.763s-1.119-.301-1.799-.446l-2.136-.456c-2.121-.453-3.242-.672-4.722-.923a157.75 157.75 0 0 1-6.183-1.197c-.804-.172-3.132-.379-5.172-.46l-6.633-.354c-4.09-.29-14.12-.425-15.74-.212zm18.55 4.039c5.752.441 10.789 1.103 13.604 1.787l3.935.909 2.923.67 1.799.425 6.31 1.476c.812.193 1.659.35 1.883.35.346 0 6.477 2.332 8.558 3.255a54.66 54.66 0 0 0 2.361.916c.928.34 2.092.794 2.586 1.009s1.355.563 1.912.772a41.67 41.67 0 0 1 1.686.677c.371.163 1.686.679 2.923 1.148s2.345.934 2.462 1.034.396.183.619.183.404.089.404.198.304.323.675.476.674.369.674.477c0 .113-28.434.196-66.5.193l-65.938-.445c.309-.242.688-.442.843-.444s.281-.084.281-.179c0-.219 1.101-.773 2.698-1.355l2.811-1.057c.866-.333 2.029-.753 2.586-.933s1.214-.413 1.461-.518 1.006-.392 1.687-.636l2.81-1.019 2.586-.905c.902-.295 3.395-1.227 4.61-1.723a23.57 23.57 0 0 1 .899-.342l3.26-1.157c2.727-.969 4.99-1.628 7.308-2.127l2.024-.44c1.355-.3 4.642-.766 10.118-1.435l8.207-1.041c4.55-.629 16.034-.728 22.935-.199zm-24.452 2.691l-.731.446v4.128c0 3.714.041 4.166.411 4.5s1.791.372 15.727.372h15.316l.35-.499c.465-.664.521-8.131.064-8.588-.792-.791-1.081-.806-15.833-.805-14.132.001-14.596.014-15.304.446zm84.263 84.66v68.018h-5.284-5.284v-5.95c0-5.831-.01-5.959-.492-6.408-.459-.428-.775-.458-4.792-.458s-4.332.03-4.792.458c-.482.449-.492.577-.492 6.408v5.95h-3.71-3.71v-5.958c0-7.077.075-6.858-2.361-6.858h-1.461v-2.68-2.679l2.658-.075c3.077-.087 3.455-.281 3.495-1.797.039-1.5-.497-1.764-3.593-1.764h-2.56v-1.098-1.098l1.448-.092c2.526-.161 2.374.42 2.374-9.086v-8.157l-.653-.465c-.473-.337-1-.465-1.911-.465h-1.258v-2.699-2.698h2.535c2.804 0 3.394-.209 3.598-1.275.14-.734-.16-1.614-.69-2.016-.261-.198-1.196-.295-2.914-.299l-2.529-.007v-1.125-1.124h1.39c1.119 0 1.493-.096 1.912-.489l.52-.489v-8.094c0-9.491.147-8.916-2.283-8.916h-1.539v-2.698-2.699h2.259c1.6 0 2.456-.101 2.933-.348 1.232-.637 1.363-2.161.261-3.028-.487-.383-.914-.446-3.01-.446h-2.443v-1.125-1.124h1.419c1.117 0 1.523-.097 1.911-.458.453-.423.492-.671.492-3.148v-2.69l1.293-.007c2.291-.012 2.192.301 2.192-6.986v-6.299l-.562-.432c-.491-.377-.954-.432-3.654-.437l-3.091-.004v-1.574-1.574h2.663c2.399 0 2.705-.046 3.08-.461.539-.595.539-1.856 0-2.451-.377-.418-.68-.461-3.193-.461-2.476 0-2.824-.049-3.225-.45-.446-.446-.749-.45-34.36-.45l-34.393.45c-.453.422-.794.45-5.478.45-5.691 0-5.817.035-5.817 1.647 0 1.7.084 1.726 5.656 1.726h4.912v1.574 1.574h-3.043c-3.515 0-4.042.188-4.292 1.539-.084.452-.391 1.135-.681 1.517l-.528.696v7.582c0 7.732.046 8.199.88 8.839.245.189 1.493.276 4.01.281l3.654.007v1.124 1.125l-4.665.003c-5.609.004-5.76.048-5.857 1.72-.06 1.02 0 1.204.536 1.625.57.448.861.474 5.295.474h4.691v2.699 2.698h-3.806-3.806l-.466.592c-.452.574-.466.837-.459 8.376.005 5.764.078 7.876.281 8.14.583.759 1.236.88 4.756.88h3.5v1.124 1.125h-4.792c-4.511 0-4.82.026-5.284.458-.362.338-.492.72-.492 1.449 0 1.634.194 1.69 5.784 1.69h4.784v2.823 2.823l-3.654-.034c-2.009-.019-3.817.032-4.017.112-.796.322-.873 1.111-.873 8.92v7.651l.657.658.657.657h3.615 3.615v1.124 1.124h-4.934c-4.844 0-4.94.01-5.284.5-.192.275-.35.73-.35 1.012 0 .479-.092.512-1.433.512-1.427 0-1.434-.003-1.575-.706-.248-1.242-.496-1.303-5.368-1.31l-4.441-.008v-1.108-1.108l3.394-.072c3.252-.07 3.411-.095 3.822-.603.405-.501.429-.986.422-8.432-.005-5.857-.078-7.994-.281-8.258-.569-.742-1.247-.88-4.306-.88h-3.051v-2.699-2.698h4.395c4.367 0 4.399-.003 4.947-.552.73-.73.73-1.763 0-2.493-.548-.549-.58-.552-4.947-.552h-4.395v-1.125-1.124h3.205c3.044 0 3.235-.027 3.822-.532l.618-.532v-8.012c0-7.713-.016-8.03-.449-8.463-.41-.409-.75-.449-3.823-.449h-3.373v-2.698-2.699h4.172c3.216 0 4.316-.075 4.805-.328 1.048-.542 1.237-2.07.365-2.942-.532-.532-.664-.552-3.593-.552-2.974 0-3.044-.011-3.144-.506l-.234-1.124-.131-.619h2.182c1.931 0 2.242-.056 2.703-.489l.52-.489v-7.984c0-7.889-.005-7.992-.488-8.506s-.579-.52-4.932-.52h-4.442l-.465.653c-.4.561-.465.987-.465 3.035v2.383h-6.409-6.408V817.05v-20.574h70.941 70.941v68.018zm-288.344-65.627c-.521.521-.592.773-.592 2.08v1.487h1.911 1.911v-1.461c0-1.213-.091-1.567-.532-2.08-.722-.839-1.873-.85-2.698-.026zm160.04 3.534c-.718.821-.761 1.326-.761 8.809 0 7.292.017 7.593.465 8.222l.465.653h4.442c4.353 0 4.453-.01 4.932-.52s.488-.616.488-8.505v-7.985l-.52-.489c-.498-.468-.707-.488-4.89-.48-3.252.006-4.435.082-4.621.295zm17.736.319c-.499.609-.503.677-.506 8.337-.003 7.449.013 7.745.462 8.375l.465.653h4.442c4.353 0 4.453-.01 4.932-.52s.489-.616.489-8.505v-7.985l-.521-.489c-.497-.468-.71-.489-4.89-.485l-4.37.005-.503.614zm17.988 0c-.499.609-.503.677-.506 8.337-.003 7.449.013 7.745.462 8.375l.465.653h4.447c4.023 0 4.482-.039 4.819-.411.332-.367.372-1.297.372-8.622 0-7.669-.027-8.235-.411-8.583-.353-.319-1.026-.371-4.778-.368l-4.367.005-.503.614zm17.944.03c-.448.63-.465.927-.465 8.505v7.853l.521.489c.497.467.712.488 4.912.488 3.969 0 4.427-.039 4.763-.411.332-.367.372-1.297.372-8.622 0-7.669-.027-8.235-.411-8.583-.353-.319-1.033-.372-4.819-.372h-4.408l-.465.653zm17.989 0c-.449.63-.465.927-.465 8.505v7.853l.52.489c.498.467.713.488 4.912.488 3.969 0 4.427-.039 4.764-.411.332-.366.372-1.292.372-8.544 0-7.834-.017-8.15-.45-8.583-.419-.419-.749-.45-4.819-.45h-4.369l-.465.653zm18.015-.194c-.488.455-.492.516-.492 8.535s.004 8.081.492 8.536c.46.428.776.458 4.784.458 3.521 0 4.382-.063 4.792-.35l.5-.35V811.2c0-8.131-.003-8.189-.492-8.644-.46-.429-.776-.459-4.792-.459s-4.332.03-4.792.459zm17.988 0c-.488.455-.492.516-.492 8.51 0 7.538.027 8.082.42 8.535.403.465.595.484 4.834.484 4.115 0 4.445-.03 4.865-.449.433-.433.449-.75.449-8.506v-8.055l-.52-.489c-.497-.467-.716-.489-4.792-.489-3.988 0-4.304.03-4.764.459zm-279.239.892c-.613.247-.97.894-.97 1.758 0 .475.299.998 1.046 1.829l1.046 1.163 1.315-1.3c.723-.716 1.315-1.411 1.315-1.546 0-.3-1.284-1.536-1.953-1.879-.573-.294-1.114-.301-1.799-.025zm23.05.851l-1.13 1.078 1.353 1.382 1.353 1.383 1.03-1.102c.866-.925 1.03-1.244 1.03-1.994 0-.697-.13-.995-.592-1.358-.977-.769-1.763-.611-3.044.611zm-13.632 1.07c-3.584 1.127-6.549 3.879-7.861 7.296-.983 2.561-1.148 4.354-.63 6.829.858 4.101 3.907 7.586 8.019 9.167 1.482.57 5.819.698 7.285.214 1.006-.332 3.536-1.558 3.71-1.798.062-.085.434-.38.827-.654.888-.62 2.638-2.923 3.263-4.295.609-1.337 1.083-3.63 1.073-5.191-.033-5.119-3.555-9.767-8.761-11.562-1.273-.438-5.538-.443-6.925-.006zm537.632.774c-.775.359-1.552.794-1.726.969s-.984.385-1.799.468c-3.56.365-6.196 3.251-6.196 6.784 0 1.633.392 2.823 1.355 4.104 1.639 2.182 3.792 3.025 6.708 2.626.697-.095 1.673-.142 2.168-.105s1.734.065 2.754.063l6.015.025c1.563.018 1.931-.058 2.811-.577 1.184-.698 1.785-1.313 2.496-2.551.431-.751.518-1.233.526-2.923.01-2.22-.308-3.055-1.731-4.546-.749-.783-2.36-1.637-3.092-1.637-.25 0-.893-.43-1.427-.956-1.108-1.089-1.384-1.301-2.169-1.668-1.193-.557-2.149-.749-3.687-.739-1.274.008-1.882.142-3.006.663zm-369.037 4.948v5.397h-1.799-1.799v-5.397-5.396h1.799 1.799v5.396zm17.988 0v5.397h-1.686-1.687v-5.397-5.396h1.687 1.686v5.396zm17.988 0v5.397h-1.798-1.799v-5.397-5.396h1.799 1.798v5.396zm17.989 0v5.397h-1.799-1.799v-5.397-5.396h1.799 1.799v5.396zm17.988 0v5.397h-1.799-1.799v-5.397-5.396h1.799 1.799v5.396zm17.988 0v5.397h-1.799-1.798v-5.397-5.396h1.798 1.799v5.396zm-251.723-1.776a8.98 8.98 0 0 1 4.299 4.193c.526 1.06.657 1.651.724 3.272.089 2.172-.296 3.634-1.313 4.983-2.179 2.889-5.591 4.389-8.468 3.72-4.569-1.061-7.418-4.901-6.94-9.356.178-1.665 1.093-3.667 2.184-4.783.899-.92 2.517-2.052 2.933-2.052.169 0 .405-.092.522-.205.679-.655 4.488-.511 6.06.228zm535.813.263c.566.293 1.237.968 2.005 2.019.542.742.73.843 1.561.844 1.194.001 2.3.663 2.776 1.661.46.965.273 1.777-.617 2.666-.623.624-.766.665-1.944.568-.7-.058-1.311-.222-1.359-.365-.12-.36-1.619-.309-2.297.079-.745.426-3.086.425-3.904-.001-.802-.418-1.659-.418-2.392.001-.309.177-1.109.325-1.777.329-1.132.008-1.275-.054-2.08-.901-1.152-1.21-1.251-2.685-.269-3.984.762-1.007 1.801-1.401 3.285-1.248 1.157.119 1.241.09 2.27-.801.588-.509 1.342-.985 1.675-1.059s.707-.166.831-.207c.334-.111 1.735.139 2.236.399zm-135.012 4.69c-1.636.443-4.047 2.03-4.047 2.665 0 .109-.58.366-1.288.572-1.329.386-2.434 1.033-2.933 1.717-.158.215-.414.523-.571.684-1.235 1.267-1.561 4.416-.654 6.31.937 1.957 2.236 2.983 4.491 3.551 1.015.256 1.391.248 2.663-.057 1.288-.308 1.632-.314 2.641-.045 1.47.391 2.008.39 3.528-.008 1.089-.286 1.395-.282 2.673.037 3.801.946 7.458-1.43 8.352-5.425.225-1.008.226-1.511.002-2.513-.735-3.282-2.855-5.236-6.083-5.607-.925-.106-1.705-.346-2.136-.656-1.873-1.35-4.433-1.822-6.638-1.225zm-422.556 1.594c-.577.722-.505 1.884.158 2.547.474.474.761.552 2.024.552h1.472v-1.799-1.799l-1.63.003c-1.405.003-1.684.071-2.024.496zm33.11 1.291v1.808h1.411c1.596 0 2.205-.309 2.63-1.333.242-.584.221-.779-.15-1.415-.42-.72-.469-.739-2.16-.803l-1.731-.065v1.808zm612.501-.547c-3.292.579-5.195 1.431-7.255 3.251-.803.71-1.309.972-2.024 1.05-1.747.19-4.761 1.256-5.337 1.887-.062.068-.446.357-.854.642s-1.259 1.14-1.89 1.9c-1.085 1.307-1.214 1.39-2.341 1.521-.656.076-1.779.423-2.495.771-1.604.781-3.83 2.967-4.568 4.487-.487 1.005-.546 1.424-.551 3.935-.005 2.744.013 2.844.737 4.244.638 1.234 1.419 2.154 2.835 3.341 2.179 1.826 6.561 2.282 9.418.981.844-.385 1.159-.433 1.528-.236 1.149.615 2.9.943 5.039.943 2.055 0 3.974-.322 4.469-.749.108-.093.411-.087.674.014 3.023 1.163 7.718 1.02 10.544-.321.769-.365.902-.369 1.571-.052 1.861.883 2.971 1.106 5.446 1.094 2.067-.01 2.73-.105 3.979-.57l1.5-.557 1.423.576c1.191.482 1.777.575 3.578.569 1.973-.006 2.284-.07 3.71-.758 1.755-.846 3.903-2.797 4.427-4.022.868-2.027.952-2.435.944-4.609-.007-2.127-.052-2.342-.84-3.968-1.159-2.393-2.649-3.686-5.627-4.886-.346-.139-1.058-.253-1.582-.253-.801 0-1.011-.099-1.318-.618-.557-.941-2.198-2.587-3.329-3.34-2.121-1.411-4.028-1.963-6.852-1.983l-2.243-.016-1.076-1.043c-1.732-1.678-4.398-2.818-7.818-3.341-1.719-.263-1.658-.265-3.822.116zm-582.295.46c-.482.483-.557.717-.447 1.406.278 1.736-1.352 1.613 21.514 1.613l20.782-.139c.43-.165 1.022-1.232 1.022-1.84 0-.236-.248-.696-.551-1.023l-.552-.595h-20.595-20.595l-.578.578zm398.16-.333c-1.213.485-1.543 2-.624 2.864l.52.488h15.812 15.811l.426-.491c.672-.775.756-1.492.254-2.165-.244-.326-.687-.662-.985-.745-.87-.243-30.599-.197-31.214.049zm-35.251 1.361c.27.142.868.594 1.329 1.006.995.89 1.656 1.094 2.502.773.957-.364 2.631.432 3.259 1.549 1.568 2.789-1.231 5.686-4.135 4.28-1.093-.529-1.57-.512-3.249.113-1.119.417-2.573.319-3.288-.223-.608-.46-1.593-.408-2.734.144-.863.418-1.102.446-1.859.22-1.097-.329-1.791-1.27-1.785-2.42.008-1.422 1.345-2.551 3.019-2.551.813 0 .95-.102 2.09-1.55.906-1.15 1.791-1.596 3.164-1.597.658-.001 1.417.115 1.687.256zm-83.736 2.28c-1.109.851-1.06 2.394.097 3.1.686.418 1.37.432 20.631.433l20.6-.235c1.036-.362 1.54-1.874.9-2.707a2.8 2.8 0 0 0-.765-.618c-.725-.386-40.959-.36-41.463.027zm307.491.046c2.1.501 4.051 1.582 5.495 3.045l1.303 1.319 2.905-.041c2.835-.041 2.94-.025 4.388.667.815.391 1.625.856 1.798 1.034.991 1.018 1.717 1.949 2.115 2.712.574 1.102 1.242 1.433 2.923 1.448 1.536.014 2.611.406 3.628 1.324 2.816 2.542 2.335 7.055-.959 8.985-.862.505-1.341.624-2.561.634-1.488.012-2.125-.187-3.435-1.071-.908-.612-1.883-.524-3.536.321-1.329.679-1.635.745-3.489.748-1.947.004-2.111-.036-3.906-.947-1.03-.523-2.022-.95-2.205-.95s-.853.279-1.491.621-1.513.742-1.946.888c-1.984.67-5.404.542-7.016-.262-.964-.481-1.941-.435-3.116.145-.801.395-1.397.492-3.022.495-1.842.002-2.164-.066-3.597-.759-1.532-.74-2.942-.96-3.234-.505-.388.603-2.219 1.268-3.512 1.275-1.617.009-2.626-.374-3.795-1.44-1.137-1.038-1.714-2.4-1.714-4.047 0-3.143 2.28-5.42 5.509-5.503 1.715-.043 2.366-.378 2.905-1.492 1.195-2.468 3.764-4.099 7.014-4.452 1.748-.189 1.865-.238 2.816-1.182.975-.966 1.919-1.771 2.079-1.771.045 0 .575-.225 1.178-.501 2.23-1.018 4.312-1.255 6.478-.738zm-475.29 2.55c-.514.568-.49 2.11.039 2.589.363.329 1.196.373 7.168.373 7.491 0 7.207.058 7.415-1.509.085-.639.002-.979-.328-1.358-.439-.504-.472-.506-7.181-.506-6.245 0-6.768.03-7.113.411zm107.705 0c-.22.242-.372.791-.372 1.336 0 1.619.032 1.626 7.682 1.626 6.651 0 6.684-.003 7.033-.5.448-.64.448-1.733 0-2.373-.349-.498-.378-.5-7.161-.5-6.312 0-6.837.03-7.182.411zm-326.661 2.038c-.761.616-.744 2.139.031 2.734.533.41 1.131.428 13.837.433 13.033.005 13.289-.003 13.77-.451.269-.251.55-.695.623-.987.155-.618-.393-1.81-.925-2.015-.2-.077-6.314-.14-13.587-.14-12.64 0-13.246.019-13.749.426zm313.697 2.16v1.912h-31.48-31.479v-1.912-1.911h31.479 31.48v1.911zm-263.818.064c-.859.873-1.059 1.226-1.059 1.869 0 1.118.673 1.777 1.813 1.777.737 0 1.074-.164 1.903-.928.554-.51 1.007-1.001 1.007-1.09 0-.127-2.451-2.704-2.572-2.704-.017 0-.507.485-1.09 1.076zm23.105.285l-1.342 1.36 1.055 1.001c.889.843 1.197 1 1.959 1 1.162 0 1.82-.654 1.82-1.809 0-.646-.2-1.053-.918-1.869-.505-.574-.989-1.044-1.075-1.044s-.761.613-1.499 1.361zm255.947 4.534c-.358.449-.394 1.213-.394 8.533 0 7.982.004 8.044.492 8.499.46.428.776.458 4.795.458 4.208 0 4.314-.011 4.793-.52s.488-.616.488-8.545c0-7.724-.017-8.041-.449-8.473-.42-.42-.748-.45-4.891-.447-4.298.003-4.453.019-4.834.495zm-268.194 1.097c0 1.898.549 2.677 1.887 2.677 1.456 0 1.935-.63 1.935-2.544v-1.503h-1.911-1.911v1.37zm187.303 3.127v3.373h-2.361-2.361v-3.373-3.373h2.361 2.361v3.373zm73.077 0v3.373h-36.314-36.314v-3.373-3.373h36.314 36.314v3.373zm-93.314 4.16v5.509h-1.345c-1.286 0-1.35-.027-1.472-.619-.07-.34-.223-.984-.341-1.431s-.215-2.648-.215-4.891v-4.077h1.686 1.687v5.509zm107.705 0v5.509h-1.687-1.686v-5.509-5.509h1.686 1.687v5.509zm138.993 2.479l1.045 1.905h-42.25c-23.237 0-42.25-.085-42.25-.189s.235-.464.522-.798.818-1.106 1.181-1.717l.658-1.109 40.024.002 40.024.002 1.046 1.904zm-254.005-.962l.47 2.08.535 2.361c.102.433.296 1.326.43 1.985s.303 1.291.374 1.405c.078.127-11.011.208-28.344.208-27.01 0-28.467-.02-28.359-.394.11-.38.625-2.589 1.035-4.44l.808-3.429c.066-.223 5.562-.282 26.506-.282h26.423l.122.506zm25.295 2.642v1.35h-1.686-1.687v-1.35-1.349h1.687 1.686v1.349zm67.906 43.285v44.633h-3.598-3.597v-34.247l-.299-34.655c-.418-.573-1.987-.592-2.606-.033l-.468.425v34.255 34.255h-3.823-3.822V898.66l-.348-34.524c-.637-1.232-2.161-1.364-3.029-.261-.44.56-.446.998-.446 34.602v34.035h-3.376-3.376l-.446.731c-.445.73-.445.718-.446-34.255l-.001-34.986-.467-.424c-.693-.627-2.159-.571-2.705.103-.415.513-.425 1.997-.425 60.986v60.461h-3.823-3.822l-.008-60.43-.299-60.814c-.689-.907-2.356-.963-2.96-.099-.29.412-.331 8.077-.331 60.907v60.436h-3.821-3.821l-.058-60.558-.464-60.964c-.559-.559-2.007-.574-2.61-.029l-.469.425v60.563 60.563h-3.597-3.598v-70.941-70.942h31.479 31.48v44.634zm194.386-44.137c-.752.431-.998.918-.998 1.977 0 1.163.314 1.678 1.239 2.029 1.548.589 3.019-.423 3.019-2.077 0-1.667-1.83-2.75-3.26-1.929zm7.29.385c-1.243 1.244-.658 3.426 1.003 3.738 1.06.198 2.242-.354 2.599-1.215.371-.896.157-1.721-.656-2.534-.895-.895-2.043-.891-2.946.011zm7.817-.148c-1.268 1.014-.995 3.23.465 3.785 2.013.765 3.819-1.121 2.934-3.063-.554-1.218-2.313-1.591-3.399-.722zm8.053-.235c-1.085.626-1.484 1.763-1.032 2.941.527 1.373 2.966 1.613 3.845.379 1.351-1.898-.826-4.468-2.813-3.32zm7.645 0c-1.013.584-1.382 1.548-1.059 2.762.392 1.47 2.88 1.88 3.86.636 1.457-1.854-.779-4.567-2.801-3.398zm7.645-.002c-1.635.937-1.482 3.437.246 4.007 1.639.542 3.014-.409 3.014-2.083 0-1.632-1.858-2.728-3.26-1.924zm7.29.385c-1.212 1.213-.678 3.377.919 3.728 1.128.248 2.13-.232 2.583-1.236.341-.755.357-.985.114-1.573-.66-1.593-2.479-2.055-3.616-.919zm7.686-.005c-.554.518-.698.837-.698 1.544 0 1.739 1.524 2.704 3.178 2.013 1.067-.446 1.543-1.774 1.007-2.81-.789-1.527-2.304-1.851-3.487-.747zm7.768-.137c-.887.71-1.077 2.253-.384 3.131.966 1.223 3.237.946 3.822-.466.371-.896.157-1.721-.656-2.534s-1.872-.859-2.782-.131zm39.295 2.177c-.582.236-1.084 1.385-.882 2.021.083.261.364.673.625.916.464.433.899.442 20.361.442h19.887l.426-.491c.883-1.018.689-2.478-.383-2.886-.723-.274-39.355-.276-40.034-.002zm-352.887 1.356c-.543.542-.592 1.721-.1 2.423l.35.5H322h25.737l.451-.731c.491-.796.431-1.578-.173-2.249-.334-.37-1.859-.393-25.953-.393-25.299 0-25.604.005-26.048.45zm423.887 1.075c-.677.707-3.728 4.079-5.231 5.783-.545.618-1.092 1.196-1.216 1.284s-.225.602-.225 1.141c0 1.294.542 1.847 1.809 1.847 1.077 0 .588.448 5.612-5.148l1.405-1.56c.981-1.089 1.18-1.453 1.18-2.153 0-1.749-2.084-2.495-3.334-1.194zm7.63.442a164.14 164.14 0 0 0-5.508 6.093c-1.347 1.622-.963 3.271.828 3.558.826.132.904.083 2.474-1.538.891-.921 2.327-2.477 3.191-3.46s1.734-1.938 1.932-2.123c1.523-1.421.887-3.598-1.051-3.598-.694 0-.999.175-1.866 1.068zm8.374-.449c-.355.34-1.251 1.322-1.991 2.182s-1.742 1.973-2.225 2.473c-1.58 1.639-2.607 3.075-2.607 3.646 0 .655 1.124 1.875 1.725 1.87.979-.007 1.486-.408 3.914-3.096l3.321-3.637c1.186-1.253 1.456-1.918 1.153-2.836-.298-.902-.786-1.221-1.868-1.221-.542 0-.973.187-1.422.619zm7.716.365c-.515.541-1.543 1.67-2.285 2.508l-2.622 2.879c-1.306 1.39-1.619 2.171-1.321 3.289.195.732 1.043 1.178 1.98 1.042.759-.11 1.105-.424 3.762-3.405a150.42 150.42 0 0 1 2.546-2.775c1.769-1.864 2.064-2.967 1.062-3.97-.914-.914-1.984-.766-3.122.432zm-199.915.462c.177.176.321.386.321.465s.304.586.675 1.125.674 1.08.674 1.202.076.255.169.297.464.631.824 1.311a34.15 34.15 0 0 0 1.518 2.518c.474.704.862 1.336.862 1.405s-34.149.125-75.886.125h-75.887l.439-.506c.542-.625 3.688-4.697 5.211-6.746l1.128-1.517h69.816l70.136.321zm-427.783 1.835c-.582.489-.692.741-.692 1.584 0 1.656 1.471 2.708 2.937 2.1.928-.384 1.336-1.043 1.336-2.161 0-.775-.122-1.044-.692-1.523-.443-.373-.963-.583-1.444-.583s-1.002.21-1.445.583zm7.645 0c-1.329 1.118-.747 3.385.98 3.819.718.18 1.83-.253 2.272-.885.396-.565.42-2.142.04-2.637-.783-1.019-2.273-1.154-3.292-.297zm7.645 0c-1.207 1.015-.837 3.071.664 3.692.782.324 1.499.181 2.318-.463.499-.393.598-.647.592-1.523-.008-1.122-.259-1.607-1.047-2.027-.809-.431-1.78-.308-2.527.321zm7.611.075c-1.103 1.103-.799 2.862.621 3.588.659.338 1.243.317 1.99-.071.847-.439.996-.737 1-1.992.005-1.437-.687-2.183-2.027-2.183-.725 0-1.07.144-1.584.658zm7.764-.106c-.731.731-.783 2.488-.096 3.226 1.344 1.442 3.817.445 3.817-1.538 0-1.921-2.399-3.009-3.721-1.688zm8.105-.292c-.766.419-1.012.91-1.012 2.021 0 .949.085 1.134.752 1.643.815.621 1.473.716 2.243.322.835-.427 1.267-1.156 1.273-2.146.004-.772-.116-1.037-.687-1.517-.74-.623-1.782-.753-2.569-.323zm7.645.012c-.743.426-.997.915-1.004 1.931-.012 1.617 1.476 2.666 2.929 2.064.928-.384 1.336-1.043 1.336-2.161 0-.775-.122-1.044-.692-1.523-.745-.627-1.795-.755-2.569-.311zm7.354.287c-.612.515-.721.756-.721 1.608 0 1.656 1.471 2.708 2.937 2.1.923-.382 1.337-1.044 1.328-2.124-.01-1.248-.631-1.944-1.86-2.082-.809-.091-1.079-.011-1.684.498zm7.668-.015c-.543.466-.629.702-.615 1.681.013.905.126 1.234.548 1.599 1.095.95 2.511.758 3.377-.459 1.477-2.074-1.364-4.496-3.31-2.821zm190.382.74c-.763.281-1.124.824-1.124 1.69 0 .909.219 1.264 1.058 1.713.781.418 12.266.358 13.091-.069 1.092-.565 1.274-2.031.364-2.941l-.552-.552-6.25.018c-3.437.009-6.402.073-6.587.141zm-301.978.502c-4.186.61-8.294 3.575-10.134 7.312-1.181 2.399-1.559 3.982-1.559 6.53 0 5.317 2.524 9.701 7.061 12.261 1.854 1.047 4.474 1.771 6.448 1.784 1.59.01 2.231-.553 2.231-1.958 0-1.223-.815-1.855-2.396-1.86-1.079-.003-2.379-.361-3.9-1.074-1.042-.489-1.206-.616-2.736-2.116-1.991-1.953-2.886-4.142-2.886-7.062 0-2.941 1.023-5.259 3.272-7.418 2.12-2.034 4.823-2.97 7.793-2.699 1.433.13 1.792.229 3.477.957 1.817.785 4.387 3.478 5.01 5.25.469 1.333.892 3.221.908 4.047.008.433.139.95.29 1.148.683.896 2.616.801 3.049-.15.522-1.146.173-4.536-.653-6.336-.24-.524-.437-1.01-.437-1.08 0-.38-1.928-2.859-3.067-3.942-3.021-2.875-7.445-4.225-11.773-3.594zm734.371 1.801c-1.686.303-3.881 1.128-5.223 1.963-.461.287-1.077.522-1.368.522-.487 0-2.797.66-3.864 1.104-1.359.566-2.816 1.317-3.711 1.913-1.474.982-1.506 1.009-3.139 2.604-2.635 2.574-4.214 5.572-5.092 9.669-.42 1.963-.419 7.897.003 9.489.573 2.165 1.748 5.218 2.145 5.576.069.062.372.568.674 1.124.763 1.407 1.573 2.497 3.333 4.486 1.488 1.682 3.041 3.128 6.1 5.682.255.213.896.667 1.424 1.01s1.011.674 1.073.737.387.257.723.43c.542.279.783.26 2.141-.169.842-.265 2.743-.634 4.224-.819 2.4-.299 2.988-.298 5.392.007 1.484.188 3.345.548 4.136.799 1.235.391 1.537.416 2.136.171.384-.157.832-.416.995-.576s.423-.29.576-.29.475-.18.715-.4.789-.648 1.22-.953.94-.706 1.132-.893.941-.846 1.666-1.465c2.691-2.296 6.301-7.031 7.635-10.015.927-2.072 1.021-2.351 1.706-5.05.544-2.143.236-7.565-.62-10.908-.396-1.546-1.794-4.391-2.816-5.731-1.456-1.908-4.796-4.834-5.518-4.834-.122 0-.255-.08-.297-.177-.206-.486-4.262-2.076-6.196-2.429-.467-.085-1.511-.485-2.32-.89-3.064-1.532-6.385-2.155-8.985-1.687zm-539.873 1.135v1.125h-26.083-26.083v-1.125-1.124h26.083 26.083v1.124zm35.761-.183c-.566.608-.598 1.763-.066 2.411l.394.479 25.745-.061 25.746-.06.434-.81c.429-.802.429-.817-.012-1.574l-.447-.764-25.667-.057-25.667-.057-.46.493zm504.562 21.657c0 17.733-.022 18.775-.394 18.772-.555-.005-.744-.175-1.742-1.571-.487-.68-.947-1.287-1.023-1.349-.7-.57-4.936-7.931-4.936-8.576 0-.109-.19-.627-.423-1.151-.63-1.419-.748-1.795-1.64-5.226-.18-.694-.287-2.415-.279-4.497.013-3.633.365-5.472 1.537-8.032.729-1.596 2.315-3.732 3.413-4.597 1.388-1.094 4.14-2.457 5.093-2.522.372-.025.394 1.007.394 18.749zm4.722-18.491c4.628 1.633 7.412 5.04 8.771 10.733.412 1.723.369 6.672-.076 8.77-.996 4.7-3.166 9.484-6.425 14.166-.56.803-1.075 1.512-1.144 1.574s-.461.542-.87 1.068c-1.459 1.874-1.38 2.886-1.38-17.82l.168-18.772c.093.002.523.128.956.281zm-739.094.134c-1.096.24-2.787 1.228-3.924 2.294-.946.886-1.651 2.067-2.128 3.561-.319 1-.313 4.101.009 4.903.71 1.762 1.267 2.634 2.236 3.5 1.56 1.393 1.637 1.441 3.423 2.16.429.172 3.462.253 9.53.253h8.901l.441-.506c.341-.391.417-.728.333-1.482-.06-.536-.226-1.092-.369-1.236-.185-.186-2.756-.294-8.851-.374l-8.59-.113-1.012-.597c-1.347-.794-1.931-1.511-2.332-2.861-.724-2.436.731-4.966 3.326-5.784 1.106-.349 1.259-.348 2.328.006 1.978.657 3.286 2.205 3.533 4.181.219 1.753.56 2.132 1.915 2.132 1.45 0 1.782-.425 1.792-2.294.007-1.402-.108-1.834-.964-3.624-.558-1.166-2.509-2.978-3.92-3.641-1.117-.526-4.251-.789-5.676-.478zm162.794 13.336c0 12.953-.083 12.329 1.648 12.329 1.828 0 1.725.73 1.725-12.29v-11.545h1.911 1.912v11.506c0 12.953-.084 12.329 1.647 12.329 1.828 0 1.725.73 1.725-12.29v-11.545h10.344 10.343v49.356 49.355h-2.249-2.248v-6.788c0-6.659-.009-6.797-.489-7.307s-.579-.521-4.912-.521c-4.21 0-4.444.023-4.851.473-.399.44-.433.955-.494 7.308l-.066 6.835h-2.689-2.689v-14.123c0-11.842-.051-14.193-.319-14.559-.298-.408-.625-.437-4.937-.437-4.354 0-4.637.026-4.958.45-.294.39-.34 2.327-.346 14.559l-.008 14.11h-2.689-2.688l-.066-6.835c-.061-6.353-.096-6.868-.494-7.308-.408-.45-.641-.473-4.848-.473-4.137 0-4.451.03-4.912.459-.485.452-.492.551-.492 7.308v6.849h-2.361-2.361V909.69v-49.356h10.456 10.455v11.506zm140.209-10.331c-.301.429-.35 1.617-.35 8.442v7.942l.552.552c.547.547.59.552 4.795.552 4.145 0 4.255-.012 4.733-.52.483-.515.488-.614.488-8.622 0-7.563-.027-8.127-.411-8.474-.354-.321-1.041-.372-4.934-.372-4.419 0-4.531.011-4.873.5zm181.782 13.553v12.929h-17.441c-12.829 0-17.571.069-17.932.262-.968.515-1.039.82-1.047 4.516l-.007 3.542h-1.799-1.798v-3.694c0-3.059-.061-3.755-.354-4.048-.307-.307-1.359-.353-8.151-.35-4.288.002-7.909.078-8.045.169-.621.415-.764 1.263-.764 4.516v3.368l-2.599.076c-3.102.09-3.221.18-3.686 2.792l-.296 1.668h-44.282c-48.304 0-44.925-.095-44.925 1.259 0 .339.168.802.372 1.028.359.396 2.034.411 44.433.411l43.927.347c-.073.19-.341 1.683-.595 3.316l-.661 3.87c-.108.494-.265 1.557-.348 2.361-.132 1.29-.093 1.534.336 2.08.383.487.674.618 1.37.618.859 0 .883.021.883.787v.787H443.23c-48.734 0-45.362-.097-45.354 1.306.004.731.178 1.018.825 1.358.365.193 11.822.259 44.689.259h44.199v7.645 7.645h-34.378-34.379l-.147-.618a24.36 24.36 0 0 0-.264-1.012c-.105-.353.079-.394 1.796-.394 2.644 0 2.615.053 2.611-4.716-.002-2.043-.061-3.931-.131-4.194-.245-.91-.884-.983-8.615-.983-7.125 0-7.4.016-7.972.466l-.593.466v3.806 3.806h-5.509-5.508v-35.189-35.19h78.249 78.249v12.929zm268.293-9.818c1.445 1.546 2.562 3.434 3.282 5.546.659 1.937.822 3.134.824 6.071.002 2.683-.074 3.38-.515 4.722-.787 2.393-2.635 5.881-3.634 6.858-.063.062-.416.517-.784 1.012-1.125 1.512-4.903 5.109-6.568 6.252-1.267.871-1.69 1.052-2.17.932-.711-.179-.735-.317-.162-.932.885-.951 3.878-5.79 4.952-8.008 1.033-2.132 2.296-5.515 2.745-7.351.842-3.444 1.141-8.648.631-10.974l-.466-2.18c-.229-1.094-1.02-3.37-1.328-3.822-.084-.124-.218-.408-.298-.631-.209-.583 2.259 1.187 3.491 2.505zm-30.806-2.065c-.72 1.396-1.327 3.3-1.741 5.462-.378 1.976-.435 7.407-.093 8.964l.472 2.179c.683 3.188 3.547 9.867 5.201 12.133.094.129.635.942 1.201 1.808s1.223 1.783 1.459 2.038c.555.601.542.696-.124.863-.404.101-.841-.058-1.63-.594-.592-.403-1.128-.785-1.189-.849s-.467-.403-.9-.753c-1.541-1.246-4.987-4.73-5.682-5.745-.389-.567-.867-1.204-1.062-1.415-.516-.559-2.481-4.514-2.738-5.51-.747-2.901-.781-7.354-.076-9.958.335-1.235 1.778-4.379 2.234-4.867.133-.143.593-.708 1.023-1.257s1.239-1.343 1.799-1.764 1.067-.828 1.129-.903c.138-.167.76-.389.859-.307.04.033-.024.247-.142.475zm-575.317 1.028c-.309.441-.35 2.435-.35 17.054 0 15.84.018 16.576.42 17.039.503.581 1.926.651 2.615.13.441-.333.451-.639.511-15.845l.061-15.505h1.794 1.794v15.402c0 15.103.009 15.411.45 15.852.622.622 2.035.609 2.607-.023.413-.457.428-1.066.428-17.161 0-15.323-.03-16.719-.377-17.066-.329-.328-.972-.377-4.99-.377-4.512 0-4.621.011-4.963.5zm32.254-.104c-.294.33-.338 2.551-.338 17.057 0 16.085.016 16.694.429 17.151.572.632 1.985.645 2.607.023.441-.441.45-.749.45-15.852V867.08h1.794 1.794l.061 15.505c.06 15.206.069 15.512.51 15.845.704.532 2.096.451 2.599-.152.404-.484.422-1.201.429-16.984.007-14.799-.029-16.535-.355-17.033l-.363-.554-4.64.009c-4.063.007-4.682.055-4.977.387zm22.71 5.9v5.396h-1.687-1.686v-5.396-5.397h1.686 1.687v5.397zm17.988 0v5.396h-1.686-1.687v-5.396-5.397h1.687 1.686v5.397zm89.717 0v5.396h-1.687-1.686v-5.396-5.397h1.686 1.687v5.397zm30.13.674c-.416.417-.449.745-.442 4.441.005 2.962.084 4.093.305 4.385.275.362.95.393 8.431.393h8.132l.232-.612c.14-.367.205-2.22.164-4.618-.057-3.262-.133-4.045-.408-4.219-.195-.123-3.63-.214-8.151-.216-7.516-.003-7.83.014-8.263.446zm29.378-.038c-.318.351-.372 1.015-.372 4.565 0 2.93.08 4.232.27 4.423.387.386 16.162.386 16.549 0 .191-.191.27-1.533.27-4.602 0-4.053-.028-4.347-.435-4.565-.276-.147-3.269-.232-8.172-.232-7.211 0-7.763.028-8.11.411zm29.477-.168c-.353.205-.393.672-.393 4.557 0 3.067.079 4.408.27 4.599.387.386 16.162.386 16.549 0 .191-.191.27-1.506.27-4.481 0-3.529-.058-4.269-.353-4.565-.308-.308-1.357-.352-8.151-.347-4.877.005-7.946.093-8.192.237zm29.602-.071c-.631.421-.764 1.261-.764 4.822 0 2.962.068 3.772.35 4.175l.35.499h8.074c7.752 0 8.083-.017 8.307-.434.136-.254.233-2.122.233-4.482 0-3.378-.059-4.104-.354-4.399-.307-.308-1.359-.353-8.151-.35-4.288.002-7.909.078-8.045.169zm29.141.277c-.416.417-.449.745-.442 4.441.005 2.962.084 4.093.306 4.385.275.362.949.393 8.43.393h8.132l.219-.576c.121-.318.219-2.268.219-4.335 0-3.037-.067-3.854-.35-4.257l-.35-.5h-7.857c-7.557 0-7.874.017-8.307.449zm-368.175.114c-.615.465-.638 2.274-.035 2.715.367.269 2.955.319 16.323.319 15.105 0 15.905-.02 16.259-.411.513-.567.49-2.11-.039-2.589-.375-.339-1.821-.372-16.246-.365-13.429.006-15.899.056-16.262.331zm264.743 4.384v2.248h-5.846-5.847v-2.248-2.249h5.847 5.846v2.249zm29.231 0v2.248h-5.846-5.847v-2.248-2.249h5.847 5.846v2.249zm29.456 0v2.248h-5.847-5.846v-2.248-2.249h5.846 5.847v2.249zm29.231 0v2.248h-5.734-5.734v-2.248-2.249h5.734 5.734v2.249zm29.68 0v2.248h-5.846-5.846v-2.248-2.249h5.846 5.846v2.249zm28.889 1.67c-.727.727-.758 1.948-.065 2.593.49.456.623.458 28.635.458l28.908.244c4.109 1.312 6.432 4.481 6.233 8.508-.182 3.691-2.417 6.432-6.233 7.645-.498.158-4.109.243-10.358.243-9.342 0-9.605.012-10.084.458-.732.682-.68 2.06.1 2.673.578.455.822.466 9.95.464 5.398 0 9.967-.1 10.799-.235 3.831-.622 7.706-3.964 8.849-7.633.686-2.199.881-3.918.62-5.452-.837-4.932-3.323-8.087-7.763-9.855l-1.349-.538-28.842-.065-28.842-.066-.558.558zm-491.566 1.029c-1.094.441-1.311 2.074-.39 2.939l.58.545h9.4 9.4l.468-.562c.65-.782.621-1.906-.07-2.596l-.552-.552-9.173.014c-5.045.008-9.394.103-9.664.212zm292.053 3.892c-.635.676-.65 1.92-.03 2.585.452.485.558.492 7.083.492 6.325 0 6.645-.02 7.074-.449.634-.634.611-2.082-.042-2.69-.472-.44-.761-.458-7.044-.458h-6.551l-.49.52zm31.138.341c-.491.543-.472 1.451.04 1.914.38.345 5.829.373 73.848.373l73.79-.354c.477-.477.447-1.516-.058-1.973-.381-.344-5.828-.372-73.829-.372l-73.791.412zm263.494 4.134c-.899.519-1.124.922-1.124 2.009 0 .822.121 1.199.512 1.59.621.621 2.455.725 3.01.17 1.097-1.097 1.131-2.245.098-3.278-.811-.811-1.654-.977-2.496-.491zm7.645 0c-.899.519-1.124.922-1.124 2.009 0 1.497.615 2.102 2.136 2.102s2.136-.605 2.136-2.102c0-1.775-1.688-2.852-3.148-2.009zm7.173.491c-1.033 1.033-.999 2.181.098 3.278.555.555 2.388.451 3.01-.17s.725-2.455.17-3.01c-1.097-1.097-2.245-1.131-3.278-.098zm7.853-.197c-.816.644-1.097 1.55-.756 2.446.392 1.031.861 1.338 2.075 1.355.958.014 1.198-.075 1.662-.615.582-.676.723-1.872.312-2.642-.284-.531-1.365-1.112-2.062-1.109-.285.001-.838.256-1.231.565zm7.882-.138c-1.931 1.178-1.034 4.068 1.263 4.068 1.909 0 2.77-2.496 1.326-3.845-.816-.763-1.594-.83-2.589-.223zm7.734-.079c-1.849 1.003-1.27 3.805.838 4.057 1.208.144 1.914-.278 2.316-1.385.298-.823.294-.992-.048-1.712-.591-1.244-1.859-1.637-3.106-.96zm7.72-.037c-1.136.63-1.443 2.011-.715 3.207.695 1.139 2.613 1.284 3.534.266.526-.582.574-2.425.075-2.924-.875-.874-1.941-1.077-2.894-.549zm7.299.444c-1.078 1.016-1.057 2.169.06 3.285.555.555 2.388.451 3.01-.17s.725-2.455.17-3.01c-1.082-1.082-2.166-1.118-3.24-.105zm7.645 0c-1.078 1.016-1.057 2.169.06 3.285.555.555 2.388.451 3.01-.17s.725-2.455.17-3.01c-1.082-1.082-2.166-1.118-3.24-.105zm-316.672 1.841c-.486.34-.499.464-.492 4.441.005 3.045.083 4.191.305 4.484.275.362.939.394 8.256.39 4.622-.002 8.1-.093 8.295-.216.281-.178.338-.947.338-4.615s-.057-4.436-.338-4.614c-.195-.124-3.601-.215-8.1-.217-6.667-.003-7.835.046-8.264.347zm29.309.003c-.499.5-.527 8.499-.032 8.994.267.267 1.682.322 8.275.322 5.886 0 8.024-.07 8.223-.27.191-.191.27-1.532.27-4.602 0-4.052-.028-4.346-.435-4.564-.276-.148-3.274-.233-8.191-.233-6.751 0-7.802.046-8.11.353zm29.496-.11c-.353.206-.393.672-.393 4.558 0 3.066.079 4.407.27 4.598.199.2 2.348.27 8.274.27s8.075-.07 8.275-.27c.191-.191.27-1.505.27-4.481 0-3.529-.058-4.269-.353-4.565-.308-.308-1.357-.352-8.151-.346-4.877.004-7.946.093-8.192.236zM229.6 889.806l-.593.466v16.765 16.765l.484.42c.59.511 1.713.544 2.389.07l.5-.35V908.44v-15.502h1.911 1.912v15.502 15.502l.499.35c.677.474 1.8.441 2.389-.07l.484-.42v-16.765-16.765l-.592-.466c-.55-.432-.885-.466-4.692-.466s-4.141.034-4.691.466zm139.818.986l-.552.551v8.003 8.003l.566.566.565.565 4.246-.07c3.802-.062 4.295-.114 4.719-.498.463-.42.472-.582.472-8.585v-8.157l-.653-.465c-.602-.429-.969-.465-4.732-.465-4.031 0-4.086.006-4.631.552zm50.715 2.371v2.248h-5.846-5.847v-2.248-2.249h5.847 5.846v2.249zm29.231 0v2.248h-5.846-5.847v-2.248-2.249h5.847 5.846v2.249zm29.456 0v2.248h-5.847-5.846v-2.248-2.249h5.846 5.847v2.249zm29.231 0v2.248h-5.734-5.734v-2.248-2.249h5.734 5.734v2.249zm-311.198.899v2.249h-13.716-13.716v-2.249-2.248h13.716 13.716v2.248zm354.145 0v2.249h-16.415-16.414v-2.249-2.248h16.414 16.415v2.248zm-282.866 5.284v5.284h-1.687-1.686v-5.284-5.284h1.686 1.687v5.284zm17.988 0v5.284h-1.686-1.687v-5.284-5.284h1.687 1.686v5.284zm89.717 0v5.284h-1.687-1.686v-5.284-5.284h1.686 1.687v5.284zm480.624-4.571c-4.08 1.376-6.188 4.195-6.18 8.265.006 3.281 1.452 5.826 4.172 7.345 2.039 1.138 2.72 1.21 11.411 1.213 8.22.003 8.666-.039 9.309-.877.471-.613.348-1.909-.232-2.454-.515-.483-.61-.489-8.751-.489-7.539 0-8.312-.035-9.204-.42-3.89-1.677-3.885-7.075.008-8.706 1.53-.641 3.711-.205 4.985.996.645.608 1.346 2.153 1.543 3.397.221 1.398.385 1.587 1.512 1.737.681.091 1.012.004 1.519-.395.635-.501.645-.543.53-2.23-.13-1.899-.761-3.429-1.991-4.829-.997-1.136-1.764-1.631-3.505-2.263-1.635-.593-3.856-.719-5.126-.29zm-800.614 1.002c-.448.54-.38 1.987.12 2.539.422.467.452.468 20.478.468 19.143 0 20.072-.019 20.427-.411.514-.568.49-2.11-.039-2.59-.376-.34-2.126-.372-20.546-.372-18.319 0-20.163.033-20.439.366zm650.638.642c-3.772.951-7.422 3.68-9.024 6.75-1.398 2.677-1.737 4.02-1.731 6.858.007 3.001.36 4.539 1.533 6.674.967 1.758 1.041 1.857 2.589 3.437 1.417 1.447 4.087 3.012 6.003 3.519.717.189 2.097.362 3.065.384 1.603.036 1.799-.008 2.192-.492.555-.682.553-1.846-.005-2.489-.332-.383-.819-.552-2.036-.705-3.367-.422-5.514-1.576-7.533-4.044-.399-.489-1.055-1.718-1.782-3.339-.133-.298-.238-1.613-.234-2.923.007-2.297.037-2.444.85-4.07 3.753-7.508 13.122-8.21 17.848-1.337.869 1.263 1.644 3.558 1.644 4.871 0 1.094.464 2.184 1.021 2.398.784.3 1.628.127 2.208-.453.5-.501.593-.79.592-1.855-.003-2.41-1.181-5.831-2.67-7.754-.47-.608-2.483-2.621-3.089-3.09-.508-.393-2.846-1.629-3.571-1.887-2.219-.79-5.73-.993-7.87-.453zm-502.66 5.626v2.136h-23.16-23.16v-2.136-2.137h23.16 23.16v2.137zm374.58-.956l.483 2.642.446 2.473a116.99 116.99 0 0 1 .45 2.586c.141.866.349 1.94.463 2.387s.207.928.207 1.068c0 .19-11.806.255-45.789.255h-45.789l.149-1.068c.082-.587.244-1.574.36-2.192s.319-1.883.451-2.811.33-2.142.441-2.698l.475-2.417.272-1.406h43.575 43.575l.231 1.181zm221.619.174c-2.275.393-2.608.509-3.287 1.144l-.693.647.083 3.88c.09 4.221.143 4.42 1.502 5.73 1.282 1.234 1.865 1.41 4.672 1.41 2.263 0 2.652-.059 3.507-.536.529-.295 1.314-1.023 1.745-1.619l.784-1.082.085-3.889.085-3.889-.664-.619c-.365-.341-1.118-.742-1.674-.89-1.371-.367-4.768-.526-6.145-.287zm-92.998 1.319c-1.923.752-4.251 2.717-4.251 3.587 0 .143-.102.26-.225.26s-.225.182-.225.405-.087.501-.194.618c-.289.318-.706 2.203-.703 3.18.006 1.914 1.013 4.418 2.301 5.723 1.033 1.045 1.462 1.356 2.756 1.997l1.124.557 9.011.067c8.508.064 9.04.045 9.528-.35.678-.549.756-2.055.141-2.734-.415-.458-.603-.469-8.384-.469-5.062 0-8.32-.09-8.947-.248-1.266-.319-2.626-1.488-3.233-2.779-.822-1.75-.551-3.3.86-4.906.984-1.121 1.866-1.511 3.423-1.511 1.461 0 1.923.196 3.183 1.349 1.002.917 1.501 1.963 1.501 3.145 0 1.101.873 2.027 1.911 2.027.485 0 .923-.197 1.319-.593 1.63-1.63-.162-6.352-3.186-8.396-2.014-1.362-5.523-1.785-7.71-.929zm-493.655 1.926l-.552.552.003 16.593.169 16.84c.582.872 2.102.984 2.874.213l.552-.552v-15.3-15.301h1.798 1.799v15.364 15.363l.521.489c.647.608 1.724.634 2.434.059l.53-.43v-16.791-16.792l-.53-.429c-.481-.39-.932-.43-4.789-.43-4.22 0-4.262.005-4.809.552zm32.245-.122l-.531.429v16.792 16.791l.531.43c.737.597 1.859.555 2.466-.091l.489-.52v-15.332-15.332h1.798 1.799v15.301 15.3l.552.552c.73.73 1.887.744 2.557.031l.489-.52v-16.665-16.664l-.593-.466c-.551-.434-.883-.466-4.809-.466-3.817 0-4.267.04-4.748.43zm558.107.488l1.135.243v2.085c0 1.901-.048 2.137-.551 2.68-.489.527-.72.595-2.034.595-1.274 0-1.56-.078-2.034-.553-.509-.508-.552-.719-.552-2.684v-2.133l.955-.214c1.322-.297 1.775-.299 3.081-.019zm-777.004.64c-.671.291-1.095 1.626-.732 2.305.442.826.803 1.084 1.518 1.084.691 0 2.333.647 2.991 1.178.603.486 1.316 1.932 1.316 2.666 0 1.418.755 2.227 2.078 2.227 1.298 0 1.892-.557 2.097-1.963.086-.59.299-1.354.474-1.698.72-1.418 2.37-2.41 4.008-2.41 1.406 0 1.974-1.982.881-3.075-.537-.537-.694-.573-2.08-.471-1.695.125-3.152.728-4.456 1.844l-.872.746-.86-.743c-.473-.409-1.32-.96-1.883-1.225-1.133-.532-3.709-.8-4.481-.465zm379.53.913l-.731.445V911c0 3.714.042 4.166.412 4.501s1.275.372 8.306.372h7.896l.35-.5c.283-.404.349-1.212.347-4.216-.002-2.044-.061-3.931-.131-4.194-.244-.909-.889-.984-8.477-.983-6.822.001-7.283.027-7.972.447zm29.512-.179c-.247.14-.524.365-.615.499s-.166 2.098-.168 4.364c-.003 3.274.062 4.185.317 4.441.267.266 1.682.321 8.275.321 5.886 0 8.024-.07 8.223-.27.191-.191.27-1.533.27-4.603v-4.335l-.663-.342c-.556-.288-1.847-.342-7.926-.337-4.989.005-7.404.087-7.713.262zm29.344.022l-.563.284-.061 4.35c-.042 3.017.018 4.444.196 4.659.352.424 16.15.462 16.572.04.302-.301.391-8.42.098-8.859-.464-.696-1.228-.765-8.414-.761-5.404.002-7.41.076-7.828.287zm-261.28 27.142v25.633h-2.011c-1.775 0-2.082.061-2.613.517-.519.447-.617.737-.716 2.119l-.115 1.602-.527-.627c-.742-.882-2.252-1.279-3.349-.882-2.737.989-3.052 4.611-.518 5.946 1.34.705 3.559.147 4.168-1.047.232-.455.278.043.281 3.013l.003 3.559-.556-.661c-.772-.917-2.26-1.321-3.378-.917-2.737.99-3.052 4.612-.518 5.946 1.332.701 3.756.059 4.233-1.12.114-.281.197 1.453.205 4.306l.014 4.779h-19-19v-38.9-38.9h21.698 21.699v25.634zm216.309-22.373v2.136h-5.846-5.847v-2.136-2.136h5.847 5.846v2.136zm29.231 0v2.136h-5.846-5.847v-2.136-2.136h5.847 5.846v2.136zm29.456 0v2.136h-5.847-5.846v-2.136-2.136h5.846 5.847v2.136zm-111.714.183c-.575.613-.641 1.844-.134 2.515.322.428.646.453 6.569.52 3.427.038 6.544.011 6.927-.06 1.177-.22 1.661-2.15.765-3.046-.429-.429-.749-.45-7.044-.45h-6.593l-.49.521zm-273.685 1.047c-.309.1-1.169.358-1.911.573-2.662.771-4.736 2.052-7.069 4.367-2.672 2.65-4.137 5.204-4.972 8.67-.465 1.93-.486 41.451-.022 43.172.859 3.189 2.209 5.788 4.075 7.845.674.743 1.295 1.286 3.778 3.304 1.16.943 6.093 2.679 7.613 2.679h.534l.007 3.317c.008 3.757.119 4.073 1.493 4.256.661.089 1.005.002 1.479-.372l.618-.488v-11.974-11.974l-.52-.489c-.621-.583-1.849-.649-2.578-.139-.498.349-.5.377-.5 7.196 0 5.832-.048 6.845-.326 6.845-.406 0-2.443-.546-3.496-.938-2.243-.832-5.462-3.652-6.705-5.872-2.292-4.094-2.279-3.96-2.285-24.764-.005-20.358-.002-20.403 1.866-23.965 1.978-3.772 4.884-6.083 9.357-7.442 1.338-.406 5.403-.361 6.986.077 2.634.729 5.8 2.668 7.065 4.326.315.414.708.887.872 1.052.486.488 1.649 2.729 2.217 4.268l.526 1.429v20.237 20.237l-.526 1.429c-1.482 4.021-3.983 6.923-7.394 8.58-1.497.727-1.861 1.157-1.861 2.2 0 1.686 1.575 2.31 3.438 1.363 2.58-1.312 6.292-4.522 7.13-6.166.185-.363.394-.711.464-.773.442-.393 1.741-3.547 2.269-5.509.449-1.668.445-41.354-.004-42.835-.651-2.144-.999-3.091-1.445-3.935-.935-1.767-1.238-2.251-2.097-3.346-.806-1.025-2.132-2.249-4.133-3.81-.74-.578-3.111-1.69-4.385-2.057l-2.001-.591c-.802-.248-6.782-.235-7.555.017zm552.577-.06c-.247.058-1.332.397-2.41.754-6.551 2.166-11.138 7.879-12.071 15.032-.149 1.144-.247 6.145-.247 12.663v10.773l.634.94c.989 1.466 1.266 2.38 1.272 4.2s-.408 3.169-1.362 4.426c-.449.591-.544.978-.544 2.214v1.497l1.65 1.777c2.915 3.137 3.445 4.922 2.73 9.199-.116.694-.028.894.741 1.686 2.636 2.718 5.315 4.252 9.007 5.159.783.193 1.61.35 1.839.35.382 0 .421.268.488 3.334.063 2.934.124 3.385.506 3.766.589.588 2.141.588 2.73-.001.417-.417.434-.881.434-12.399 0-11.452-.019-11.987-.429-12.439-.62-.686-2.005-.646-2.729.078l-.552.552v6.644c0 6.294-.022 6.643-.413 6.643-.786 0-4.659-1.401-4.984-1.802-.062-.077-.568-.45-1.124-.83-2.559-1.748-4.622-4.796-5.574-8.234-.349-1.261-.385-3.17-.385-20.726s.036-19.465.385-20.726c.955-3.451 2.689-5.994 5.761-8.449.271-.216.584-.393.696-.393s.237-.081.279-.179c.093-.222 2.147-1.104 3.66-1.572.739-.228 2.002-.352 3.61-.352 2.559 0 3.6.214 5.971 1.226.673.287 1.358.652 1.521.812s.41.29.547.29 1.067.838 2.064 1.863c1.874 1.925 2.821 3.44 3.755 6.006l.532 1.462v20.012 20.012l-.532 1.461c-.93 2.555-1.882 4.095-3.627 5.867-1.507 1.529-2.397 2.18-4.579 3.346-1.354.723-1.605 2.164-.548 3.148.688.641 1.713.572 3.21-.216 2.909-1.53 4.991-3.4 6.799-6.107 1.505-2.255 1.917-3.196 2.791-6.375.456-1.659.456-40.613 0-42.272-.874-3.18-1.286-4.12-2.791-6.375-2.252-3.373-5.552-5.944-8.973-6.994l-2.295-.707c-.659-.205-6.611-.24-7.443-.044zm-477.955.225c-1.505.231-2.666 2.232-2.232 3.844.694 2.577 3.939 3.266 5.644 1.198 1.048-1.272.903-3.218-.324-4.353-.41-.38-1.807-.88-2.272-.813l-.816.124zm8.501.157c-.473.175-.886.352-.916.394-.874 1.199-1.035 1.602-1.035 2.591 0 .88.13 1.251.664 1.9 2.244 2.722 6.57.512 5.622-2.873-.501-1.791-2.463-2.701-4.335-2.012zm9.179-.164c-.906.24-1.895 1.202-2.13 2.073-.478 1.778.279 3.35 1.916 3.975.87.332 1.15.348 1.95.108 3.334-.999 3.029-5.76-.395-6.168-.49-.059-1.094-.053-1.341.012zm8.852 0c-.831.138-1.882 1.159-2.2 2.138-.764 2.354 1.603 4.757 3.944 4.004 2.108-.677 2.922-2.684 1.901-4.684-.587-1.152-2.021-1.726-3.645-1.458zm670.4 1.994c-.493.494-.567.728-.467 1.478.22 1.641-.397 1.548 10.267 1.548h9.602l.489-.52c.608-.647.634-1.724.059-2.434l-.43-.531-9.467-.064-9.467-.063-.586.586zm-821.999 1.863c-.234.259-.372.8-.372 1.457 0 1.254.418 1.609 2.162 1.838 1.957.256 3.685 2.157 3.685 4.053 0 1.126.812 1.91 1.979 1.91 1.241 0 1.798-.57 2.087-2.137.424-2.292 1.673-3.561 3.783-3.841 1.495-.198 2.094-.725 2.124-1.868.036-1.38-.508-1.823-2.241-1.823-1.322 0-1.8.112-3.236.759-.62.279-.692.327-1.737 1.164l-.725.581-.849-.68c-1.421-1.136-3.255-1.824-4.868-1.824-1.09 0-1.507.096-1.792.411zm535.004 13.755v13.941h-43.397-43.396v-13.941-13.941h43.396 43.397v13.941zm-303.552-9.107v4.61h-4.61-4.609v-4.61-4.609h4.609 4.61v4.609zm13.041 0v4.61h-4.722-4.722v-4.61-4.609h4.722 4.722v4.609zm428.982.795c-.469.274-.719 1.349-.523 2.245.29 1.317.506 1.345 10.275 1.344 8.413-.001 8.872-.022 9.568-.446.666-.407.731-.544.731-1.561 0-1.888.415-1.816-10.337-1.808-5.649.004-9.486.094-9.714.226zm-548.941.703c-2.614 1.436-2.295 5.092.526 6.023.977.322 2.248.057 3.038-.634 1.552-1.359 1.319-4.203-.428-5.229-.753-.441-2.465-.529-3.136-.16zm8.579.181c-1.811 1.159-2.01 3.876-.385 5.238.26.217.901.509 1.424.648.833.221 1.08.191 2.001-.244.834-.394 1.154-.714 1.548-1.548.444-.94.468-1.157.228-2.06-.298-1.123-.73-1.694-1.635-2.162-.832-.43-2.408-.367-3.181.128zm8.569.242c-2.057 1.696-1.392 4.868 1.182 5.64.736.22 1.046.2 1.896-.125 1.32-.504 1.998-1.446 2.019-2.806.032-2.111-1.174-3.393-3.191-3.393-.867 0-1.237.133-1.906.684zm9.385-.423c-2.615 1.436-2.295 5.092.526 6.023 1.436.474 3.048-.213 3.769-1.607.702-1.356.119-3.514-1.147-4.251-.765-.446-2.475-.535-3.148-.165zm303.928 1.159c-.481.512-.489.633-.489 7.861 0 7.262.006 7.345.493 7.799.471.439.761.458 6.931.458h6.439l.489-.52c.481-.512.489-.634.489-7.831v-7.31l-.521-.489c-.509-.478-.658-.489-6.931-.489-6.41 0-6.411 0-6.9.521zm20.026-.072c-.265.247-.543.778-.617 1.181s-.104 3.751-.066 7.441l.068 6.709.531.43c.495.401.96.429 6.97.422 4.708-.005 6.536-.08 6.797-.281.825-.633.88-1.134.88-8.031s-.055-7.398-.88-8.031c-.261-.201-2.086-.276-6.779-.281-6.113-.007-6.446.014-6.904.441zm20.164-.16c-.827.635-.88 1.128-.88 8.208v6.953l.552.595.551.594 6.475-.007c6.801-.007 6.906-.022 7.451-1.046.343-.645.366-13.42.025-14.397-.129-.372-.488-.792-.797-.933-.814-.371-12.889-.341-13.377.033zm20.012 0c-.826.634-.88 1.129-.879 8.185v6.929l.532.618.532.618h6.55c6.251 0 6.572-.02 7.001-.449s.45-.75.45-7.861c0-7.335-.006-7.416-.493-7.87-.471-.44-.756-.458-6.914-.451-4.693.005-6.518.08-6.779.281zm-182.336 4.546v4.609h-1.687-1.686v-4.609-4.61h1.686 1.687v4.61zm59.754-3.582l-.618.336v4.281c0 3.41.066 4.346.321 4.602.267.266 1.682.321 8.275.321 5.886 0 8.024-.07 8.223-.27.191-.191.27-1.531.27-4.596 0-4.217-.013-4.336-.5-4.677-.729-.511-15.028-.508-15.971.003zm29.338-.003c-.487.341-.5.46-.5 4.677 0 3.065.079 4.405.27 4.596.199.2 2.348.27 8.274.27s8.075-.07 8.275-.27c.302-.301.391-8.419.098-8.859-.465-.696-1.229-.764-8.533-.764-6.32 0-7.457.05-7.884.35zm-436.441 1.403c-.288.221-.568.741-.641 1.188-.178 1.093.744 2.23 1.808 2.23.91 0 1.578.682 1.916 1.956.265.999 1.127 1.867 1.855 1.867 1.153 0 2.207-1.178 2.207-2.467 0-.55 1.032-1.355 1.744-1.361.957-.007 1.641-.672 1.784-1.733.107-.795.039-1.011-.482-1.531-.541-.542-.734-.595-1.809-.506a7.2 7.2 0 0 0-2.266.646l-1.062.547-1.26-.615c-1.488-.727-3.022-.816-3.795-.221zm480.237 5.667v4.722h-3.935-3.935v-4.722-4.722h3.935 3.935v4.722zm20.012 0v4.722h-3.935-3.935v-4.722-4.722h3.935 3.935v4.722zm20.012 0v4.722h-3.822-3.823v-4.722-4.722h3.823 3.822v4.722zm20.012 0v4.722h-3.823-3.822v-4.722-4.722h3.822 3.823v4.722zm-148.628-2.361v2.136h-5.846-5.847v-2.136-2.136h5.847 5.846v2.136zm29.231 0v2.136h-5.846-5.847v-2.136-2.136h5.847 5.846v2.136zm29.456 0v2.136h-5.847-5.846v-2.136-2.136h5.846 5.847v2.136zm132.663-1.779a19.2 19.2 0 0 0-.899.379c-.942.426-10.982 10.517-11.475 11.533-1.068 2.205-.12 5.072 2.043 6.175.478.244 1.146.444 1.484.444.542 0 .173.436-3.157 3.735-2.074 2.054-3.985 4.103-4.246 4.553-.668 1.154-.672 3.82-.007 5.09.799 1.527 2.275 2.642 3.944 2.979l.84.169-3.545 3.559c-3.927 3.941-4.544 4.892-4.544 6.999 0 2.378 1.078 4.312 3.078 5.526l1.288.78 7.373.07 7.373.071v5.02c0 4.608.036 5.064.43 5.551.338.417.649.531 1.452.531 1.712 0 1.701.049 1.709-7.233.004-3.484-.055-6.497-.132-6.696-.324-.845-.902-.909-9.274-1.024l-8.175-.112-.65-.779c-.473-.567-.65-1.017-.65-1.66 0-.85.189-1.07 5.397-6.288 5.071-5.08 5.396-5.456 5.396-6.227 0-.567-.161-.971-.52-1.309-.473-.445-.759-.489-3.159-.489-1.942 0-2.817-.092-3.312-.348-.651-.337-1.103-1.092-1.103-1.844 0-.201 2.479-2.857 5.509-5.903 5.341-5.369 5.508-5.564 5.501-6.422-.013-1.623-.292-1.769-3.608-1.897-2.943-.114-3.341-.238-3.352-1.05-.006-.489 9.902-10.193 10.407-10.193.314 0 2.111 1.632 5.374 4.884 6.182 6.159 6.231 6.359 1.534 6.359-2.352 0-2.53.032-3.05.552a1.79 1.79 0 0 0-.552 1.312c0 .693.46 1.217 5.185 5.913 2.852 2.833 5.387 5.476 5.633 5.872.417.67.424.766.095 1.401-.579 1.119-1.345 1.364-4.268 1.364-3.062 0-3.497.228-3.497 1.83 0 .915.092 1.023 5.284 6.221 5.08 5.086 5.284 5.324 5.284 6.164 0 1.006-.478 2.06-1.06 2.335-.221.105-2.695.244-5.498.309-5.034.116-5.103.124-5.566.658-.659.762-.615 1.918.101 2.635l.57.569 5.558-.075c5.35-.072 5.592-.095 6.457-.601 2.211-1.291 3.261-3.102 3.261-5.622 0-2.5-.374-3.103-4.46-7.19l-3.59-3.591.933-.146c1.51-.235 2.919-1.258 3.778-2.744.615-1.064.73-4.022.201-5.173-.18-.39-2.026-2.414-4.102-4.497l-3.775-3.786.791-.134c1.855-.315 3.468-2.415 3.474-4.521.005-1.555-.277-2.239-1.455-3.529-1.471-1.612-9.628-9.658-10.178-10.04-.514-.358-3.249-.654-3.878-.419zm69.48.018c-1.315.448-2.319 1.291-6.408 5.377l-4.61 4.608.003 3.758c.002 2.067.078 3.859.169 3.983.291.395 1.154.787 1.736.787.311 0 .565.061.565.136s-.556.659-1.236 1.297l-1.237 1.16v2.526c0 1.618.085 2.526.237 2.526.13 0 2.114-1.879 4.408-4.174 3.701-3.704 4.184-4.272 4.287-5.043.097-.721.019-.966-.462-1.447-.553-.553-.693-.579-3.078-.579-4.71 0-4.663-.185 1.665-6.49l5.034-5.016.644.341c.905.48 9.975 9.662 9.975 10.099 0 .871-.601 1.066-3.286 1.066-2.44 0-2.61.03-3.132.552-.373.373-.552.803-.552 1.329 0 .716.439 1.218 5.509 6.297 5.879 5.889 6.036 6.111 5.11 7.254-.678.837-1.279.982-4.068.982h-2.698l-.465.653c-.879 1.234-.686 1.664 1.939 4.327 1.322 1.342 2.279 2.44 2.126 2.44s-.527.249-.83.552c-.683.683-.717 1.652-.086 2.453l.466.593h17.506H727.7l.466-.593c.631-.801.597-1.77-.086-2.453l-.552-.552h-14.35-14.349l-1.902-1.911c-1.408-1.416-1.786-1.911-1.456-1.913 2.713-.007 5.245-3.023 5.002-5.957-.156-1.886-.739-2.726-4.642-6.689-3.082-3.129-3.617-3.767-3.162-3.767.615-.001 1.797-.66 2.533-1.412.863-.881 1.164-1.736 1.156-3.288-.007-1.213-.115-1.647-.597-2.382-.324-.495-2.9-3.192-5.726-5.994-4.216-4.181-5.298-5.139-6.037-5.339-.925-.252-2.439-.3-3.035-.097zm-406.535 6.933v4.609h-4.61-4.609v-4.609-4.61h4.609 4.61v4.61zm13.041 0v4.609h-4.722-4.722v-4.609-4.61h4.722 4.722v4.61zm480.4-2.044c-.651.52-.675.605-.675 2.379 0 1.663.051 1.882.531 2.27.826.669 2.213.578 2.872-.188.446-.52.532-.864.532-2.154 0-1.397-.059-1.594-.657-2.192-.813-.812-1.684-.851-2.603-.115zm5.825-.114c-.258.113-.605.533-.771.933-.267.644-.252.819.133 1.538.377.703.553.818 1.334.863 3.72.215 7.303 1.327 10.207 3.169 1.499.951 4.701 4.183 5.305 5.354.246.478.5.919.563.981.262.257 1.386 2.893 1.628 3.819.778 2.976.837 4.499.842 21.719l.005 17.106.52.489c.643.604 1.653.623 2.403.047l.562-.432-.002-18.732-.003-18.732-.508-1.799c-.28-.989-.596-2.001-.702-2.248-.52-1.214-1.928-4.061-2.057-4.16-.08-.062-.272-.352-.427-.646-.444-.843-3.154-3.766-4.511-4.866-2.257-1.829-5.472-3.339-8.78-4.123-1.447-.344-5.18-.526-5.741-.28zm42.968-.051c-2.666.228-7.017 1.856-9.608 3.594-1.38.927-5.242 4.796-5.455 5.465-.08.252-.225.457-.323.457-.276 0-2.449 4.487-2.722 5.622-.898 3.728-.892 3.575-.892 22.301v18.142l.653.465c.815.58 1.613.592 2.301.035l.531-.43.12-18.514.402-19.301c.155-.433.388-1.141.517-1.574 1.014-3.395 3.25-6.589 6.282-8.975.909-.715 3.818-2.295 5.046-2.742 1.277-.463 4.641-1.089 5.886-1.095s1.976-.841 1.786-2.028c-.236-1.478-1.014-1.722-4.524-1.422zm-649.152.333c-1.386.761-2.11 2.374-1.677 3.731.923 2.888 4.614 3.312 5.972.686.725-1.402.158-3.483-1.159-4.256-.753-.442-2.465-.53-3.136-.161zm8.579.182c-1.811 1.159-2.01 3.876-.385 5.237.26.218.901.51 1.424.648.833.222 1.08.191 2.001-.244.834-.393 1.154-.713 1.548-1.547.444-.941.468-1.157.228-2.06-.298-1.123-.73-1.695-1.635-2.162-.832-.431-2.408-.367-3.181.128zm8.735.063c-.846.615-.959.774-1.231 1.734a3.23 3.23 0 0 0 2.247 4.084c.736.221 1.046.2 1.896-.124 3.383-1.292 2.455-6.216-1.167-6.192-.736.004-1.282.16-1.745.498zm9.219-.245c-1.386.761-2.111 2.374-1.677 3.731.923 2.888 4.614 3.312 5.972.686.702-1.357.119-3.515-1.147-4.252-.765-.445-2.475-.535-3.148-.165zm-132.776 1.43c-3.007.513-4.58 1.078-6.856 2.462-3.523 2.142-6.582 6.016-7.641 9.676l-.592 2.001c-.261.845-.264 19.875-.003 20.732l.487 1.664c1.714 6.009 7.237 11.064 13.428 12.292l2.075.412v3.179c0 3.618.161 4.042 1.62 4.276.72.115.925.04 1.518-.552l.685-.685v-11.679-11.679l-.593-.593c-.783-.783-2.043-.816-2.741-.072-.479.51-.489.651-.489 7.195 0 7.705.277 7.053-2.588 6.09-2.362-.793-3.742-1.65-5.659-3.516-1.698-1.653-2.708-3.296-3.7-6.018-.527-1.447-.532-1.551-.532-10.568 0-7.823.052-9.266.368-10.243.514-1.584 1.376-3.571 1.589-3.66.098-.041.179-.216.179-.389s.885-1.21 1.967-2.305c1.464-1.481 2.37-2.19 3.541-2.769 2.264-1.118 4.731-1.77 6.701-1.77 2.006 0 5.598 1.032 7.54 2.166 1.135.663 3.842 3.312 4.469 4.374.213.36.467.655.564.655s.176-1.299.176-2.887v-2.887l-.731-.662c-2.553-2.317-5.466-3.621-9.5-4.255-2.371-.373-3.021-.371-5.284.015zm174.936 12.475v12.817h-1.912-1.911v-12.817-12.816h1.911 1.912v12.816zm178.846-10.158c.063.102.226.835.362 1.63l.443 2.57.432 2.698.458 2.811.337 1.967.117.731h-45.843-45.843l.186-.731c.103-.402.303-1.439.445-2.305l.888-5.115.499-2.811.286-1.63h43.559l43.674.185zm356.193 1.592c-1.85.221-1.993.387-2.08 2.429-.064 1.493-.007 1.853.354 2.27.392.451.637.494 2.795.494 2.513 0 5.575.523 7.872 1.343 2.18.778 3.292.07 3.28-2.087-.011-2.06-.312-2.443-2.553-3.255-2.519-.913-7.186-1.489-9.668-1.194zm47.893.029c-.989.098-2.557.395-3.485.661l-2.511.717c-1.466.416-1.761.879-1.761 2.765 0 2.065.087 2.29 1.002 2.592.714.236 1.785.026 3.383-.663 1.019-.439 4.421-.908 6.593-.908 2.9 0 3.029-.097 3.131-2.37.065-1.444.014-1.698-.441-2.197-.446-.49-.751-.579-2.313-.67a27.89 27.89 0 0 0-3.598.073zm-331.546 5.502v4.384h-33.387-33.386l-.102-.506c-.056-.278-.155-.86-.219-1.292a84.79 84.79 0 0 0-.363-2.137l-.455-2.721c-.114-.755-.272-1.539-.35-1.743-.131-.343 2.399-.37 34.06-.37h34.202v4.385zm-320.079-.976c-1.387.762-2.111 2.374-1.675 3.73.148.464.434 1.031.635 1.26.921 1.053 2.713 1.353 4.06.682 2.122-1.059 2.122-4.511 0-5.57-.832-.415-2.357-.467-3.02-.102zm8.574.185c-1.399.894-1.918 2.798-1.162 4.26.779 1.506 3.175 2.062 4.64 1.076.838-.563 1.53-1.755 1.53-2.634s-.692-2.071-1.53-2.634c-.946-.637-2.541-.668-3.478-.068zm8.693.074c-.963.656-1.277 1.302-1.277 2.628 0 1.35.318 1.982 1.329 2.642 1.367.892 3.636.543 4.44-.683 1.086-1.657.567-3.873-1.128-4.826-.799-.449-2.537-.325-3.364.239zm9.266-.259c-1.387.762-2.111 2.374-1.676 3.73.149.464.435 1.031.635 1.26.922 1.053 2.714 1.353 4.061.682 2.122-1.059 2.122-4.511 0-5.57-.832-.415-2.357-.467-3.02-.102zm613.737.694c-.309.162-.697.578-.863.923-.864 1.803 1.484 3.653 3.079 2.427.733-.564.922-2.193.337-2.909-.509-.624-1.786-.845-2.553-.441zm-533.352 4.554v4.609h-4.61-4.609v-4.609-4.61h4.609 4.61v4.61zm13.041 0v4.609h-4.722-4.722v-4.609-4.61h4.722 4.722v4.61zm-161.181.129c-2.28.296-4.893 1.325-7.009 2.761-1.618 1.097-1.574.991-1.574 3.84 0 1.431.035 2.601.079 2.601s.726-.65 1.517-1.445c1.68-1.687 3.475-2.826 5.566-3.533 2.015-.682 6.642-.739 8.666-.107 1.344.42 3.429 1.469 4.241 2.135 2.826 2.315 4.348 4.347 5.158 6.885 1.131 3.543 1.134 5.302.013 8.77-.855 2.647-2.629 5.067-5.084 6.936-.601.458-1.562 1.043-2.136 1.301-1.543.694-1.831 1.024-1.831 2.102 0 1.787 1.503 2.415 3.438 1.436 2.413-1.222 4.746-3.137 6.559-5.383.591-.732 2.145-3.299 2.145-3.543 0-.107.156-.507.347-.89.448-.898 1.227-4.917 1.227-6.33 0-1.526-.739-5.032-1.406-6.67-.307-.755-1.068-2.121-1.69-3.036-4.163-6.12-10.482-8.835-18.226-7.83zm451.692.77v.562h-43.397-43.396v-.562-.562h43.396 43.397v.562zm-357.967 5.172v5.509h-1.799-1.798v-5.509-5.509h1.798 1.799v5.509zm32.154 0v5.509h-1.799-1.798v-5.509-5.509h1.798 1.799v5.509zm176.96-.562v2.024h-5.284-5.284v-1.462-1.462h.883c.833 0 1.59-.435 1.59-.915 0-.121 1.707-.209 4.048-.209h4.047v2.024zm13.716 0v2.024h-5.059-5.059v-2.024-2.024h5.059 5.059v2.024zm14.615 0v2.024h-5.284-5.284v-2.024-2.024h5.284 5.284v2.024zm14.616 0v2.024h-5.284-5.284v-2.024-2.024h5.284 5.284v2.024zm14.391 0v2.024h-5.172-5.172v-2.024-2.024h5.172 5.172v2.024zm-318.955-.91c-1.273.526-2.117 2.415-1.677 3.749.516 1.565 1.586 2.343 3.183 2.316 1.853-.031 3.057-1.262 3.087-3.154.019-1.172-.643-2.372-1.564-2.838-.623-.315-2.344-.356-3.029-.073zm8.906-.055c-1.616.641-2.342 3.024-1.396 4.58 1.322 2.174 4.568 2.031 5.689-.25.509-1.035.496-1.601-.062-2.788-.311-.661-.715-1.109-1.214-1.346-.723-.344-2.374-.451-3.017-.196zm8.451.259c-.952.628-1.322 1.299-1.359 2.463-.044 1.386.365 2.288 1.319 2.909.879.572 2.5.682 3.314.224 2.169-1.218 2.256-4.598.146-5.689-.893-.461-2.651-.413-3.42.093zm9.176-.204c-1.273.526-2.118 2.415-1.677 3.749.516 1.565 1.586 2.343 3.183 2.316 1.847-.031 3.07-1.323 3.092-3.267.013-1.054-.695-2.282-1.57-2.725-.622-.315-2.343-.356-3.028-.073zm131.651 16.537v16.527h-.674-.675v-16.527-16.527h.675.674v16.527zm89.267.337v16.415h-42.834-42.835v-16.415-16.414h42.835 42.834v16.414zm163.019 0v16.415h-43.397-43.396v-16.415-16.414h43.396 43.397v16.414zm-303.552-8.319v4.497h-2.249-2.248v-2.571-2.57l-.653-.465c-.523-.372-.995-.465-2.361-.465h-1.708v-1.462-1.461h4.609 4.61v4.497zm13.041 0v4.497h-4.722-4.722v-4.497-4.497h4.722 4.722v4.497zM96.32 956.72c-.55.147-.916 1.02-.835 1.992.059.712.207.952.807 1.301 1.326.772 2.75-.092 2.75-1.669 0-1.324-1.189-2.034-2.722-1.624zm552.089 1.326c-.393.275-.5.57-.5 1.379 0 1.226.58 1.868 1.687 1.868 1.099 0 1.686-.643 1.686-1.846 0-.69-.129-1.124-.411-1.379-.518-.469-1.807-.481-2.462-.022zm-585.262.363c-1.07.517-1.275 2.08-.389 2.966.993.993 2.58.644 3.011-.663.303-.917-.128-1.895-1.012-2.298-.696-.317-.966-.318-1.611-.005zm802.529.152c-1.383.445-2.132 1.563-2.132 3.18 0 2.317 1.543 3.619 3.911 3.302 2.319-.311 3.521-2.877 2.325-4.963-.803-1.4-2.51-2.032-4.104-1.519zm-378.087.224c0 .382-8.15.485-38.374.485-27.3 0-30.881-.039-30.881-.338s3.997-.337 34.627-.337l34.628.19zm182.356 3.97c0 2.288.077 4.16.172 4.16s1.424-1.255 2.954-2.789c2.657-2.664 2.782-2.829 2.782-3.715 0-1.608-.384-1.816-3.357-1.816h-2.551v4.16zm-334.863-3.467c-.99.576-1.068 1.176-1.068 8.192 0 6.777.056 7.283.88 7.916.261.2 2.111.276 6.899.281 6.37.007 6.553-.005 6.97-.466.403-.445.429-.91.429-7.777v-7.304l-.631-.543-.631-.542-6.227.007c-3.81.004-6.38.096-6.621.236zm20.181.03c-1.028.593-1.012.469-1.012 8.104v7.284l.52.489c.51.479.656.489 7.048.489 6.039 0 6.556-.031 6.9-.411.33-.365.372-1.244.372-7.854v-7.442l-.592-.466c-.567-.446-.857-.466-6.69-.459-4.188.004-6.237.088-6.546.266zm19.423.393l-.666.666.065 7.181c.061 6.694.094 7.212.494 7.653.416.46.602.473 6.97.466 4.788-.005 6.638-.081 6.899-.281.824-.633.88-1.139.88-7.916 0-7.072-.079-7.651-1.112-8.204-.267-.142-2.815-.231-6.648-.231h-6.216l-.666.666zm20.432-.423c-.991.577-1.068 1.173-1.067 8.234 0 6.283.028 6.746.446 7.431l.446.731h6.652c5.08 0 6.72-.067 6.938-.286.756-.756.807-1.265.807-8.148v-6.891l-.657-.657-.658-.657-6.257.007c-3.83.004-6.409.095-6.65.236zm102.857.665c-.487.454-.493.535-.493 7.861s.006 7.407.493 7.861c.471.44.761.459 6.931.459h6.439l.489-.521c.481-.512.489-.634.489-7.83v-7.311l-.521-.489c-.509-.478-.658-.488-6.928-.488-6.137 0-6.428.019-6.899.458zm19.938-.029l-.531.43v7.46 7.46l.531.43c.495.401.958.429 6.97.423 4.708-.006 6.536-.081 6.797-.282.825-.633.88-1.134.88-8.031s-.055-7.398-.88-8.031c-.261-.201-2.089-.276-6.797-.281-6.011-.007-6.475.021-6.97.422zm20.248-.141c-.825.633-.88 1.134-.88 8.031s.055 7.398.88 8.031c.529.407 13.022.39 13.559-.018.759-.577.852-1.448.852-8.013s-.093-7.436-.852-8.013c-.537-.407-13.03-.424-13.559-.018zm20.012 0c-.825.633-.88 1.134-.88 8.031s.055 7.398.88 8.031c.261.201 2.086.276 6.779.282 6.158.007 6.443-.012 6.914-.452.487-.453.493-.536.493-7.83v-7.373l-.521-.489c-.509-.478-.654-.488-6.914-.481-4.671.005-6.49.081-6.751.281zm-390.438 2.059c-1.52.696-2.375 2.432-1.902 3.865.516 1.565 1.586 2.343 3.183 2.316 1.853-.032 3.057-1.263 3.087-3.155.036-2.278-2.366-3.942-4.368-3.026zm9.018-.052c-3.378 1.229-2.571 6.249 1.004 6.249 1.648 0 2.713-.838 3.148-2.476.24-.903.216-1.12-.228-2.06-.386-.818-.717-1.155-1.489-1.518-1.095-.515-1.472-.545-2.435-.195zm8.48.194c-1.196.592-1.684 1.342-1.725 2.654-.066 2.074 1.149 3.401 3.114 3.401 1.956 0 3.164-1.309 3.133-3.393-.02-1.312-.685-2.28-1.897-2.765-1.176-.47-1.493-.458-2.625.103zm-56.735.825c-1.007.392-1.232 2.141-.379 2.942.6.564 1.841.645 2.478.162.227-.172.467-.717.533-1.212.102-.758.029-.992-.459-1.479-.561-.562-1.387-.718-2.173-.413zm138.06 11.189v11.13h-5.397-5.396v-5.816c0-5.543-.022-5.844-.466-6.408l-.466-.593-20.502.007c-17.928.007-20.558.05-20.951.347-.427.323-.453.644-.516 6.401l-.067 6.062h-5.386-5.386v-11.13-11.131h32.266 32.267v11.131zm79.148-6.521v4.609h-3.935-3.935v-4.609-4.61h3.935 3.935v4.61zm20.012 0v4.609h-3.935-3.935v-4.609-4.61h3.935 3.935v4.61zm19.787 0v4.609h-3.935-3.935v-4.609-4.61h3.935 3.935v4.61zm20.012 0v4.609h-3.822-3.823v-4.609-4.61h3.823 3.822v4.61zm80.723 6.521v11.13h-5.622-5.621v-5.95c0-5.831-.01-5.959-.492-6.408-.488-.455-.668-.459-21.648-.459-18.784 0-21.213.04-21.656.35-.496.347-.5.403-.5 6.409v6.058h-5.734-5.734v-11.13-11.131h33.504 33.503v11.131zm22.485-6.184v4.722h-3.935-3.935v-4.722-4.722h3.935 3.935v4.722zm20.012 0v4.722h-3.935-3.935v-4.722-4.722h3.935 3.935v4.722zm20.012 0v4.722h-3.822-3.823v-4.722-4.722h3.823 3.822v4.722zm20.012 0v4.722h-3.823-3.822v-4.722-4.722h3.822 3.823v4.722zm290.266-2.702c-.443.235-1.363 1.028-2.043 1.762-2.338 2.525-2.293 4.433.164 7.011 2.191 2.299 2.214 2.369 2.308 7.196.093 4.781.152 4.946 1.762 4.946.677 0 1.115-.138 1.427-.449.418-.419.449-.75.449-4.782 0-3.706-.062-4.501-.43-5.508-.474-1.298-1.575-2.898-2.812-4.089-.443-.426-.805-.86-.805-.965 0-.205 1.738-1.97 1.94-1.97.068 0 .795.607 1.617 1.348 2.188 1.975 3.999 2.692 6.812 2.697 1.308.002 1.558-.069 2.08-.59.392-.393.59-.83.585-1.293-.014-1.366-.901-1.937-3.007-1.937-1.762 0-2.612-.409-4.406-2.115-.68-.647-1.52-1.296-1.865-1.442-.949-.401-2.848-.31-3.776.18zm-128.242 1.428c-1.165 1.165-.419 3.073 1.202 3.073 1.183 0 1.818-.601 1.809-1.713-.009-1.159-.442-1.672-1.532-1.819-.758-.101-.991-.029-1.479.459zm96.341 2.216c-.643.691-.613 1.982.062 2.617.513.481.635.489 7.831.489h7.31l.489-.521c.636-.676.65-1.92.031-2.585-.454-.487-.536-.492-7.861-.492s-7.408.005-7.862.492zm-552.698 4.792v4.609h-2.249-2.248v-4.609-4.61h2.248 2.249v4.61zm13.041 0v4.609h-4.722-4.722v-4.609-4.61h4.722 4.722v4.61zm324.693-3.993c-1.37.537-1.43 2.791-.091 3.402.79.36 1.163.318 1.907-.211.55-.392.653-.62.653-1.446 0-.791-.114-1.07-.592-1.446-.582-.457-1.217-.559-1.877-.299zm-484.114.508c-.418.418-.45.749-.45 4.722v4.272h-.506c-.503 0-3.135-.874-4.216-1.399-1.917-.933-4.728-3.484-5.654-5.134-.275-.488-.557-.885-.627-.882-.205.01-1.813 3.48-1.813 3.913 0 .468 3.572 4.067 4.251 4.282.259.082.471.244.471.359s.111.21.246.21.515.185.843.411c1.165.803 5.111 2.062 6.461 2.062h.544v3.357 3.356l.593.466c.802.631 1.77.597 2.453-.086l.552-.551v-9.446c0-9.427-.001-9.446-.492-9.904-.657-.612-2.048-.616-2.656-.008zm-51.022.951c-.532 1.232-1.611 2.696-2.945 3.995-1.726 1.683-1.96 1.855-3.684 2.703-.826.407-1.566.843-1.644.969s-.141.683-.141 1.237c0 1.163.604 1.837 1.648 1.837.877 0 3.043-1.055 4.609-2.245.595-.452 3.493-3.354 3.992-3.998.525-.677.505-.853-.274-2.419-.367-.739-.671-1.502-.675-1.694s-.133-.524-.288-.735c-.253-.346-.313-.311-.599.35zm90.514.839c-1.025.524-1.362.939-1.71 2.1-.418 1.396.267 2.952 1.612 3.66 1.432.753 3.637.088 4.332-1.307 1.399-2.804-1.5-5.853-4.234-4.453zm9.213-.169c-3.378 1.228-2.571 6.249 1.004 6.249 1.648 0 2.713-.838 3.148-2.477.24-.903.216-1.119-.228-2.06-.386-.818-.717-1.154-1.489-1.518-1.095-.514-1.472-.544-2.435-.194zm8.48.193c-1.059.525-1.505 1.096-1.723 2.207-.391 1.998 1.078 3.849 3.054 3.849 2.017 0 3.223-1.283 3.191-3.394-.02-1.311-.685-2.279-1.897-2.764-1.176-.47-1.493-.458-2.625.102zm501.576.884c-.655.655-.599 1.906.114 2.568.493.456.521.558.225.803-.417.346-.441 1.985-.037 2.517.159.208.56.446.893.53.622.156.773.421.379.665-.124.076-.225.53-.225 1.009 0 .671.135.976.593 1.335.52.41.903.466 3.148.466h2.555v2.024 2.024h-.843c-1.232.001-2.08.796-2.08 1.951 0 .582.158 1.056.458 1.379.415.445.682.492 2.786.492 3.428 0 3.37.073 3.461-4.364l.072-3.506h11.115 11.114v3.443c0 4.549-.099 4.427 3.617 4.427 2.566 0 2.727-.027 3.251-.552.596-.595.699-1.353.303-2.223-.321-.704-1.09-1.047-2.347-1.047h-1.001v-2.008-2.009l3.588-.071c3.279-.066 3.618-.111 3.928-.522.497-.659.446-2.043-.096-2.585-.443-.443-.75-.45-19.45-.45h-19v-1.462-1.461h16.639 16.639v1.236c0 1.225.007 1.237.675 1.237.947 0 1.574-.702 1.574-1.761 0-.474-.076-.938-.169-1.031s-.169-.726-.169-1.406c0-1.03-.089-1.31-.53-1.668-.513-.415-1.127-.43-17.764-.425-16.65.005-17.252.02-17.795.437-.473.365-.559.611-.545 1.569l.016 1.137h-1.205c-1.121 0-1.188-.03-.972-.435.372-.695.278-1.927-.178-2.341-.592-.535-2.169-.49-2.737.078zm161.557.425c-2.473.452-4.609 2.112-5.743 4.463-.666 1.382-.701 1.584-.628 3.628.065 1.842.173 2.358.724 3.465.764 1.532 2.218 2.889 3.955 3.69 1.04.479 1.573.573 3.266.573 2.467 0 3.911-.574 5.6-2.223 1.581-1.544 2.244-3.097 2.344-5.492.073-1.754.02-2.06-.596-3.418-.875-1.929-2.046-3.175-3.739-3.977-1.476-.699-3.625-.993-5.183-.709zm22.261-.003c-5.471 1.017-8.179 7.502-5.129 12.282.69 1.081 2.282 2.412 3.667 3.066 1.533.724 4.602.677 6.336-.096 3.399-1.516 5.218-4.909 4.679-8.725-.257-1.822-.79-2.816-2.348-4.378-1.008-1.013-1.662-1.463-2.535-1.746-1.409-.457-3.436-.632-4.67-.403zm-204.136 2.957c-.23.39-.725 1.059-1.101 1.487-1.285 1.464-.382 1.643 8.321 1.649l6.802.006v5.155 5.155l.593.466c.802.631 1.77.597 2.453-.086l.552-.551v-6.38-6.379l-.58-.545-.58-.545-8.021-.071-8.02-.071-.419.71zm-434.111 4.378v4.61h-7.982-7.982v-4.61-4.609h7.982 7.982v4.609zm19.562 0v4.61h-7.869-7.87v-4.61-4.609h7.87 7.869v4.609zm198.996 0v4.61h-8.432-8.432v-4.61-4.609h8.432 8.432v4.609zm20.461 0v4.61h-8.319-8.32v-4.61-4.609h8.32 8.319v4.609zm379.866-3.557c1.003.218 2.521 1.812 2.831 2.975.828 3.095-2.046 6.085-5.113 5.319-1.88-.47-3.427-2.394-3.427-4.262 0-1.064.988-2.881 1.849-3.402 1.005-.608 2.218-.991 2.76-.871l1.1.241zm22.013-.066c1.734.522 2.783 1.605 3.273 3.377.567 2.054-1.164 4.54-3.481 4.997-1.12.222-1.554.153-2.75-.437-2.776-1.369-3.218-5.143-.825-7.053a6.92 6.92 0 0 1 2.614-1.172c.073-.013.599.117 1.169.288zm-133.814 2.232c-.535.57-.636 1.656-.284 3.052.114.447.316 1.344.45 1.993 1.061 5.126 1.149 5.431 1.675 5.8.68.476 6.809.471 7.49-.006.465-.325.64-.889 1.223-3.939l.439-2.162c.111-.509.269-1.65.351-2.536.138-1.484.109-1.655-.372-2.167l-.522-.555h-4.98c-4.916 0-4.988.007-5.47.52zm131.481.218c-.948.728-1.132 2.03-.414 2.942.389.495.646.592 1.557.592s1.169-.097 1.558-.592a1.95 1.95 0 0 0-1.558-3.216c-.432 0-.947.123-1.143.274zm-583.476 4.096v1.687H278.7h-8.769v-1.687-1.686h8.769 8.769v1.686zm-274.201 4.02c-.34.339-.592.932-.694 1.63-.244 1.674-1.024 2.848-2.191 3.296-.322.123-.384.469-.384 2.154v2.007l.843-.264c1.108-.346 2.519-1.107 3.139-1.693.631-.596.712-.59 1.527.114 2.646 2.288 6.903 2.528 10.073.569.412-.254.935-.668 1.161-.918l.412-.454.583.582c1.285 1.285 3.485 2.103 5.67 2.108 2.104.005 4.278-.786 5.63-2.049l.643-.601.643.601c.599.559 1.747 1.195 3.246 1.799.466.188 115.784.253 444.029.253H931v-1.911-1.911H487.954c-381.141 0-443.153-.044-443.805-.318-1.348-.564-2.445-2.171-2.445-3.581 0-1.231-.646-1.835-1.964-1.835-1.399 0-1.755.349-2.065 2.023-.434 2.346-2.033 3.711-4.351 3.711-2.103 0-3.988-1.594-3.988-3.373 0-.858-.533-1.932-1.112-2.242-.72-.385-1.748-.264-2.383.282-.446.384-.629.795-.722 1.63-.254 2.259-1.898 3.703-4.215 3.703-1.091 0-1.553-.118-2.262-.577-1.104-.716-1.898-1.893-1.898-2.815 0-.977-.61-2.16-1.195-2.316-.99-.266-1.753-.133-2.282.396z" fill="#dfcb45"/><g fill="#071729"><path d="M1322.77 226.104c-11.98 2.547-16.28 4.024-78.06 26.772l-101.52 37.333-203.465 75.165c-8.341 3.575-22.562 13.63-28.563 20.198-10.536 11.528-17.929 27.405-20.862 44.806-.83 4.925-1.169 17.453-.946 35.04l.346 27.375 4.049-8.479c2.227-4.664 5.635-10.786 7.574-13.603 4.896-7.117 17.564-20.266 26.702-27.716 12.571-10.251 24.738-18.072 50.643-32.554 3.61-2.018 4.654-3.239 4.654-5.44 0-9.888 7.679-19.871 19.988-25.99 4.37-2.167 29.37-11.779 55.57-21.36l187.24-68.76 42.71-15.67 22.17-8.068c5.87-2.152 10.68-3.717 10.68-3.476s-4.56 3.531-10.13 7.313l-24.37 16.94c-15.8 11.215-34.7 25.79-34.15 26.34.36.368 17.23-5.586 28.3-9.986.99-.395-6.81 7.984-17.33 18.619-10.53 10.635-18.92 19.558-18.65 19.828s3.68-.708 7.57-2.174l7.08-2.664-13.78 13.858c-19.36 19.462-31.65 36.558-40.24 55.937-4.58 10.348-10.1 11.625 57.11-13.207 62.16-22.966 75.44-29.267 89.66-42.531 10.06-9.389 19.49-24.72 23.94-38.927 2.07-6.593 2.38-9.995 2.27-24.323-.23-29.289-4.39-43.968-15.28-53.919-9.79-8.945-21.36-10.834-40.91-6.677zM1027.94 382.54c-18.52 7.02-33.668 13.125-33.668 13.565s1.482 2.488 3.293 4.55c8.655 9.857 24.305 4.394 51.655-18.026 16.38-13.427 15.97-13.044 13.98-12.939-.87.047-16.74 5.829-35.26 12.85zm-55.568 82.504c-10.161 2.132-26.125 7.931-37.777 13.726-11.049 5.493-35.087 20.744-42.508 26.968L889 508.327l1.143 89.141 1.824 157.578 4.241 184.948c4.707 18.789 13.948 28.207 29.672 30.237 10.42 1.346 22.358-2.42 102.34-32.275l59.67-21.957 80.49-29.549 90.88-33.365c70.64-25.904 68.51-25.087 79.34-30.46 32.68-16.208 51.3-38.557 57.01-68.425 1.92-9.999 2.09-34.275.58-80.731l-2.33-87.053-1.97-55.988c-.38-.38-11.03 3.154-23.68 7.854l-162.06 59.579-54.07 19.96-10.28 3.92.55 15.221c.3 8.373.75 15.423.99 15.668.25.245 4.62-1.036 9.73-2.847s17.17-5.563 26.8-8.338c27.38-7.886 34-7.106 39.97 4.705l2.74 5.419.33 60.705c.21 39.376-.09 63.423-.85 68.438-4.21 27.653-20.69 49.817-47.3 63.602-9.92 5.139-89.46 34.979-90.49 33.949-.32-.324-.99-21.16-1.49-46.3l-2.56-107.029-1.65-86.72c.06-101.844-23.75-160.793-69.76-172.718-7.41-1.918-28.215-2.177-36.438-.452z"/></g></g><use xlink:href="#C" fill="#071729"/><mask id="A" maskUnits="userSpaceOnUse" x="889" y="224" width="509" height="747" mask-type="alpha"><path fill-rule="evenodd" d="M1322.77 226.104c-11.98 2.547-16.28 4.024-78.06 26.772l-101.52 37.333-203.465 75.165c-8.341 3.575-22.562 13.63-28.563 20.198-10.536 11.528-17.929 27.405-20.862 44.806-.83 4.925-1.169 17.453-.946 35.04l.346 27.375 4.049-8.479c2.227-4.664 5.635-10.786 7.574-13.603 4.896-7.117 17.564-20.266 26.702-27.716 12.571-10.251 24.738-18.072 50.643-32.554 3.61-2.018 4.654-3.239 4.654-5.44 0-9.888 7.679-19.871 19.988-25.99 4.37-2.167 29.37-11.779 55.57-21.36l187.24-68.76 42.71-15.67 22.17-8.068c5.87-2.152 10.68-3.717 10.68-3.476s-4.56 3.531-10.13 7.313l-24.37 16.94c-15.8 11.215-34.7 25.79-34.15 26.34.36.368 17.23-5.586 28.3-9.986.99-.395-6.81 7.984-17.33 18.619-10.53 10.635-18.92 19.558-18.65 19.828s3.68-.708 7.57-2.174l7.08-2.664-13.78 13.858c-19.36 19.462-31.65 36.558-40.24 55.937-4.58 10.348-10.1 11.625 57.11-13.207 62.16-22.966 75.44-29.267 89.66-42.531 10.06-9.389 19.49-24.72 23.94-38.927 2.07-6.593 2.38-9.995 2.27-24.323-.23-29.289-4.39-43.968-15.28-53.919-9.79-8.945-21.36-10.834-40.91-6.677zM1027.94 382.54c-18.52 7.02-33.668 13.125-33.668 13.565s1.482 2.488 3.293 4.55c8.655 9.857 24.305 4.394 51.655-18.026 16.38-13.427 15.97-13.044 13.98-12.939-.87.047-16.74 5.829-35.26 12.85zm-55.568 82.504c-10.161 2.132-26.125 7.931-37.777 13.726-11.049 5.493-35.087 20.744-42.508 26.968L889 508.327l1.143 89.141 1.824 157.578 4.241 184.948c4.707 18.789 13.948 28.207 29.672 30.237 10.42 1.346 22.358-2.42 102.34-32.275l59.67-21.957 80.49-29.549 90.88-33.365c70.64-25.904 68.51-25.087 79.34-30.46 32.68-16.208 51.3-38.557 57.01-68.425 1.92-9.999 2.09-34.275.58-80.731l-2.33-87.053-1.97-55.988c-.38-.38-11.03 3.154-23.68 7.854l-162.06 59.579-54.07 19.96-10.28 3.92.55 15.221c.3 8.373.75 15.423.99 15.668.25.245 4.62-1.036 9.73-2.847s17.17-5.563 26.8-8.338c27.38-7.886 34-7.106 39.97 4.705l2.74 5.419.33 60.705c.21 39.376-.09 63.423-.85 68.438-4.21 27.653-20.69 49.817-47.3 63.602-9.92 5.139-89.46 34.979-90.49 33.949-.32-.324-.99-21.16-1.49-46.3l-2.56-107.029-1.65-86.72c.06-101.844-23.75-160.793-69.76-172.718-7.41-1.918-28.215-2.177-36.438-.452z" fill="#f5df4d"/></mask><g mask="url(#A)"><use xlink:href="#C" fill="#f5df4d"/></g></g><defs><clipPath id="B"><path fill="#fff" d="M0 0h1280v1012H0z"/></clipPath><path id="C" d="M622.5 320C172 380.5 63.5 373.5 0 233.5V-12h1281v532.5c-68-70.5-208-261-658.5-200.5z"/></defs></svg>