<svg xmlns="http://www.w3.org/2000/svg" width="333" height="486" fill="none" xmlns:v="https://vecta.io/nano"><path fill-rule="evenodd" d="M280.5 1.597c-3.85.859-11.05 3.063-16 4.898l-36.363 13.164c-5.15 1.845-10.775 4.007-12.5 4.804S208 27.472 202.5 29.379l-37.811 13.665c-.996.577-6.171 2.575-11.5 4.441L117.66 60.407c-1.738.779-7.885 3.09-13.66 5.136L67.5 78.925c-2.2 1.016-5.575 2.297-7.5 2.849-4.926 1.41-21.628 7.641-27 10.072-10.934 4.949-21.22 15.103-26.096 25.76C2.021 128.279 1 135.115 1 157.128v20.005l2.673-.317c1.952-.231 2.937-1.125 3.654-3.316.54-1.65 3.101-6.15 5.692-10 9.017-13.4 26.533-27.082 50.231-39.236 1.8-.923 2.75-2.209 2.75-3.722 0-1.272.612-3.769 1.361-5.549l1.361-3.237.651 2.594c1.132 4.512 4.402 6.65 10.166 6.65 6.039 0 10.343-1.341 16.185-5.042C102.557 111.628 119 97.721 119 96.271c0-2.058-2.935-2.712-6.903-1.538-3.799 1.125-21.203 7.635-24.597 9.202-1.1.507-4.475 1.816-7.5 2.908l-7.5 2.731c-1.802.672-1.765.489.371-1.858 2.326-2.553 9.873-5.8 30.629-13.179 5.5-1.955 10.9-3.995 12-4.535s6.95-2.729 13-4.867l23.5-8.457 24-8.675 13.5-5.018c2.438-1.115 20.395-7.774 34-12.608l13-4.842c1.65-.708 7.275-2.705 12.5-4.439s10.331-3.62 11.347-4.193 2.043-.847 2.281-.608-2.315 2.406-5.674 4.819C242.278 51.656 236 57.06 236 59.152c0 1.868.433 2.05 3.75 1.578 2.063-.293 4.637-.888 5.72-1.323s-1.729 2.964-6.25 7.553c-5.592 5.676-8.22 9.093-8.22 10.691 0 1.292.419 2.349.932 2.349s-1.122 2.138-3.631 4.75-5.741 6.325-7.182 8.249-3.363 4.325-4.272 5.335-4.17 6.41-7.246 12.001c-6.434 11.694-7.339 16.665-3.035 16.665 1.411 0 3.517-.509 4.681-1.132s7.546-3.072 14.184-5.443l22.069-7.879c5.5-1.963 10.9-3.994 12-4.515s6.128-2.51 11.173-4.42c17.695-6.701 26.07-11.488 34.308-19.611 4.183-4.125 8.33-9.075 9.215-11l3.67-8c2.918-6.37 4.081-12.342 4.11-21.091.026-8.347-1.772-23.832-2.952-25.409-.412-.55-1.019-2.137-1.349-3.527-.8-3.364-7.111-10.63-10.962-12.622C302.3.069 289.058-.312 280.5 1.597zm24.347 7.407c3.898 2.824 5.729 5.781 9.215 14.888.828 2.163 1.323 8.504 1.368 17.5l.07 14.108-4.196 8.5c-2.655 5.379-6.161 10.52-9.547 14-5.136 5.279-13.646 12-15.193 12-.407 0-3.738 1.388-7.402 3.084S268.9 97.506 264.5 99.142l-12 4.517-14.5 5.356-17.471 6.344c-3.835 1.392-7.16 2.343-7.391 2.113s1.782-4.094 4.472-8.585c3.347-5.589 8.782-12.145 17.223-20.776 11.506-11.765 12.299-12.826 11.82-15.817-.471-2.941.143-3.845 7.417-10.924 8.052-7.835 9.716-11.271 6.367-13.146-1.271-.71-.773-1.423 2.656-3.799 6.273-4.348 9.103-6.192 12.157-7.92 1.512-.856 2.75-1.995 2.75-2.531s.498-.974 1.106-.974 2.882-1.407 5.053-3.126c2.755-2.182 3.856-3.768 3.644-5.25-.26-1.82-.948-2.113-4.803-2.048-2.475.042-6.525 1.005-9 2.139s-8.775 3.514-14 5.287-9.95 3.576-10.5 4.007-2.575 1.24-4.5 1.798-8 2.662-13.5 4.675l-18.44 6.656c-4.642 1.647-9.257 3.432-10.256 3.967s-7.326 2.923-14.06 5.307L164.5 65.004c-6.6 2.341-12.45 4.587-13 4.992s-5.5 2.207-11 4.004-10.45 3.587-11 3.977-5.95 2.388-12 4.439-12.415 4.37-14.143 5.153c-3.014 1.365-15.681 5.938-19.857 7.168-5.273 1.554-16.106 8.145-18.728 11.395-1.709 2.118-3.158 5.326-3.476 7.695-.535 3.991-.739 4.172-11.555 10.229-9.419 5.275-17.101 10.465-25.074 16.944-3.048 2.477-13.005 12.55-15.446 15.627L6.942 159.5 7.36 146c.59-19.04 4.1-28.182 14.845-38.666C30.87 98.879 35.946 96.533 75.5 82.697c6.6-2.308 12.15-4.535 12.333-4.947s.806-.75 1.384-.75c1.217 0 19.838-6.505 24.283-8.483 1.65-.734 6.6-2.534 11-4s9.35-3.251 11-3.965 7.05-2.756 12-4.536l11-4.044c1.1-.445 5.375-2.03 9.5-3.522l34-12.528 18.5-6.739 27.736-10.221c.955-.529 2.237-.962 2.849-.962s2.66-.734 4.551-1.632 9.384-3.573 16.651-5.946c10.704-3.496 14.656-4.325 20.813-4.369 6.903-.048 7.98.223 11.747 2.951zM94.5 109c-.34.55-1.085 1-1.655 1s-2.231.815-3.691 1.812c-3.495 2.386-9.991 4.261-10.713 3.092-.562-.91.75-1.554 10.059-4.94 5.917-2.151 6.824-2.297 6-.964zM55 155.488c-3.575.714-8.075 1.984-10 2.821s-5.975 2.517-9 3.735c-6.181 2.487-20.185 10.687-26.548 15.545-2.311 1.763-5.22 3.752-6.466 4.418l-2.264 1.212.652 34.14 1.234 103.823C3.53 431.533 4.353 462.499 6.525 468.5c2.682 7.413 6.335 12.376 10.905 14.817 8.047 4.297 23.501 2.452 40.07-4.785 1.65-.721 6.375-2.465 10.5-3.877s14.25-5.109 22.5-8.216l27-9.938 37-13.504c1.1-.528 5.825-2.326 10.5-3.997s9.4-3.447 10.5-3.947 6.725-2.526 12.5-4.501 11.4-4.024 12.5-4.552 6.725-2.576 12.5-4.552 11.4-4.005 12.5-4.511 6.5-2.516 12-4.468 11.35-4.141 13-4.864 7.275-2.799 12.5-4.614 9.928-3.68 10.45-4.145 1.585-.846 2.361-.846c1.929 0 19.328-7.004 21.189-8.529.825-.677 3.075-2.017 5-2.979 4.079-2.038 13.262-9.397 17.319-13.878 3.958-4.372 9.052-13.25 11.287-19.671 1.752-5.036 1.881-8.512 1.714-46.443-.205-46.675-2.045-107.582-3.288-108.851-.778-.794-14.315 2.809-16.532 4.4-.55.394-5.725 2.371-11.5 4.391s-11.4 4.091-12.5 4.601-6.05 2.313-11 4.006-10.35 3.691-12 4.44-7.621 2.949-13.269 4.89-10.77 3.838-11.381 4.216-6.565 2.612-13.231 4.966L192.5 246.454c-1.65.754-5.475 2.147-8.5 3.096s-8.762 3.056-12.75 4.681l-7.25 2.956v5.26c0 9.473 1.22 17.7 2.709 18.271 1.253.481 15.638-3.467 20.791-5.706 1.1-.478 5.879-1.854 10.62-3.058 10.334-2.623 13.192-1.83 16.38 4.546 1.868 3.736 2.018 6.306 2.271 39 .285 36.982-.408 46.756-4.004 56.428-2.447 6.582-8.88 15.292-15.513 21.003-5.742 4.944-19.347 11.737-32.254 16.103-5.225 1.767-10.85 3.784-12.5 4.48-6.453 2.725-19.575 7.362-21.151 7.475-.547.039-1.467-27.567-1.866-55.989l-3.446-133.5c-1.8-15.899-7.292-36.277-12.731-47.235C101.271 160.017 81.4 150.209 55 155.488zm27.5 6.934c10.809 4.545 20.849 14.644 25.426 25.578 1.267 3.025 2.736 6.037 3.264 6.694 1.907 2.367 5.85 19.175 8.224 35.048 2.193 14.667 2.677 24.184 3.069 60.258l1.381 77.5 1.082 52.75L125 428h3.019c1.66 0 6.048-1.096 9.75-2.435L156 419.027c6.325-2.257 12.85-4.708 14.5-5.447s4.8-1.909 7-2.599c13.745-4.314 27.21-13.856 34.43-24.398 9.583-13.992 10.019-16.871 10.103-66.722.064-37.722-.094-41.931-1.745-46.376-3.685-9.925-12.106-11.172-33.288-4.93-18.842 5.552-17 5.695-17-1.317v-5.996l14.25-5.203 22.25-8.189 40.5-14.897 28.5-10.471 23-8.488 16.452-5.931c4.649-1.685 8.751-3.063 9.117-3.063s.964 14.512 1.331 32.25l1.691 64.763c1.146 36.366.556 42.704-5.071 54.487-7.253 15.189-23.611 27.065-50.168 36.422l-21.352 7.517c-5.5 1.935-10.733 3.947-11.63 4.473s-6.971 2.834-13.5 5.132L204 417.687c-5.225 1.907-10.625 3.724-12 4.039s-2.725.903-3 1.307-5 2.326-10.5 4.27l-14 5.045-14 5.168-21 7.69-22 7.926-13 4.747c-5.217 2.225-7.465 3.086-13.5 5.169-3.575 1.235-7.85 2.813-9.5 3.508-5.125 2.159-28.74 10.487-34 11.991-9.534 2.725-15.909 1.32-20.895-4.605-3.283-3.901-4.427-6.62-5.658-13.442-.988-5.471-1.273-22.102-2.953-171.818l-1.13-100.818 2.318-2.216c7.352-7.026 32.23-20.12 44.818-23.588 8.973-2.473 22.156-2.305 28.5.362z" fill="#fffcf3"/></svg>